<?xml version="1.0" standalone="no"?>
<!DOCTYPE svg PUBLIC "-//W3C//DTD SVG 1.1//EN" "http://www.w3.org/Graphics/SVG/1.1/DTD/svg11.dtd" >
<svg>
<metadata>
Created by FontForge 20090914 at Tue Sep 22 20:39:30 2015
 By www-data
Copyright 2014 Adobe Systems Incorporated. All Rights Reserved.
</metadata>
<defs>
<font id="SourceSerifPro-Bold" horiz-adv-x="528" >
  <font-face 
    font-family="Source Serif Pro"
    font-weight="700"
    font-stretch="normal"
    units-per-em="1000"
    panose-1="2 4 8 3 5 4 5 2 2 4"
    ascent="730"
    descent="-270"
    x-height="480"
    cap-height="655"
    bbox="-191.001 -334 1170 918"
    underline-thickness="50"
    underline-position="-50"
    unicode-range="U+000D-U+FB02"
  />
<missing-glyph horiz-adv-x="636" 
d="M496 95v470l-148 -235zM464 50l-146 232l-146 -232h292zM140 95l148 235l-148 235v-470zM172 610l146 -232l146 232h-292zM556 0h-476v660h476v-660z" />
    <glyph glyph-name="f_i" unicode="fi" horiz-adv-x="624" 
d="M609 44l-0.00195312 -44.0029h-256v44l61 12c0.666992 25.333 1 52 1 80v74v60c0 32 -0.166992 58.5 -0.5 79.5s-1.16602 43.167 -2.49902 66.5h-181v-206c0 -25.333 0.166992 -50.666 0.5 -75.999s0.833008 -50.666 1.5 -75.999l66 -14v-44h-266v44l60 12
c0.666992 25.333 1.16699 51 1.5 77s0.5 51.667 0.5 77v206h-66v55l68 9c2.66699 24 6 45.5 10 64.5s9 36 15 51s13.333 28.333 22 40s19 22.834 31 33.501c32 28.667 66.833 47.667 104.5 57s76.167 14 115.5 14c19.333 0 37.833 -1.83301 55.5 -5.5s33.5 -9 47.5 -16
s25.667 -15.333 35 -25s15.333 -20.5 18 -32.5c0.666992 -19.333 -5.16602 -35.5 -17.499 -48.5s-29.5 -19.5 -51.5 -19.5c-32.667 0 -62 19 -88 57l-29 44c-18.667 -4.66699 -34 -10 -46 -16s-23.667 -14 -35 -24c-21.333 -19.333 -36 -42.333 -44 -69
s-11.667 -61.667 -11 -105h207l103 18l15 -10l-3 -143v-135v-74.5c0 -28.333 0.333008 -54.833 1 -79.5z" />
    <glyph glyph-name="f_l" unicode="fl" horiz-adv-x="629" 
d="M607 44l-0.00488281 -44.0039h-254v44l60 12c0.666992 26 1.16699 51.833 1.5 77.5s0.5 51.167 0.5 76.5v407c-21.333 0.666992 -41.166 6.33398 -59.499 17.001s-34.833 26.667 -49.5 48l-7 12c-9.33301 -6.66699 -18 -15 -26 -25c-29.333 -38 -44 -101 -44 -189h112
v-64h-110v-206c0 -25.333 0.166992 -50.666 0.5 -75.999s0.833008 -50.666 1.5 -75.999l66 -14v-44h-266v44l60 12c0.666992 25.333 1.16699 51 1.5 77s0.5 51.667 0.5 77v206h-66v55l68 9c2.66699 26 6.33398 49 11.001 69s10.834 38 18.501 54s16.834 30.5 27.501 43.5
s23 25.167 37 36.5c25.333 20.667 52.333 35.334 81 44.001s56.334 13 83.001 13c27.333 0 51.333 -4.16699 72 -12.5s35.667 -19.833 45 -34.5l67 27l14 -8l-4 -142v-360c0 -25.333 0.166992 -51 0.5 -77s0.833008 -51.667 1.5 -77z" />
    <glyph glyph-name="f_t" unicode="ft" horiz-adv-x="681" 
d="M682 61c-12.667 -19.333 -31.001 -36.001 -55.001 -50.001s-54 -21 -90 -21c-40.667 0 -72.834 10 -96.501 30s-35.5 51 -35.5 93c0 20.667 0.166992 38.5 0.5 53.5s0.5 32.167 0.5 51.5v198h-175v-206c0 -25.333 0.166992 -50.333 0.5 -75s0.833008 -49.667 1.5 -75
l76 -16v-44h-276v44l60 12c0.666992 25.333 1.16699 51 1.5 77s0.5 51.667 0.5 77v206h-66v55l68 9c5.33301 50.667 14.833 90.834 28.5 120.501s30.5 54.5 50.5 74.5c24 23.333 49.5 40 76.5 50s54.5 15 82.5 15c28.667 0 52.5 -5 71.5 -15s31.167 -23.667 36.5 -41
c0 -18.667 -5.83301 -34.334 -17.5 -47.001s-26.167 -19 -43.5 -19c-29.333 0 -57.666 21.333 -84.999 64l-8 13c-4.66699 -3.33301 -8.66699 -6.66602 -12 -9.99902s-6.66602 -7 -9.99902 -11c-15.333 -19.333 -26 -45 -32 -77s-8.33301 -71 -7 -117h192l26 140h96v-140
h114v-64h-114v-275c0 -24.667 4.83301 -42.5 14.5 -53.5s22.5 -16.5 38.5 -16.5c7.33301 0 15.833 1.5 25.5 4.5s20.5 9.5 32.5 19.5z" />
    <glyph glyph-name=".notdef" horiz-adv-x="636" 
d="M496 95v470l-148 -235zM464 50l-146 232l-146 -232h292zM140 95l148 235l-148 235v-470zM172 610l146 -232l146 232h-292zM556 0h-476v660h476v-660z" />
    <glyph glyph-name="NULL" horiz-adv-x="0" 
 />
    <glyph glyph-name="NULL" horiz-adv-x="0" 
 />
    <glyph glyph-name="CR" unicode="&#xd;" horiz-adv-x="220" 
 />
    <glyph glyph-name="space" unicode=" " horiz-adv-x="220" 
 />
    <glyph glyph-name="exclam" unicode="!" horiz-adv-x="328" 
d="M164 -15c-12 0 -22.998 2.16699 -32.998 6.5s-18.833 10.333 -26.5 18s-13.667 16.667 -18 27s-6.5 21.166 -6.5 32.499c0 23.333 8.16699 43.333 24.5 60s36.166 25 59.499 25s43.166 -8.33301 59.499 -25s24.5 -36.667 24.5 -60
c0 -11.333 -2.16699 -22.166 -6.5 -32.499s-10.333 -19.333 -18 -27s-16.5 -13.667 -26.5 -18s-21 -6.5 -33 -6.5zM164.002 670c22.667 0 42.167 -6.83301 58.5 -20.5s24.5 -34.5 24.5 -62.5c0 -17.333 -3.16699 -44.833 -9.5 -82.5s-15.833 -88.5 -28.5 -152.5l-21 -107
h-48l-21 107c-12.667 64 -22.167 114.833 -28.5 152.5s-9.5 65.167 -9.5 82.5c0 28 8.16699 48.833 24.5 62.5s35.833 20.5 58.5 20.5z" />
    <glyph glyph-name="quotedbl" unicode="&#x22;" horiz-adv-x="426" 
d="M109 732c21.333 0 38.168 -6.33203 50.501 -18.999s18.5 -32 18.5 -58c0 -11.333 -1 -24.333 -3 -39s-4.5 -29.334 -7.5 -44.001s-6 -28.334 -9 -41.001s-5.16699 -22.667 -6.5 -30l-19 -96h-48l-19 96l-6 29.5l-8.5 41.5c-3 14.667 -5.66699 29.334 -8 44.001
s-3.5 27.667 -3.5 39c0 26 6.16699 45.333 18.5 58s29.166 19 50.499 19zM317.002 732.001c21.333 0 38.168 -6.33203 50.501 -18.999s18.5 -32 18.5 -58c0 -11.333 -1 -24.333 -3 -39s-4.5 -29.334 -7.5 -44.001s-6 -28.334 -9 -41.001s-5.16699 -22.667 -6.5 -30l-19 -96
h-48l-19 96l-6 29.5l-8.5 41.5c-3 14.667 -5.66699 29.334 -8 44.001s-3.5 27.667 -3.5 39c0 26 6.16699 45.333 18.5 58s29.166 19 50.499 19z" />
    <glyph glyph-name="numbersign" unicode="#" horiz-adv-x="540" 
d="M339 375h-130l-17 -109h130zM409 375l-17 -109h99v-104h-115l-26 -162h-70l26 162h-130l-26 -162h-70l26 162h-81v104h97l17 109h-90v105h107l27 170h70l-27 -170h130l27 170h70l-27 -170h89v-105h-106z" />
    <glyph glyph-name="dollar" unicode="$" 
d="M291 39c24.667 5.33301 43.5 16.833 56.5 34.5s19.5 39.167 19.5 64.5c0 29.333 -6 51.833 -18 67.5s-31.333 29.167 -58 40.5v-207zM233 599c-20.667 -5.33301 -38 -16 -52 -32s-21 -38 -21 -66c0 -25.333 6.33301 -45.333 19 -60s30.667 -27 54 -37v195zM299 380
c35.333 -12 64.835 -24.832 88.502 -38.499s42.5 -28.667 56.5 -45s24 -34.333 30 -54s9 -41.834 9 -66.501c0 -50 -15.833 -92.167 -47.5 -126.5s-79.834 -55.166 -144.501 -62.499v-102h-55v100c-60 2 -107 15.667 -141 41s-51 59.333 -51 102c6 16 14.667 27 26 33
s23 9 35 9c16 0 29.667 -4.83301 41 -14.5s18 -26.834 20 -51.501l6 -62c9.33301 -2.66699 19.166 -4.33398 29.499 -5.00098s21.833 -1.33398 34.5 -2.00098v232l-17 6c-27.333 9.33301 -51.5 19.833 -72.5 31.5s-38.833 25.334 -53.5 41.001
s-25.834 33.834 -33.501 54.501s-11.5 44.667 -11.5 72c0 22 4.16699 43.167 12.5 63.5s20.333 38.5 36 54.5s35 29.333 58 40s49.167 17.667 78.5 21v89h55v-87c108 -6 166 -53 174 -141c-5.33301 -17.333 -13.5 -29 -24.5 -35s-22.167 -9 -33.5 -9
c-6.66699 0 -13.667 1 -21 3s-14 5.83301 -20 11.5s-11.167 13.667 -15.5 24s-7.16602 23.5 -8.49902 39.5l-4 52c-8 1.33301 -15.833 2.33301 -23.5 3l-23.5 2v-219z" />
    <glyph glyph-name="percent" unicode="%" horiz-adv-x="880" 
d="M190 8l459 655l49 -33l-459 -655zM158 456c0 -34 1.33301 -61.667 4 -83s6.5 -38 11.5 -50s10.667 -20.167 17 -24.5s13.166 -6.5 20.499 -6.5s14.166 2.16699 20.499 6.5s11.833 12.5 16.5 24.5s8.33398 28.667 11.001 50s4 49 4 83s-1.33301 61.5 -4 82.5
s-6.33398 37.5 -11.001 49.5s-10.167 20.167 -16.5 24.5s-13.166 6.5 -20.499 6.5s-14.166 -2.16699 -20.499 -6.5s-12 -12.333 -17 -24s-8.83301 -28.167 -11.5 -49.5s-4 -49 -4 -83zM211 655c18.667 0 37 -3.83301 55 -11.5s34 -19.667 48 -36s25.167 -37 33.5 -62
s12.5 -54.833 12.5 -89.5s-4.16699 -64.667 -12.5 -90s-19.5 -46.166 -33.5 -62.499s-30 -28.333 -48 -36s-36.333 -11.5 -55 -11.5c-19.333 0 -38 3.83301 -56 11.5s-34 19.667 -48 36s-25.333 37.166 -34 62.499s-13 55.333 -13 90s4.33301 64.5 13 89.5s20 45.667 34 62
s30 28.333 48 36s36.667 11.5 56 11.5zM618 197c0 -34 1.33301 -61.667 4 -83s6.5 -38 11.5 -50s10.667 -20.167 17 -24.5s13.166 -6.5 20.499 -6.5s14.166 2.16699 20.499 6.5s11.833 12.5 16.5 24.5s8.33398 28.667 11.001 50s4 49 4 83s-1.33301 61.5 -4 82.5
s-6.33398 37.5 -11.001 49.5s-10.167 20.167 -16.5 24.5s-13.166 6.5 -20.499 6.5s-14.166 -2.16699 -20.499 -6.5s-12 -12.333 -17 -24s-8.83301 -28.167 -11.5 -49.5s-4 -49 -4 -83zM671 396c18.667 0 37 -3.83301 55 -11.5s34 -19.667 48 -36s25.167 -37 33.5 -62
s12.5 -54.833 12.5 -89.5s-4.16699 -64.667 -12.5 -90s-19.5 -46.166 -33.5 -62.499s-30 -28.333 -48 -36s-36.333 -11.5 -55 -11.5c-19.333 0 -38 3.83301 -56 11.5s-34 19.667 -48 36s-25.333 37.166 -34 62.499s-13 55.333 -13 90s4.33301 64.5 13 89.5s20 45.667 34 62
s30 28.333 48 36s36.667 11.5 56 11.5z" />
    <glyph glyph-name="ampersand" unicode="&#x26;" horiz-adv-x="748" 
d="M295 61c25.333 0 46.667 4.66699 64 14s33 20.666 47 33.999l-33.5 43l-32.5 41l-61.5 77l-49.5 62c-41.333 -33.333 -62 -77.666 -62 -132.999c0 -40 11.167 -73 33.5 -99s53.833 -39 94.5 -39zM259.001 455c5.33301 -6 11.665 -12.667 18.998 -20l26 -27
c20.667 21.333 35.834 42.666 45.501 63.999s14.5 42.666 14.5 63.999c0 26.667 -5.33301 49 -16 67s-29.667 27 -57 27c-25.333 0 -44 -6.83301 -56 -20.5s-18 -30.5 -18 -50.5c0 -15.333 3.33301 -32.166 10 -50.499s17.334 -36.166 32.001 -53.499zM653 425
c-20 -48 -41.166 -94 -63.499 -138s-47.833 -86 -76.5 -126l37.5 -47c12.333 -16 24.5 -32.667 36.5 -50l107 -21v-43c-21.333 -4 -39.833 -6.66699 -55.5 -8s-31.167 -2 -46.5 -2c-19.333 0 -35.666 1 -48.999 3s-25.333 5.83301 -36 11.5s-21 13.5 -31 23.5
s-21.667 23 -35 39l-3 4c-10 -11.333 -21.167 -22.166 -33.5 -32.499s-26.333 -19.5 -42 -27.5s-33.5 -14.333 -53.5 -19s-42.333 -7 -67 -7c-33.333 0 -62.666 4.83301 -87.999 14.5s-46.666 22.667 -63.999 39s-30.5 35.5 -39.5 57.5s-13.5 45.333 -13.5 70
c0 41.333 13.333 78 40 110s68.667 60.667 126 86l-4 5l-36 41c-10.667 12.667 -19.834 25.5 -27.501 38.5s-13.5 26.333 -17.5 40s-6 28.834 -6 45.501c0 20.667 4.33301 39.5 13 56.5s21 31.5 37 43.5s35.167 21.333 57.5 28s47.166 10 74.499 10
c25.333 0 48.166 -3.33301 68.499 -10s37.666 -15.834 51.999 -27.501s25.333 -25.334 33 -41.001s11.5 -32.834 11.5 -51.501c0 -34 -11.333 -62.667 -34 -86s-55.334 -46.666 -98.001 -69.999c18 -19.333 39 -43.333 63 -72l47 -57l46 -56
c22 35.333 41.833 71.5 59.5 108.5s32.834 75.5 45.501 115.5l-86 13v44h221v-44z" />
    <glyph glyph-name="quotesingle" unicode="'" horiz-adv-x="218" 
d="M109 732c21.333 0 38.168 -6.33203 50.501 -18.999s18.5 -32 18.5 -58c0 -11.333 -1 -24.333 -3 -39s-4.5 -29.334 -7.5 -44.001s-6 -28.334 -9 -41.001s-5.16699 -22.667 -6.5 -30l-19 -96h-48l-19 96l-6 29.5l-8.5 41.5c-3 14.667 -5.66699 29.334 -8 44.001
s-3.5 27.667 -3.5 39c0 26 6.16699 45.333 18.5 58s29.166 19 50.499 19z" />
    <glyph glyph-name="parenleft" unicode="(" horiz-adv-x="365" 
d="M181 278c0 -33.333 2.83301 -66.333 8.5 -99s14.667 -66 27 -100s28.333 -69 48 -105s43.167 -74.333 70.5 -115l-38 -33c-76.667 62.667 -135.334 131.5 -176.001 206.5s-61 156.833 -61 245.5s20.333 170.5 61 245.5s99.334 143.833 176.001 206.5l38 -33
c-27.333 -40.667 -50.833 -79 -70.5 -115s-35.667 -71 -48 -105s-21.333 -67.333 -27 -100s-8.5 -65.667 -8.5 -99z" />
    <glyph glyph-name="parenright" unicode=")" horiz-adv-x="365" 
d="M184 278c0 33.333 -2.83301 66.333 -8.5 99s-14.667 66 -27 100s-28.333 69 -48 105s-43.167 74.333 -70.5 115l38 33c76.667 -62.667 135.334 -131.5 176.001 -206.5s61 -156.833 61 -245.5s-20.333 -170.5 -61 -245.5s-99.334 -143.833 -176.001 -206.5l-38 33
c27.333 40.667 50.833 79 70.5 115s35.667 71 48 105s21.333 67.333 27 100s8.5 65.667 8.5 99z" />
    <glyph glyph-name="asterisk" unicode="*" horiz-adv-x="434" 
d="M217 740c14.667 0 26.6621 -4.33105 35.9951 -12.998s14 -22.667 14 -42c0 -9.33301 -1.83301 -21 -5.5 -35s-8.5 -30.667 -14.5 -50l-12 -40l34 24c23.333 16.667 42.333 29 57 37s28 12 40 12c14.667 0 26.334 -5 35.001 -15s13 -22.667 13 -38
c0 -9.33301 -1.83301 -17.166 -5.5 -23.499s-10.167 -11.666 -19.5 -15.999s-22.166 -7.5 -38.499 -9.5s-37.5 -3.33301 -63.5 -4l-41 -1l33 -24c30 -21.333 50.667 -39.166 62 -53.499s17 -27.833 17 -40.5c0 -14.667 -5.16699 -26.334 -15.5 -35.001s-22.5 -13 -36.5 -13
c-6.66699 0 -13 1.33301 -19 4s-12 8 -18 16s-12.167 19 -18.5 33s-13.166 32 -20.499 54l-13 38l-13 -38c-7.33301 -21.333 -14.166 -38.833 -20.499 -52.5s-12.5 -24.5 -18.5 -32.5s-12.167 -13.667 -18.5 -17s-12.833 -5 -19.5 -5c-13.333 0 -25.333 4.66699 -36 14
s-16 21 -16 35c0 6 1.16699 12.167 3.5 18.5s6.5 13 12.5 20s14.167 15 24.5 24s23.5 19.167 39.5 30.5l33 24l-41 1c-25.333 0.666992 -46.166 2 -62.499 4s-29.166 5.16699 -38.499 9.5s-16 9.66602 -20 15.999s-6 14.166 -6 23.499c0 15.333 4.33301 28.166 13 38.499
s20.667 15.5 36 15.5c12 0 24.667 -4 38 -12s32.666 -20.667 57.999 -38l34 -24l-12 40c-5.33301 18.667 -9.83301 35.167 -13.5 49.5s-5.5 26.166 -5.5 35.499c0 19.333 4.5 33.333 13.5 42s20.833 13 35.5 13z" />
    <glyph glyph-name="plus" unicode="+" horiz-adv-x="530" 
d="M500 285h-193v-213h-84v213h-193v80h193v208h84v-208h193v-80z" />
    <glyph glyph-name="comma" unicode="," horiz-adv-x="300" 
d="M121 -14c-19.333 12 -33 25.5029 -41 40.5029s-12 29.833 -12 44.5c0 22 7.83301 41.333 23.5 58s36.167 25 61.5 25c10 0 20.833 -2 32.5 -6s23.167 -12 34.5 -24c3.33301 -14 6.33301 -27.333 9 -40s4 -26.667 4 -42c0 -32 -6 -61.833 -18 -89.5
s-27.5 -52.334 -46.5 -74.001s-40.5 -39.834 -64.5 -54.501s-47.667 -25.334 -71 -32.001l-14 39c32 16.667 59.333 36.167 82 58.5s40 47.833 52 76.5z" />
    <glyph glyph-name="hyphen" unicode="-" horiz-adv-x="330" 
d="M40 293h250v-84h-250v84z" />
    <glyph glyph-name="period" unicode="." horiz-adv-x="300" 
d="M150 -15c-12 0 -22.998 2.16699 -32.998 6.5s-18.833 10.333 -26.5 18s-13.667 16.667 -18 27s-6.5 21.166 -6.5 32.499c0 23.333 8.16699 43.333 24.5 60s36.166 25 59.499 25s43.166 -8.33301 59.499 -25s24.5 -36.667 24.5 -60
c0 -11.333 -2.16699 -22.166 -6.5 -32.499s-10.333 -19.333 -18 -27s-16.5 -13.667 -26.5 -18s-21 -6.5 -33 -6.5z" />
    <glyph glyph-name="slash" unicode="/" horiz-adv-x="368" 
d="M271 710h93l-267 -870h-93z" />
    <glyph glyph-name="zero" unicode="0" 
d="M175 319c0 -61.333 2.16699 -110.667 6.5 -148s10.5 -66 18.5 -86s17.333 -33.333 28 -40s22.667 -10 36 -10c12.667 0 24.5 3.33301 35.5 10s20.5 20.167 28.5 40.5s14.167 49 18.5 86s6.5 86.167 6.5 147.5c0 60.667 -2.16699 109.667 -6.5 147
s-10.5 66.166 -18.5 86.499s-17.5 33.833 -28.5 40.5s-22.833 10 -35.5 10c-13.333 0 -25.333 -3.33301 -36 -10s-20 -20 -28 -40s-14.167 -48.667 -18.5 -86s-6.5 -86.666 -6.5 -147.999zM264 652.999c28.667 0 56.667 -6.33301 84 -19s51.666 -32.5 72.999 -59.5
s38.333 -61.5 51 -103.5s19 -92.667 19 -152s-6.33301 -110 -19 -152s-29.667 -76.5 -51 -103.5s-45.666 -46.833 -72.999 -59.5s-55.333 -19 -84 -19c-29.333 0 -57.5 6.33301 -84.5 19s-51.167 32.5 -72.5 59.5s-38.333 61.5 -51 103.5s-19 92.667 -19 152
s6.33301 110 19 152s29.667 76.5 51 103.5s45.5 46.833 72.5 59.5s55.167 19 84.5 19z" />
    <glyph glyph-name="one" unicode="1" 
d="M460 44v-44h-391v44l128 26c0.666992 23.333 1 46.5 1 69.5v69.5v348l-88 -10v50l214 51l14 -9l-4 -142v-288v-69.5c0 -23 0.333008 -46.167 1 -69.5z" />
    <glyph glyph-name="two" unicode="2" 
d="M483 120l-0.000976562 -120.006h-431v83l137 141c45.333 46.667 79 89.334 101 128.001s33 79.334 33 122.001c0 40 -9.33301 71.5 -28 94.5s-46.667 34.5 -84 34.5h-10.5c-3.66699 0 -7.5 -0.666992 -11.5 -2l-14 -68c-6.66699 -32.667 -16 -54.667 -28 -66
s-25.667 -17 -41 -17c-13.333 0 -25.333 3.5 -36 10.5s-19 16.5 -25 28.5c0.666992 27.333 6.83398 51.333 18.501 72s27.5 37.834 47.5 51.501s43 23.834 69 30.501s54 10 84 10c36.667 0 67.667 -4.83301 93 -14.5s45.833 -22.167 61.5 -37.5s27 -32.666 34 -51.999
s10.5 -38.666 10.5 -57.999c0 -28 -5 -53.167 -15 -75.5s-24.5 -45 -43.5 -68s-42.5 -47.167 -70.5 -72.5l-95 -89l-70 -66h314z" />
    <glyph glyph-name="three" unicode="3" 
d="M184 531c-5.33301 -26 -13.502 -43.834 -24.502 -53.501s-23.167 -14.5 -36.5 -14.5c-25.333 0 -45.666 12 -60.999 36c1.33301 26.667 7.5 49.667 18.5 69s25.333 35.333 43 48s38 22 61 28s47.167 9 72.5 9c34 0 64.167 -4 90.5 -12s48.5 -19.167 66.5 -33.5
s31.5 -31.333 40.5 -51s13.5 -40.834 13.5 -63.501c0 -40 -12.333 -72.833 -37 -98.5s-59 -44.5 -103 -56.5c54 -9.33301 94.833 -27.666 122.5 -54.999s41.5 -65.333 41.5 -114c0 -26 -5.16699 -50.333 -15.5 -73s-25.666 -42.167 -45.999 -58.5s-46 -29.166 -77 -38.499
s-66.833 -14 -107.5 -14c-30.667 0 -58.834 3.66699 -84.501 11s-47.667 17.666 -66 30.999s-32.666 29.833 -42.999 49.5s-15.5 42.167 -15.5 67.5c6 17.333 14.333 28.5 25 33.5s21.667 7.5 33 7.5c16.667 0 30.834 -5.16699 42.501 -15.5s20.167 -31.166 25.5 -62.499
l10 -68c10.667 -2.66699 23 -4 37 -4c45.333 0 79.666 11.833 102.999 35.5s35 59.167 35 106.5c0 38.667 -10 70 -30 94s-52.667 36 -98 36h-48v55h39c43.333 0 74.333 10.167 93 30.5s28 50.833 28 91.5c0 38 -9.16699 67.333 -27.5 88s-43.833 31 -76.5 31
c-4.66699 0 -9.5 -0.166992 -14.5 -0.5s-10.167 -0.833008 -15.5 -1.5z" />
    <glyph glyph-name="four" unicode="4" 
d="M294 254v269l-194 -269h194zM511 155h-96v-155h-121v155h-277v80l305 413h93v-394h96v-99z" />
    <glyph glyph-name="five" unicode="5" 
d="M159 393c30.667 6.66699 63.3301 9.99805 97.9971 9.99805c32.667 0 63.334 -4.16699 92.001 -12.5s53.5 -21 74.5 -38s37.667 -38.333 50 -64s18.5 -55.834 18.5 -90.501c0 -34 -6.33301 -64.167 -19 -90.5s-30.167 -48.666 -52.5 -66.999
s-48.666 -32.166 -78.999 -41.499s-63.166 -14 -98.499 -14c-30 0 -57.667 3.83301 -83 11.5s-47.166 18.334 -65.499 32.001s-32.666 29.5 -42.999 47.5s-15.5 37.333 -15.5 58c4.66699 18 12.334 31.5 23.001 40.5s23.667 13.5 39 13.5s28.666 -5.5 39.999 -16.5
s19.666 -32.167 24.999 -63.5l10 -63c20.667 -6.66699 39.667 -10 57 -10c38 0 67.5 14.833 88.5 44.5s31.5 68.5 31.5 116.5c0 42 -10.333 75.333 -31 100s-52.334 37 -95.001 37c-15.333 0 -32 -1 -50 -3s-34.667 -4.66699 -50 -8l-28 17l21 299h353v-120h-302z" />
    <glyph glyph-name="six" unicode="6" 
d="M277 35c25.333 0 45.998 12.667 61.998 38s24 63.333 24 114c0 52 -8.66699 89.167 -26 111.5s-41.666 33.5 -72.999 33.5c-16 0 -31.667 -3.16699 -47 -9.5s-31 -15.5 -47 -27.5c0.666992 -90 10.834 -155.833 30.501 -197.5s45.167 -62.5 76.5 -62.5zM438.998 615
c-43.333 -8 -80.499 -21.332 -111.499 -39.999s-57.167 -40 -78.5 -64s-38 -49.667 -50 -77s-20.333 -54.333 -25 -81c37.333 29.333 81 44 131 44c64 0 112.167 -17.333 144.5 -52s48.5 -82.334 48.5 -143.001c0 -36 -5.83301 -67.5 -17.5 -94.5
s-27.834 -49.5 -48.501 -67.5s-45 -31.667 -73 -41s-58.333 -14 -91 -14c-36.667 0 -69.667 6.5 -99 19.5s-54.333 31.5 -75 55.5s-36.5 53.333 -47.5 88s-16.5 73.667 -16.5 117c0 44.667 8.5 89.667 25.5 135s42.5 86.5 76.5 123.5s76.167 68 126.5 93
s108.5 39.5 174.5 43.5z" />
    <glyph glyph-name="seven" unicode="7" 
d="M484 638v-70l-231 -568h-124l-10 10l267 508h-323v120h421z" />
    <glyph glyph-name="eight" unicode="8" 
d="M262 35c18 0 33.502 2.83105 46.502 8.49805s24 13.5 33 23.5s15.667 21.5 20 34.5s6.5 26.5 6.5 40.5s-2.33301 26.5 -7 37.5s-12.834 21.833 -24.501 32.5s-27.334 21.834 -47.001 33.501s-44.5 24.5 -74.5 38.5c-22 -16.667 -38 -35.667 -48 -57
s-15 -47.666 -15 -78.999c0 -36.667 10.667 -64.667 32 -84s47.333 -29 78 -29zM270.002 602.998c-25.333 0 -46.999 -8.00098 -64.999 -24.001s-27 -38.667 -27 -68c0 -11.333 1.66699 -22.166 5 -32.499s9.66602 -20.833 18.999 -31.5s21.833 -21.5 37.5 -32.5
s36.167 -22.5 61.5 -34.5c20.667 19.333 35 38.833 43 58.5s12 40.167 12 61.5c0 32.667 -7.66699 58 -23 76s-36.333 27 -63 27zM353.003 352.997c44.667 -24.667 78.332 -51.168 100.999 -79.501s34 -61.833 34 -100.5c0 -58.667 -20.167 -104.667 -60.5 -138
s-95.5 -50 -165.5 -50c-32.667 0 -62.667 3.33301 -90 10s-50.666 16.667 -69.999 30s-34.5 29.833 -45.5 49.5s-16.5 42.167 -16.5 67.5c0 39.333 11.333 72.333 34 99s54 49.667 94 69c-34 22.667 -59.333 48.167 -76 76.5s-25 58.5 -25 90.5
c0 28.667 5.66699 53.834 17 75.501s26.5 40 45.5 55s40.833 26.333 65.5 34s50.667 11.5 78 11.5s52.333 -3.83301 75 -11.5s42.167 -18.334 58.5 -32.001s29 -29.667 38 -48s13.5 -37.833 13.5 -58.5c0 -26 -7.5 -51.167 -22.5 -75.5s-42.5 -49.166 -82.5 -74.499z" />
    <glyph glyph-name="nine" unicode="9" 
d="M271 313c11.333 0 23.999 1.66602 37.999 4.99902s28 9.33301 42 18c0.666992 8.66699 1 17.167 1 25.5v26.5c0 74 -8.5 128.333 -25.5 163s-40.167 52 -69.5 52c-24 0 -45.167 -11.667 -63.5 -35s-27.5 -60.333 -27.5 -111c0 -51.333 9.83301 -88.166 29.5 -110.499
s44.834 -33.5 75.501 -33.5zM97.999 31.999c40 11.333 74.334 24.9961 103.001 40.9961s52.834 34 72.501 54s35 42.5 46 67.5s19.167 52.167 24.5 81.5c-30 -18 -66 -27 -108 -27c-31.333 0 -59.666 4.33301 -84.999 13s-47 21.334 -65 38.001s-31.833 37 -41.5 61
s-14.5 51 -14.5 81c0 30.667 5.83301 58.834 17.5 84.501s27.667 47.834 48 66.501s44.166 33.334 71.499 44.001s56.333 16 87 16c38 0 71.833 -6.5 101.5 -19.5s54.667 -31.333 75 -55s35.666 -52.5 45.999 -86.5s15.5 -72 15.5 -114c0 -54 -10 -103.667 -30 -149
s-47.333 -84.833 -82 -118.5s-75.334 -61 -122.001 -82s-96.667 -34.833 -150 -41.5z" />
    <glyph glyph-name="colon" unicode=":" horiz-adv-x="300" 
d="M150 329c-12 0 -22.998 2.16699 -32.998 6.5s-18.833 10.333 -26.5 18s-13.667 16.667 -18 27s-6.5 21.166 -6.5 32.499c0 23.333 8.16699 43.333 24.5 60s36.166 25 59.499 25s43.166 -8.33301 59.499 -25s24.5 -36.667 24.5 -60
c0 -11.333 -2.16699 -22.166 -6.5 -32.499s-10.333 -19.333 -18 -27s-16.5 -13.667 -26.5 -18s-21 -6.5 -33 -6.5zM150.002 -15c-12 0 -22.998 2.16699 -32.998 6.5s-18.833 10.333 -26.5 18s-13.667 16.667 -18 27s-6.5 21.166 -6.5 32.499
c0 23.333 8.16699 43.333 24.5 60s36.166 25 59.499 25s43.166 -8.33301 59.499 -25s24.5 -36.667 24.5 -60c0 -11.333 -2.16699 -22.166 -6.5 -32.499s-10.333 -19.333 -18 -27s-16.5 -13.667 -26.5 -18s-21 -6.5 -33 -6.5z" />
    <glyph glyph-name="semicolon" unicode=";" horiz-adv-x="300" 
d="M150 329c-12 0 -22.998 2.16699 -32.998 6.5s-18.833 10.333 -26.5 18s-13.667 16.667 -18 27s-6.5 21.166 -6.5 32.499c0 23.333 8.16699 43.333 24.5 60s36.166 25 59.499 25s43.166 -8.33301 59.499 -25s24.5 -36.667 24.5 -60
c0 -11.333 -2.16699 -22.166 -6.5 -32.499s-10.333 -19.333 -18 -27s-16.5 -13.667 -26.5 -18s-21 -6.5 -33 -6.5zM121.002 -14c-19.333 12 -33 25.5029 -41 40.5029s-12 29.833 -12 44.5c0 22 7.83301 41.333 23.5 58s36.167 25 61.5 25c10 0 20.833 -2 32.5 -6
s23.167 -12 34.5 -24c3.33301 -14 6.33301 -27.333 9 -40s4 -26.667 4 -42c0 -32 -6 -61.833 -18 -89.5s-27.5 -52.334 -46.5 -74.001s-40.5 -39.834 -64.5 -54.501s-47.667 -25.334 -71 -32.001l-14 39c32 16.667 59.333 36.167 82 58.5s40 47.833 52 76.5z" />
    <glyph glyph-name="less" unicode="&#x3c;" horiz-adv-x="530" 
d="M139 325l323 -175l-44 -77l-383 219v66l383 219l44 -77z" />
    <glyph glyph-name="equal" unicode="=" horiz-adv-x="530" 
d="M30 184v80h470v-80h-470zM30 387v80h470v-80h-470z" />
    <glyph glyph-name="greater" unicode="&#x3e;" horiz-adv-x="530" 
d="M495 358v-66l-383 -219l-44 77l323 175l-323 175l44 77z" />
    <glyph glyph-name="question" unicode="?" horiz-adv-x="471" 
d="M159 154c23.333 0 43.168 -8.33301 59.501 -25s24.5 -36.667 24.5 -60c0 -11.333 -2.16699 -22.166 -6.5 -32.499s-10.333 -19.333 -18 -27s-16.5 -13.667 -26.5 -18s-21 -6.5 -33 -6.5s-23 2.16699 -33 6.5s-18.833 10.333 -26.5 18s-13.667 16.667 -18 27
s-6.5 21.166 -6.5 32.499c0 23.333 8.16699 43.333 24.5 60s36.166 25 59.499 25zM267.002 451c20.667 9.33301 34.834 18.167 42.501 26.5s11.5 18.833 11.5 31.5c0 7.33301 -0.833008 14 -2.5 20s-4.16699 12.667 -7.5 20l-77.5 -10c-27 -3.33301 -49.833 -5 -68.5 -5
c-31.333 0 -54.833 6.83301 -70.5 20.5s-23.5 30.5 -23.5 50.5c0 17.333 6 32.166 18 44.499s28.333 19.166 49 20.499c48 -6.66699 88.667 -17 122 -31s60.5 -30.5 81.5 -49.5s36.167 -40.167 45.5 -63.5s14 -47.666 14 -72.999c0 -34.667 -9 -61.667 -27 -81
s-44 -35 -78 -47l-65 -23c-10.667 -4 -19.167 -7.66699 -25.5 -11s-11.333 -6.66602 -15 -9.99902s-6.33398 -7 -8.00098 -11s-3.16699 -8.66699 -4.5 -14l-5 -21h-42l-8 39c-2.66699 12.667 -4.66699 23 -6 31s-2 16.333 -2 25c0 21.333 5.16699 38 15.5 50
s27.5 23.333 51.5 34z" />
    <glyph glyph-name="at" unicode="@" horiz-adv-x="929" 
d="M558 406c-11.333 7.33301 -24.335 11 -39.002 11c-17.333 0 -34.166 -4.33301 -50.499 -13s-32.166 -23 -47.499 -43c-16 -20.667 -28.5 -43.5 -37.5 -68.5s-13.5 -53.5 -13.5 -85.5c0 -31.333 6 -54.666 18 -69.999s28.667 -23 50 -23c11.333 0 22.333 2.5 33 7.5
s24 14.167 40 27.5c0 3.33301 0.166992 6.16602 0.5 8.49902s0.833008 4.83301 1.5 7.5zM628.998 182c-5.33301 -28 -4.83008 -48.0039 1.50293 -60.0039s20.166 -18 41.499 -18c18 0 35 4.16699 51 12.5s29.833 21.5 41.5 39.5s21 41 28 69s10.5 61.667 10.5 101
c0 50 -7 92.833 -21 128.5s-34 64.834 -60 87.501s-57.167 39.334 -93.5 50.001s-76.5 16 -120.5 16c-46 0 -91.833 -9.16699 -137.5 -27.5s-86.5 -45.166 -122.5 -80.499s-65.333 -78.666 -88 -129.999s-34 -110 -34 -176c0 -42 6.5 -82.167 19.5 -120.5
s32.5 -72 58.5 -101s58.667 -52.167 98 -69.5s85 -26 137 -26c22 0 41.833 0.833008 59.5 2.5s33.667 4.16699 48 7.5s27.833 7.33301 40.5 12s25.667 10 39 16l18 -46c-32 -18.667 -65.833 -32.334 -101.5 -41.001s-75.5 -13 -119.5 -13
c-62 0 -117.167 9.16699 -165.5 27.5s-89 44.166 -122 77.499s-58 73 -75 119s-25.5 96.667 -25.5 152c0 73.333 12.833 139.5 38.5 198.5s60.667 109.333 105 151s96.5 73.667 156.5 96s124.333 33.5 193 33.5c55.333 0 105.5 -8 150.5 -24s83.5 -38.5 115.5 -67.5
s56.667 -63.833 74 -104.5s26 -86 26 -136c0 -47.333 -6.83301 -89.666 -20.5 -126.999s-32.334 -69.166 -56.001 -95.499s-51.167 -46.5 -82.5 -60.5s-64.666 -21 -99.999 -21c-33.333 0 -59.5 7.16699 -78.5 21.5s-32.167 31.5 -39.5 51.5
c-22.667 -24.667 -45.334 -43 -68.001 -55s-47.667 -18 -75 -18c-33.333 0 -61.333 11.167 -84 33.5s-34 57.5 -34 105.5c0 44 8.33301 85.5 25 124.5s39.334 73.5 68.001 103.5c23.333 24 49.166 43.167 77.499 57.5s56.5 21.5 84.5 21.5c19.333 0 36.666 -3 51.999 -9
s29.333 -14.667 42 -26l57 28l19 -17z" />
    <glyph glyph-name="A" unicode="A" horiz-adv-x="673" 
d="M385 259l-80 223l-83 -223h163zM669 49v-49h-294v49l82 10l-52 145h-203l-53 -142l81 -12v-50h-225v50l89 13l222 592h60l227 -598z" />
    <glyph glyph-name="B" unicode="B" horiz-adv-x="636" 
d="M293 55c34.667 0 63.333 3 86 9s40.334 14.833 53.001 26.5s21.5 25.667 26.5 42s7.5 34.833 7.5 55.5c0 46 -12.333 79.167 -37 99.5s-67.334 30.5 -128.001 30.5h-40v-135c0 -43.333 0.666992 -86 2 -128h30zM262.999 600c-1.33301 -38 -2 -76 -2 -114v-115h37
c48 0 83 9.83301 105 29.5s33 48.5 33 86.5s-9.83301 66.333 -29.5 85s-51.167 28 -94.5 28h-49zM345.999 655c78.667 0 136.335 -15.001 173.002 -45.001s55 -69.667 55 -119c0 -16 -2 -31.5 -6 -46.5s-10.833 -28.833 -20.5 -41.5s-22.167 -23.667 -37.5 -33
s-34 -17 -56 -23c29.333 -5.33301 54 -13.166 74 -23.499s36.167 -22.5 48.5 -36.5s21.166 -29.667 26.499 -47s8 -35.333 8 -54c0 -22.667 -4.16699 -45 -12.5 -67s-24 -41.833 -47 -59.5s-54.833 -32 -95.5 -43s-93.334 -16.5 -158.001 -16.5h-266v50l81 9
c1.33301 41.333 2 82.833 2 124.5v126.5v35v125.5c0 41.667 -0.666992 83.5 -2 125.5l-81 9v50h314z" />
    <glyph glyph-name="C" unicode="C" horiz-adv-x="622" 
d="M587 184l-4.00098 -152.003c-28 -15.333 -59 -27 -93 -35s-70 -12 -108 -12c-51.333 0 -98.5 7.16699 -141.5 21.5s-80.167 35.833 -111.5 64.5s-55.666 64.334 -72.999 107.001s-26 92.334 -26 149.001s9.16699 106.5 27.5 149.5s43.5 78.833 75.5 107.5
s70.167 50.167 114.5 64.5s92.5 21.5 144.5 21.5c32 0 62.5 -3.5 91.5 -10.5s58.833 -19.167 89.5 -36.5l4 -152h-79l-20 126c-28 12 -56.333 18 -85 18c-29.333 0 -56.833 -6.16699 -82.5 -18.5s-48 -30.666 -67 -54.999s-33.833 -54.5 -44.5 -90.5s-16 -77.333 -16 -124
s5.33301 -87.834 16 -123.501s25.5 -65.667 44.5 -90s41.333 -42.666 67 -54.999s53.167 -18.5 82.5 -18.5c31.333 0 63 6 95 18l19 126h80z" />
    <glyph glyph-name="D" unicode="D" horiz-adv-x="692" 
d="M299 55c31.333 0 60.001 6.00098 86.001 18.001s48.167 29.5 66.5 52.5s32.5 51.5 42.5 85.5s15 73 15 117s-5 83 -15 117s-24.333 62.5 -43 85.5s-40.834 40.333 -66.501 52s-54.5 17.5 -86.5 17.5h-35c-1.33301 -42 -2 -84.167 -2 -126.5v-128.5v-25v-135.5
c0 -43.667 0.666992 -86.834 2 -129.501h36zM334.001 655.001c48.667 0 93.167 -7 133.5 -21s75 -34.833 104 -62.5s51.333 -61.5 67 -101.5s23.5 -86 23.5 -138c0 -54 -8.66699 -101.667 -26 -143s-41.5 -76 -72.5 -104s-67.833 -49.167 -110.5 -63.5s-89 -21.5 -139 -21.5
h-282v50l81 9c1.33301 41.333 2 83.5 2 126.5v134.5v25v125.5c0 41.667 -0.666992 83.5 -2 125.5l-81 9v50h302z" />
    <glyph glyph-name="E" unicode="E" horiz-adv-x="598" 
d="M573 174l-7 -174h-534v50l81 9c1.33301 41.333 2 82.833 2 124.5v126.5v35v125.5c0 41.667 -0.666992 83.5 -2 125.5l-81 9v50h514l7 -174h-75l-21 119h-194c-1.33301 -38 -2 -76.333 -2 -115v-118h128l13 89h54v-232h-54l-12 88h-129v-131.5
c0 -42.333 0.666992 -84.5 2 -126.5h214l21 120h75z" />
    <glyph glyph-name="F" unicode="F" horiz-adv-x="583" 
d="M263 600c-1.33301 -38 -2 -76.332 -2 -114.999v-118h133l13 89h54v-242h-54l-13 98h-133v-128.5c0 -41.667 0.666992 -82.834 2 -123.501l91 -10v-50h-322v50l81 9c1.33301 41.333 2 82.833 2 124.5v126.5v35v125.5c0 41.667 -0.666992 83.5 -2 125.5l-81 9v50h514
l7 -174h-75l-21 119h-194z" />
    <glyph glyph-name="G" unicode="G" horiz-adv-x="674" 
d="M650 261l-54 -6.99512c-0.666992 -28 -1.16699 -55.833 -1.5 -83.5s-0.5 -55.834 -0.5 -84.501v-43c-35.333 -19.333 -70.333 -33.833 -105 -43.5s-72 -14.5 -112 -14.5c-52.667 0 -100.334 8.66699 -143.001 26s-79.167 41.166 -109.5 71.499
s-53.666 66.333 -69.999 108s-24.5 87.167 -24.5 136.5s8.33301 95 25 137s40.5 78.167 71.5 108.5s68.5 54.166 112.5 71.499s93.333 26 148 26c32 0 64 -3.5 96 -10.5s65.667 -19.167 101 -36.5l4 -142h-80l-18 111c-31.333 15.333 -63.333 23 -96 23
c-64.667 0 -116 -25 -154 -75s-57 -121 -57 -213c0 -45.333 5.5 -85.833 16.5 -121.5s26 -65.834 45 -90.501s41.5 -43.334 67.5 -56.001s54.333 -19 85 -19c19.333 0 37 2.33301 53 7v39c0 28 -0.166992 55.667 -0.5 83s-0.833008 55 -1.5 83l-74 9v50h276v-50z" />
    <glyph glyph-name="H" unicode="H" horiz-adv-x="795" 
d="M682 596c-1.33301 -41.333 -2 -82.832 -2 -124.499v-126.5v-35v-125.5c0 -41.667 0.666992 -83.5 2 -125.5l81 -9v-50h-312v50l81 9c1.33301 40 2 80.833 2 122.5v129.5h-273v-128.5c0 -41.667 0.666992 -82.834 2 -123.501l81 -9v-50h-312v50l81 9
c1.33301 41.333 2 82.833 2 124.5v126.5v35v125.5c0 41.667 -0.666992 83.5 -2 125.5l-81 9v50h312v-50l-81 -9c-1.33301 -38 -2 -76 -2 -114v-116h273v115.5c0 38.333 -0.666992 76.5 -2 114.5l-81 9v50h312v-50z" />
    <glyph glyph-name="I" unicode="I" horiz-adv-x="376" 
d="M263 596c-1.33301 -41.333 -2 -82.833 -2 -124.5v-126.5v-35v-125.5c0 -41.667 0.666992 -83.5 2 -125.5l81 -9v-50h-312v50l81 9c1.33301 41.333 2 82.833 2 124.5v126.5v35v125.5c0 41.667 -0.666992 83.5 -2 125.5l-81 9v50h312v-50z" />
    <glyph glyph-name="J" unicode="J" horiz-adv-x="390" 
d="M358 605l-80.998 -9c-1.33301 -40 -2 -80.333 -2 -121v-124v-146c0 -54 -1.33301 -98.833 -4 -134.5s-8.33398 -67.5 -17.001 -95.5c-16.667 -52.667 -42.334 -91.667 -77.001 -117s-73.667 -38 -117 -38c-10.667 0 -22 1 -34 3s-23.5 5.16699 -34.5 9.5
s-21.167 10.5 -30.5 18.5s-16.333 18 -21 30c0 20.667 7 36.167 21 46.5s30.333 15.5 49 15.5c13.333 0 25.333 -2.83301 36 -8.5s22 -15.5 34 -29.5l25 -30c8.66699 15.333 15.167 32.666 19.5 51.999s6.5 45 6.5 77c0 18 -0.166992 42.667 -0.5 74
s-0.666016 70.833 -0.999023 118.5s-0.833008 104.334 -1.5 170.001s-1.33398 142.167 -2.00098 229.5l-90 9v50h322v-50z" />
    <glyph glyph-name="K" unicode="K" horiz-adv-x="701" 
d="M701 50v-50h-296v50l59 6l-135 268l-68 -83v-91.5c0 -30.333 0.666992 -60.5 2 -90.5l81 -9v-50h-312v50l81 9c1.33301 41.333 2 82.833 2 124.5v126.5v35v125.5c0 41.667 -0.666992 83.5 -2 125.5l-81 9v50h312v-50l-81 -9c-1.33301 -41.333 -2 -82.833 -2 -124.5
v-126.5v-26l222 276l-54 10v50h226v-50l-105 -13l-133 -161l205 -372z" />
    <glyph glyph-name="L" unicode="L" horiz-adv-x="580" 
d="M560 194l-10 -194h-518v50l81 9c1.33301 41.333 2 82.833 2 124.5v126.5v35v125.5c0 41.667 -0.666992 83.5 -2 125.5l-81 9v50h317v-50l-86 -9c-1.33301 -42 -2 -83.667 -2 -125v-126v-35v-127.5c0 -42.333 0.666992 -84.833 2 -127.5h190l28 139h79z" />
    <glyph glyph-name="M" unicode="M" horiz-adv-x="915" 
d="M802 596c-1.33301 -41.333 -2 -82.833 -2 -124.5v-126.5v-35v-125.5c0 -41.667 0.666992 -83.5 2 -125.5l81 -9v-50h-312v50l81 9c1.33301 41.333 2 82.833 2 124.5v126.5v176l-224 -486h-40l-226 485v-422l94 -13v-50h-243v50l94 13v533l-83 9v50h201l226 -470l220 470
h210v-50z" />
    <glyph glyph-name="N" unicode="N" horiz-adv-x="761" 
d="M735 605l-93 -13v-602h-50l-414 515v-442l114 -13v-50h-266v50l93 13v516l-15 18l-68 7v51h197l351 -443v380l-115 13v50h266v-50z" />
    <glyph glyph-name="O" unicode="O" horiz-adv-x="708" 
d="M185 327c0 -36 3 -71.167 9 -105.5s15.833 -65 29.5 -92s31.167 -48.667 52.5 -65s47.333 -24.5 78 -24.5s56.667 8.16699 78 24.5s38.666 38 51.999 65s23.166 57.667 29.499 92s9.5 69.5 9.5 105.5s-3.16699 71.333 -9.5 106s-16.166 65.5 -29.499 92.5
s-30.666 48.667 -51.999 65s-47.333 24.5 -78 24.5s-56.667 -8.16699 -78 -24.5s-38.833 -38 -52.5 -65s-23.5 -57.833 -29.5 -92.5s-9 -70 -9 -106zM354 670c39.333 0 78.166 -7.16699 116.499 -21.5s72.833 -35.666 103.5 -63.999s55.334 -64 74.001 -107
s28 -93.167 28 -150.5s-9.33301 -107.333 -28 -150s-43.167 -78.167 -73.5 -106.5s-64.833 -49.666 -103.5 -63.999s-77.667 -21.5 -117 -21.5s-78.333 7.16699 -117 21.5s-73.167 35.666 -103.5 63.999s-54.833 63.833 -73.5 106.5s-28 92.667 -28 150
s9.33301 107.5 28 150.5s43.334 78.667 74.001 107s65.167 49.666 103.5 63.999s77.166 21.5 116.499 21.5z" />
    <glyph glyph-name="P" unicode="P" horiz-adv-x="604" 
d="M263 600c-1.33301 -42 -2 -84.167 -2 -126.5v-128.5v-36h31c53.333 0 92.333 13.667 117 41s37 63 37 107c0 46 -12.333 81.333 -37 106s-63 37 -115 37h-31zM261 254v-95.999c0 -32.667 0.666992 -65.334 2 -98.001l91 -10v-50h-322v50l81 9
c1.33301 41.333 2 82.833 2 124.5v126.5v35v125.5c0 41.667 -0.666992 83.5 -2 125.5l-81 9v50h270c50 0 92.667 -4.66699 128 -14s64.5 -22.5 87.5 -39.5s39.833 -37.5 50.5 -61.5s16 -50.667 16 -80c0 -26 -4.5 -51.333 -13.5 -76s-25.167 -46.667 -48.5 -66
s-54.833 -34.833 -94.5 -46.5s-90.167 -17.5 -151.5 -17.5h-15z" />
    <glyph glyph-name="Q" unicode="Q" horiz-adv-x="708" 
d="M184 327c0 -36 3 -71.167 9 -105.5s15.833 -65 29.5 -92s31.167 -48.667 52.5 -65s47.333 -24.5 78 -24.5s56.667 8.16699 78 24.5s38.666 38 51.999 65s23.166 57.667 29.499 92s9.5 69.5 9.5 105.5s-3.16699 71.333 -9.5 106s-16.166 65.5 -29.499 92.5
s-30.666 48.667 -51.999 65s-47.333 24.5 -78 24.5s-56.667 -8.16699 -78 -24.5s-38.833 -38 -52.5 -65s-23.5 -57.833 -29.5 -92.5s-9 -70 -9 -106zM618 -175c-17.333 -11.333 -37.3311 -19.502 -59.998 -24.502s-45.334 -7.5 -68.001 -7.5
c-29.333 0 -56.833 4.66699 -82.5 14s-48.334 22.666 -68.001 39.999s-35.334 38.5 -47.001 63.5s-18.167 53.167 -19.5 84.5c-32 8 -62.667 20.833 -92 38.5s-55.166 40.334 -77.499 68.001s-40 60.334 -53 98.001s-19.5 80.167 -19.5 127.5
c0 57.333 9.33301 107.5 28 150.5s43.334 78.667 74.001 107s65.167 49.666 103.5 63.999s77.166 21.5 116.499 21.5s78.166 -7.16699 116.499 -21.5s72.833 -35.666 103.5 -63.999s55.334 -64 74.001 -107s28 -93.167 28 -150.5c0 -50 -7.33301 -94.5 -22 -133.5
s-34.167 -72.5 -58.5 -100.5s-52.333 -50.667 -84 -68s-64.834 -29 -99.501 -35c2 -47.333 14.333 -82 37 -104s50.334 -33 83.001 -33c10.667 0 22 0.833008 34 2.5s24.667 4.83398 38 9.50098z" />
    <glyph glyph-name="R" unicode="R" horiz-adv-x="671" 
d="M303 349c25.333 0 46.833 3.5 64.5 10.5s32 16.333 43 28s19 25.5 24 41.5s7.5 33 7.5 51c0 40 -11 70 -33 90s-57.333 30 -106 30h-42c-1.33301 -41.333 -2 -82.833 -2 -124.5v-126.5h44zM664 50l0.000976562 -50.0029c-20 -4 -37.667 -6.66699 -53 -8s-30 -2 -44 -2
c-19.333 0 -36.833 1.16699 -52.5 3.5s-29.5 6.5 -41.5 12.5s-22 14.5 -30 25.5s-13.667 25.167 -17 42.5l-26 133c-6.66699 32.667 -18.334 55.334 -35.001 68.001s-41.667 19 -75 19h-31v-117.5c0 -39 0.666992 -78.167 2 -117.5l83 -9v-50h-312v50l81 9
c1.33301 41.333 2 82.833 2 124.5v126.5v35v125.5c0 41.667 -0.666992 83.5 -2 125.5l-81 9v50h312c75.333 0 133.833 -14.667 175.5 -44s62.5 -69.666 62.5 -120.999c0 -16 -2.5 -32.5 -7.5 -49.5s-13.333 -33.333 -25 -49s-27 -29.667 -46 -42
s-42.5 -22.166 -70.5 -29.499c32 -9.33301 58.333 -24.833 79 -46.5s34.667 -50.5 42 -86.5l27 -128z" />
    <glyph glyph-name="S" unicode="S" horiz-adv-x="534" 
d="M321 389c36 -12.667 66 -26.501 90 -41.501s43.167 -31 57.5 -48s24.666 -34.667 30.999 -53s9.5 -37.166 9.5 -56.499c0 -29.333 -6.33301 -56.333 -19 -81s-30.5 -46.334 -53.5 -65.001s-50.667 -33.167 -83 -43.5s-68.5 -15.5 -108.5 -15.5
c-38 0 -75.667 4.5 -113 13.5s-69.666 21.833 -96.999 38.5l6 147h83l20 -120c15.333 -7.33301 31 -13.166 47 -17.499s33.667 -6.5 53 -6.5c42 0 74.667 9.66699 98 29s35 45 35 77c0 25.333 -8.16699 45.333 -24.5 60s-42.5 28.667 -78.5 42l-49 18
c-59.333 21.333 -105.5 49.5 -138.5 84.5s-49.5 77.5 -49.5 127.5c0 28 5.5 53.667 16.5 77s27 43.5 48 60.5s46.333 30.333 76 40s63.5 14.5 101.5 14.5c36.667 0 71.167 -4.5 103.5 -13.5s60.5 -21.833 84.5 -38.5l-7 -137h-82l-20 118
c-13.333 5.33301 -26.333 9.33301 -39 12s-25.667 4 -39 4c-33.333 0 -61.333 -8.66699 -84 -26s-34 -42 -34 -74c0 -28 9.33301 -50 28 -66s45 -30 79 -42z" />
    <glyph glyph-name="T" unicode="T" horiz-adv-x="644" 
d="M397 600c-1.33301 -42 -2 -84.167 -2 -126.5v-128.5v-35v-125c0 -41.333 0.666992 -83 2 -125l91 -10v-50h-332v50l91 10c1.33301 41.333 2 82.833 2 124.5v125.5v35v127.5c0 42.333 -0.666992 84.833 -2 127.5h-132l-20 -129h-75l5 184h594l5 -184h-75l-20 129h-132z
" />
    <glyph glyph-name="U" unicode="U" horiz-adv-x="750" 
d="M730 605l-89.0029 -9v-313c0 -55.333 -6.66699 -102 -20 -140s-31.666 -68.667 -54.999 -92s-51.166 -40.166 -83.499 -50.499s-67.5 -15.5 -105.5 -15.5c-38.667 0 -74.167 5.16699 -106.5 15.5s-60 26.166 -83 47.499s-40.833 48.833 -53.5 82.5s-19 74.167 -19 121.5
v100v122c0 40.667 -0.666992 81.334 -2 122.001l-81 9v50h312v-50l-80 -8c-1.33301 -40.667 -2 -81.334 -2 -122.001v-123v-69c0 -39.333 3.5 -72.666 10.5 -99.999s17.333 -49.333 31 -66s30.334 -28.667 50.001 -36s42.167 -11 67.5 -11s48 3.66699 68 11
s36.833 19.333 50.5 36s24 38.667 31 66s10.5 60.666 10.5 99.999v313l-87 9v50h236v-50z" />
    <glyph glyph-name="V" unicode="V" horiz-adv-x="650" 
d="M645 605l-74 -12l-217 -603h-50l-239 608l-60 7v50h296v-50l-82 -9l153 -403l144 398l-97 14v50h226v-50z" />
    <glyph glyph-name="W" unicode="W" horiz-adv-x="987" 
d="M982 605l-81 -13l-187 -602h-51l-177 499l-176 -499h-50l-193 608l-62 7v50h293v-50l-80 -9l113 -382l141 382l-79 9v50h283v-50l-77 -9l130 -387l119 383l-92 13v50h226v-50z" />
    <glyph glyph-name="X" unicode="X" horiz-adv-x="652" 
d="M626 50v-50h-296v50l67 7l-109 201l-127 -201l71 -7v-50h-211v50l75 8l166 249l-157 290l-74 8v50h298v-50l-66 -7l96 -177l113 176l-73 8v50h226v-50l-87 -8l-153 -225l171 -314z" />
    <glyph glyph-name="Y" unicode="Y" horiz-adv-x="606" 
d="M376 293v-68v-47.5v-40.5c0 -12.667 0.166992 -25.167 0.5 -37.5s0.5 -25.5 0.5 -39.5l92 -10v-50h-332v50l92 10c0.666992 26.667 1 52 1 76v89v57l-163 316l-65 7v50h307v-50l-79 -9l116 -258l126 256l-80 11v50h212v-50l-74 -13z" />
    <glyph glyph-name="Z" unicode="Z" horiz-adv-x="569" 
d="M549 184l-8 -184h-521v40l344 560h-229l-27 -129h-78l8 184h492v-40l-344 -560h258l26 129h79z" />
    <glyph glyph-name="bracketleft" unicode="[" horiz-adv-x="339" 
d="M225 655c-1.33301 -42 -2 -84.5 -2 -127.5v-129.5v-240v-128.5c0 -43 0.666992 -85.833 2 -128.5l94 -10v-50h-219c1.33301 52 2.16602 104.333 2.49902 157s0.5 106 0.5 160v240c0 52.667 -0.166992 105.5 -0.5 158.5s-1.16602 105.833 -2.49902 158.5h219v-50z" />
    <glyph glyph-name="backslash" unicode="\" horiz-adv-x="368" 
d="M364 -160h-93l-267 870h93z" />
    <glyph glyph-name="bracketright" unicode="]" horiz-adv-x="339" 
d="M236 158c0 -52.667 0.166992 -105.5 0.5 -158.5s1.16602 -105.833 2.49902 -158.5h-219v50l94 10c1.33301 42 2 84.5 2 127.5v129.5v240v128.5c0 43 -0.666992 85.833 -2 128.5l-94 10v50h219c-1.33301 -52 -2.16602 -104.333 -2.49902 -157s-0.5 -106 -0.5 -160v-240z
" />
    <glyph glyph-name="asciicircum" unicode="^" horiz-adv-x="530" 
d="M403 186l-138 227l-138 -227l-63 49l160 263h82l160 -263z" />
    <glyph glyph-name="underscore" unicode="_" horiz-adv-x="530" 
d="M40 1h450v-84h-450v84z" />
    <glyph glyph-name="grave" unicode="`" horiz-adv-x="400" 
d="M269 543l-95.002 77c-29.333 23.333 -49.166 41.833 -59.499 55.5s-15.5 26.834 -15.5 39.501c0 15.333 5 27.166 15 35.499s22 12.5 36 12.5c16.667 0 31.834 -6.83301 45.501 -20.5s30.167 -37.5 49.5 -71.5l58 -101z" />
    <glyph glyph-name="a" unicode="a" horiz-adv-x="534" 
d="M317 258c-12.667 -3.33301 -24.501 -6.83496 -35.501 -10.502s-20.5 -7.16699 -28.5 -10.5c-29.333 -11.333 -49.666 -25.666 -60.999 -42.999s-17 -36.666 -17 -57.999c0 -13.333 1.83301 -24 5.5 -32s8.16699 -14.667 13.5 -20c14 -14 32.667 -21 56 -21
c10.667 0 21 1.83301 31 5.5s22 10.5 36 20.5v169zM538.999 62.998c-13.333 -27.333 -28.498 -46.3271 -45.498 -56.9941s-38.167 -16 -63.5 -16c-27.333 0 -50 5.33301 -68 16s-30.667 24.667 -38 42c-22.667 -20.667 -44.5 -36.334 -65.5 -47.001s-47.167 -16 -78.5 -16
c-40 0 -72.5 10.167 -97.5 30.5s-37.5 50.166 -37.5 89.499c0 15.333 2.5 30.5 7.5 45.5s14.333 29.667 28 44s32.5 28.166 56.5 41.499s55 26.333 93 39c11.333 4 24.666 8.16699 39.999 12.5l47 13.5v30c0 42 -6.33301 72 -19 90s-35 27 -67 27
c-5.33301 0 -10.5 -0.166992 -15.5 -0.5s-10.167 -0.833008 -15.5 -1.5l-8 -58c-3.33301 -26 -11.333 -45.333 -24 -58s-27.667 -19 -45 -19c-15.333 0 -28.5 4.66699 -39.5 14s-18.167 21.666 -21.5 36.999c4.66699 39.333 25.667 71.833 63 97.5s88 38.5 152 38.5
c31.333 0 58.166 -3.5 80.499 -10.5s40.5 -18.333 54.5 -34s24.333 -36.334 31 -62.001s10 -57.167 10 -94.5v-206c0 -10.667 2 -19.334 6 -26.001s10.333 -10 19 -10c6.66699 0 12 2 16 6s8.66699 9 14 15l5 6z" />
    <glyph glyph-name="b" unicode="b" horiz-adv-x="599" 
d="M231 93c13.333 -9.33301 27 -16.833 41 -22.5s28 -8.5 42 -8.5c30.667 0 56.667 14.5 78 43.5s32 74.167 32 135.5s-9.16699 106.5 -27.5 135.5s-43.5 43.5 -75.5 43.5c-15.333 0 -30.5 -3 -45.5 -9s-29.833 -14 -44.5 -24v-294zM228 437c20 19.333 41.333 34.333 64 45
s49 16 79 16c28 0 54.167 -5.33301 78.5 -16s45.333 -26.667 63 -48s31.5 -47.833 41.5 -79.5s15 -68.5 15 -110.5c0 -40 -5.5 -76 -16.5 -108s-26.167 -59.167 -45.5 -81.5s-41.833 -39.5 -67.5 -51.5s-53.5 -18 -83.5 -18c-29.333 0 -54.833 4.83301 -76.5 14.5
s-41.5 24.167 -59.5 43.5h-3l-6 -58l-178 15v44l61 12c0.666992 25.333 1 52 1 80v74v416l-75 9v40l198 45l14 -8l-4 -142v-133z" />
    <glyph glyph-name="c" unicode="c" horiz-adv-x="510" 
d="M479 119c-12 -43.333 -36.334 -76.5049 -73.001 -99.5049s-80 -34.5 -130 -34.5c-36.667 0 -69.834 5.66699 -99.501 17s-55 27.833 -76 49.5s-37.167 48.334 -48.5 80.001s-17 67.834 -17 108.501c0 40 6.83301 76 20.5 108s32.167 59.167 55.5 81.5
s50.5 39.333 81.5 51s64.167 17.5 99.5 17.5c26.667 0 51.5 -3.66699 74.5 -11s42.833 -17.166 59.5 -29.499s29.834 -27.166 39.501 -44.499s14.5 -36 14.5 -56c-7.33301 -32 -27 -48 -59 -48c-18.667 0 -34.667 6.16699 -48 18.5s-20.666 33.5 -21.999 63.5l-3 53
c-5.33301 1.33301 -10.5 2.33301 -15.5 3s-10.167 1 -15.5 1c-18.667 0 -36.334 -4.16699 -53.001 -12.5s-31.167 -20.666 -43.5 -36.999s-22.166 -36.5 -29.499 -60.5s-11 -51.667 -11 -83c0 -65.333 13.667 -113.666 41 -144.999s62 -47 104 -47
c26.667 0 49.5 6.16699 68.5 18.5s36.167 31.166 51.5 56.499z" />
    <glyph glyph-name="d" unicode="d" horiz-adv-x="592" 
d="M375 388c-14 10 -27.835 18 -41.502 24s-27.5 9 -41.5 9c-14.667 0 -28.667 -3.66699 -42 -11s-25.166 -18.333 -35.499 -33s-18.666 -33.167 -24.999 -55.5s-9.5 -48.833 -9.5 -79.5c0 -60.667 10.167 -105.667 30.5 -135s45.5 -44 75.5 -44
c14.667 0 29.5 3.16699 44.5 9.5s29.833 14.5 44.5 24.5v291zM568.998 44l0.000976562 -44.001l-182 -10l-8 59c-20 -20.667 -41.667 -36.5 -65 -47.5s-50.333 -16.5 -81 -16.5c-28 0 -54.167 5.33301 -78.5 16s-45.333 26.667 -63 48s-31.5 47.833 -41.5 79.5
s-15 68.5 -15 110.5c0 40 5.5 76 16.5 108s26.167 59.167 45.5 81.5s41.833 39.5 67.5 51.5s53.5 18 83.5 18c28 0 52.667 -4.66699 74 -14s40.666 -22.666 57.999 -39.999v181l-80 10v40l201 45l14 -8l-4 -142v-514z" />
    <glyph glyph-name="e" unicode="e" horiz-adv-x="527" 
d="M301 285c24 0 40.5 5 49.5 15s13.5 25.667 13.5 47c0 32 -6.66699 56.833 -20 74.5s-30.666 26.5 -51.999 26.5c-11.333 0 -23 -2.66699 -35 -8s-23.167 -14.333 -33.5 -27s-19.333 -29.5 -27 -50.5s-12.834 -46.833 -15.501 -77.5h120zM180 235
c2 -59.333 16.501 -102.835 43.501 -130.502s60.833 -41.5 101.5 -41.5c29.333 0 53.5 6.5 72.5 19.5s36.167 31.5 51.5 55.5l34 -19c-13.333 -44 -38.333 -77.333 -75 -100s-80.334 -34 -131.001 -34c-36 0 -69 5.66699 -99 17s-55.5 27.833 -76.5 49.5
s-37.333 48.334 -49 80.001s-17.5 67.834 -17.5 108.501c0 38 6.33301 72.667 19 104s30.167 58.5 52.5 81.5s48.833 40.833 79.5 53.5s63.667 19 99 19c32 0 60.833 -5.16699 86.5 -15.5s47.5 -24.833 65.5 -43.5s31.833 -41 41.5 -67s14.5 -54.333 14.5 -85
c0 -18.667 -2 -36 -6 -52h-307z" />
    <glyph glyph-name="f" unicode="f" horiz-adv-x="353" 
d="M97 480c5.33301 50.667 14.8311 90.833 28.498 120.5s30.5 54.5 50.5 74.5c24 23.333 49.5 40 76.5 50s54.5 15 82.5 15c28.667 0 52.5 -5 71.5 -15s31.167 -23.667 36.5 -41c0 -18.667 -5.83301 -34.334 -17.5 -47.001s-26.167 -19 -43.5 -19
c-29.333 0 -57.666 21.333 -84.999 64l-8 13c-4.66699 -3.33301 -8.66699 -6.66602 -12 -9.99902s-6.66602 -7 -9.99902 -11c-15.333 -19.333 -26 -45 -32 -77s-8.33301 -71 -7 -117h113v-64h-110v-206c0 -25.333 0.166992 -50.333 0.5 -75s0.833008 -49.667 1.5 -75l76 -16
v-44h-276v44l60 12c0.666992 25.333 1.16699 51 1.5 77s0.5 51.667 0.5 77v206h-66v55z" />
    <glyph glyph-name="g" unicode="g" horiz-adv-x="544" 
d="M254 216c25.333 0 44.666 10.5 57.999 31.5s20 50.167 20 87.5s-6.66699 66.333 -20 87s-32.666 31 -57.999 31s-44.5 -10.333 -57.5 -31s-19.5 -49.667 -19.5 -87s6.5 -66.5 19.5 -87.5s32.167 -31.5 57.5 -31.5zM217 -15c-22.667 0 -42.334 1.99902 -59.001 5.99902
c-9.33301 -19.333 -14 -38.666 -14 -57.999c0 -31.333 9.66699 -53 29 -65s45 -18 77 -18c51.333 0 90.333 7.83301 117 23.5s40 35.167 40 58.5c0 13.333 -5.66699 25.5 -17 36.5s-32.666 16.5 -63.999 16.5h-109zM525 414.999l-94.999 -0.00292969
c14.667 -24 22 -50.667 22 -80c0 -24 -4.66699 -46 -14 -66s-22.666 -37.333 -39.999 -52s-38.166 -26 -62.499 -34s-51.5 -12 -81.5 -12c-26.667 0 -52 3.66699 -76 11c-4 -7.33301 -7.16699 -13.666 -9.5 -18.999s-3.5 -11.666 -3.5 -18.999c0 -25.333 18.333 -38 55 -38
h108c69.333 0 118.666 -11.833 147.999 -35.5s44 -55.5 44 -95.5c0 -24 -5.83301 -46.667 -17.5 -68s-29.167 -39.833 -52.5 -55.5s-53.166 -28.167 -89.499 -37.5s-78.833 -14 -127.5 -14c-72.667 0 -124.834 8.33301 -156.501 25s-47.5 41 -47.5 73
c0 20.667 6.66699 39.334 20 56.001s37 33.334 71 50.001c-19.333 9.33301 -33.333 21.5 -42 36.5s-13 31.167 -13 48.5c0 22.667 6.5 42.667 19.5 60s30.833 33.666 53.5 48.999c-25.333 14.667 -45.333 33.667 -60 57s-22 50 -22 80c0 24 4.66699 46 14 66
s22.666 37.167 39.999 51.5s38.166 25.5 62.499 33.5s51.5 12 81.5 12c54.667 0 99.667 -13 135 -39l121 39l15 -10v-73z" />
    <glyph glyph-name="h" unicode="h" horiz-adv-x="619" 
d="M597 44l-0.000976562 -43.999h-256v44l61 12c0.666992 24.667 1 51 1 79v75v96c0 38 -4 65.833 -12 83.5s-23.667 26.5 -47 26.5c-19.333 0 -38.166 -5.16699 -56.499 -15.5s-37.166 -24.833 -56.499 -43.5v-147v-74.5c0 -28.333 0.333008 -54.833 1 -79.5l57 -12v-44
h-256v44l61 12c0.666992 25.333 1 52 1 80v74v415l-75 10v40l198 45l14 -8l-4 -142v-161c14 16 27.167 29.5 39.5 40.5s24.833 20.167 37.5 27.5s26 12.666 40 15.999s29.667 5 47 5c47.333 0 83.666 -14.167 108.999 -42.5s38 -72.833 38 -133.5v-112v-75.5
c0 -28.333 0.333008 -54.5 1 -78.5z" />
    <glyph glyph-name="i" unicode="i" horiz-adv-x="309" 
d="M166 581c-22.667 0 -42.167 7.5 -58.5 22.5s-24.5 34.167 -24.5 57.5s8.16699 42.333 24.5 57s35.833 22 58.5 22c23.333 0 43 -7.33301 59 -22s24 -33.667 24 -57s-8 -42.5 -24 -57.5s-35.667 -22.5 -59 -22.5zM294 44v-43.999h-256v44l61 12c0.666992 25.333 1 52 1 80
v74v50c0 27.333 -0.333008 50.166 -1 68.499l-2 57.5l-67 9v38l194 65l15 -10l-3 -143v-135v-74.5c0 -28.333 0.333008 -54.833 1 -79.5z" />
    <glyph glyph-name="j" unicode="j" horiz-adv-x="309" 
d="M222 498l14.0059 -10l-3 -143v-284c0 -32 -1.66699 -59.833 -5 -83.5s-8.33301 -44.5 -15 -62.5s-14.5 -34 -23.5 -48s-19.5 -27 -31.5 -39c-22.667 -23.333 -45.334 -38.833 -68.001 -46.5s-45.334 -11.5 -68.001 -11.5c-18.667 0 -34.834 1.83301 -48.501 5.5
s-25.334 8.66699 -35.001 15s-17.5 13.5 -23.5 21.5s-10.333 16 -13 24c3.33301 20.667 10.5 37 21.5 49s25.833 18 44.5 18c17.333 0 33.666 -5.33301 48.999 -16s30.666 -25 45.999 -43l12 -14l3 5c12.667 20.667 19.5 51.834 20.5 93.501s1.5 94.5 1.5 158.5v173
c0 27.333 -0.333008 50.166 -1 68.499l-2 57.5l-67 9v38zM166.006 740c23.333 0 43 -7.33301 59 -22s24 -33.667 24 -57s-8 -42.5 -24 -57.5s-35.667 -22.5 -59 -22.5c-22.667 0 -42.167 7.5 -58.5 22.5s-24.5 34.167 -24.5 57.5s8.16699 42.333 24.5 57s35.833 22 58.5 22z
" />
    <glyph glyph-name="k" unicode="k" horiz-adv-x="590" 
d="M595 44v-44.001h-188l-132 234l-48 -46c0 -20 0.166992 -41.667 0.5 -65s0.5 -45.666 0.5 -66.999l61 -12v-44h-256v44l61 12c0.666992 25.333 1 52 1 80v74v415l-75 10v40l197 45l14 -8l-4 -142v-321l180 176l-74 11v44h230v-44l-91 -12l-103 -99l153 -264z" />
    <glyph glyph-name="l" unicode="l" horiz-adv-x="309" 
d="M287 44v-44h-254v44l60 12c0.666992 26 1.16699 51.833 1.5 77.5s0.5 51.167 0.5 76.5v415l-75 10v40l199 45l14 -8l-4 -142v-360c0 -25.333 0.166992 -51 0.5 -77s0.833008 -51.667 1.5 -77z" />
    <glyph glyph-name="m" unicode="m" horiz-adv-x="917" 
d="M895 44v-44.0029h-252v44l61 13c0.666992 24 1 50 1 78v75v96c0 73.333 -20.333 110 -61 110c-17.333 0 -35.666 -5.66699 -54.999 -17s-37 -24.333 -53 -39c0.666992 -6 1.16699 -12.167 1.5 -18.5s0.5 -12.833 0.5 -19.5v-112v-75c0 -28 0.333008 -54.333 1 -79l57 -12
v-44h-252v44l61 13c0.666992 24 1 50 1 78v75v96c0 73.333 -20.667 110 -62 110c-17.333 0 -35.5 -5.66699 -54.5 -17s-36.833 -24.666 -53.5 -39.999v-149v-74.5c0 -28.333 0.333008 -55.166 1 -80.499l55 -11v-44h-252v44l61 13c0.666992 24.667 1 51 1 79v74v58v36
c0 10 -0.166992 19.5 -0.5 28.5l-1 26c-0.333008 8.33301 -0.833008 17.5 -1.5 27.5l-69 9v38l181 65l15 -10l7 -79c25.333 31.333 49.666 54 72.999 68s51.666 21 84.999 21c72.667 0 118.334 -30.667 137.001 -92c12.667 16 25.167 29.833 37.5 41.5s25 21.334 38 29.001
s27 13.167 42 16.5s31.833 5 50.5 5c48 0 83.5 -14.167 106.5 -42.5s34.5 -72.833 34.5 -133.5v-112v-75c0 -28 0.333008 -54.333 1 -79z" />
    <glyph glyph-name="n" unicode="n" horiz-adv-x="624" 
d="M602 44l-0.00292969 -43.999h-256v44l61 12c0.666992 24.667 1 51 1 79v75v96c0 38 -4 65.833 -12 83.5s-23.667 26.5 -47 26.5c-19.333 0 -38.166 -5.16699 -56.499 -15.5s-37.166 -24.833 -56.499 -43.5v-147v-74.5c0 -28.333 0.333008 -54.833 1 -79.5l57 -12v-44
h-256v44l61 12c0.666992 25.333 1 52 1 80v74v57v36.5c0 10.333 -0.166992 20 -0.5 29l-1 26c-0.333008 8.33301 -0.833008 17.5 -1.5 27.5l-67 9v38l181 65l15 -10l7 -79c14 16 27.167 29.5 39.5 40.5s24.833 20.167 37.5 27.5s25.834 12.666 39.501 15.999
s29.167 5 46.5 5c48 0 84.667 -14.167 110 -42.5s38 -72.833 38 -133.5v-112v-75.5c0 -28.333 0.333008 -54.5 1 -78.5z" />
    <glyph glyph-name="o" unicode="o" horiz-adv-x="566" 
d="M283 448c-70 0 -105 -69 -105 -207c0 -70.667 8.83301 -122.667 26.5 -156s43.834 -50 78.501 -50c35.333 0 61.666 16.667 78.999 50s26 85.333 26 156c0 138 -35 207 -105 207zM283 498c33.333 0 65.1689 -6 95.502 -18s57.166 -29.167 80.499 -51.5s42 -49.333 56 -81
s21 -67.5 21 -107.5s-6.33301 -75.667 -19 -107s-30.334 -58 -53.001 -80s-49.5 -38.833 -80.5 -50.5s-64.5 -17.5 -100.5 -17.5s-69.5 5.83301 -100.5 17.5s-57.667 28.5 -80 50.5s-40 48.667 -53 80s-19.5 67 -19.5 107s6.83301 75.833 20.5 107.5s32.167 58.667 55.5 81
s50.333 39.5 81 51.5s62.667 18 96 18z" />
    <glyph glyph-name="p" unicode="p" horiz-adv-x="609" 
d="M236 93c13.333 -9.33301 27 -16.833 41 -22.5s28 -8.5 42 -8.5c30.667 0 56.667 14.5 78 43.5s32 74.167 32 135.5s-9.16699 106.5 -27.5 135.5s-43.5 43.5 -75.5 43.5c-15.333 0 -30.5 -3 -45.5 -9s-29.833 -14 -44.5 -24v-294zM228 433
c20.667 20.667 42.6689 36.667 66.002 48s50.666 17 81.999 17c28 0 54.167 -5.33301 78.5 -16s45.333 -26.667 63 -48s31.5 -47.833 41.5 -79.5s15 -68.5 15 -110.5c0 -40 -5.5 -76 -16.5 -108s-26.167 -59.167 -45.5 -81.5s-41.833 -39.5 -67.5 -51.5s-53.5 -18 -83.5 -18
c-26.667 0 -50.334 4.16699 -71.001 12.5s-39.667 20.833 -57 37.5v-35v-78c0 -29.333 0.333008 -57 1 -83l74 -15v-44h-270v44l61 12c0.666992 26 1 54.167 1 84.5v79.5v267v36.5c0 10.333 -0.166992 20 -0.5 29l-1 26c-0.333008 8.33301 -0.833008 17.5 -1.5 27.5l-67 9
v38l181 65l12 -10z" />
    <glyph glyph-name="q" unicode="q" horiz-adv-x="585" 
d="M375 388c-14 10 -27.835 18 -41.502 24s-27.5 9 -41.5 9c-14.667 0 -28.667 -3.66699 -42 -11s-25.166 -18.333 -35.499 -33s-18.666 -33.167 -24.999 -55.5s-9.5 -48.833 -9.5 -79.5c0 -60.667 10.167 -105.667 30.5 -135s45.5 -44 75.5 -44
c14.667 0 29.5 3.16699 44.5 9.5s29.833 14.5 44.5 24.5v291zM572.998 -176v-44h-270v44l73 15c0.666992 25.333 1.16699 50.5 1.5 75.5s0.5 50.167 0.5 75.5v58c-20 -20 -41.667 -35.5 -65 -46.5s-50 -16.5 -80 -16.5c-28 0 -54.167 5.33301 -78.5 16
s-45.333 26.667 -63 48s-31.5 47.833 -41.5 79.5s-15 68.5 -15 110.5c0 40 5.5 76 16.5 108s26.167 59.167 45.5 81.5s41.833 39.5 67.5 51.5s53.5 18 83.5 18c29.333 0 55 -4.83301 77 -14.5s41.667 -24.167 59 -43.5l105 58l25 -10l-3 -135v-363
c0 -25.333 0.166992 -50.833 0.5 -76.5s0.833008 -51.5 1.5 -77.5z" />
    <glyph glyph-name="r" unicode="r" horiz-adv-x="457" 
d="M236 390c18.667 34 39.999 60.499 63.999 79.499s47.667 28.5 71 28.5c14 0 28.5 -4.33301 43.5 -13s25.167 -25 30.5 -49c0 -22 -6.33301 -39.833 -19 -53.5s-29.667 -20.5 -51 -20.5c-26 0 -51.667 13.667 -77 41l-2 2c-12 -11.333 -23.167 -24.166 -33.5 -38.499
s-19.166 -30.833 -26.499 -49.5v-107v-73c0 -27.333 0.333008 -53.333 1 -78l76 -15v-44h-275v44l61 12c0.666992 24.667 1 51.167 1 79.5v74.5v58v36c0 10 -0.166992 19.5 -0.5 28.5l-1 26c-0.333008 8.33301 -0.833008 17.5 -1.5 27.5l-67 9v38l181 65l15 -10z" />
    <glyph glyph-name="s" unicode="s" horiz-adv-x="464" 
d="M298 296c26 -9.33301 47.6631 -19.498 64.9961 -30.498s31 -22.833 41 -35.5s17 -26.167 21 -40.5s6 -29.5 6 -45.5c0 -24 -5 -45.667 -15 -65s-24.333 -36 -43 -50s-41 -24.833 -67 -32.5s-55.333 -11.5 -88 -11.5c-34.667 0 -65.167 4 -91.5 12s-53.5 20 -81.5 36v115
h77l13 -87c15.333 -8.66699 29.5 -14.834 42.5 -18.501s26.5 -5.5 40.5 -5.5c32 0 55.5 5.33301 70.5 16s22.5 27 22.5 49c0 9.33301 -1.5 17.5 -4.5 24.5s-8.16699 13.5 -15.5 19.5s-17.166 12 -29.499 18s-28.166 12.667 -47.499 20l-46 18
c-40 15.333 -70.167 35.166 -90.5 59.499s-30.5 54.166 -30.5 89.499c0 44 16.833 79.5 50.5 106.5s84.834 40.5 153.501 40.5c30 0 56.667 -3.33301 80 -10s47.333 -16 72 -28l-6 -110h-76l-15 83c-8.66699 3.33301 -17.667 6.33301 -27 9s-20.666 4 -33.999 4
c-24 0 -43.333 -5.5 -58 -16.5s-22 -26.167 -22 -45.5c0 -7.33301 1.33301 -14.166 4 -20.499s7.66699 -12.5 15 -18.5s17.5 -12 30.5 -18s29.5 -12.333 49.5 -19z" />
    <glyph glyph-name="t" unicode="t" horiz-adv-x="356" 
d="M357 61c-12.667 -19.333 -30.999 -36 -54.999 -50s-54 -21 -90 -21c-40.667 0 -72.834 10 -96.501 30s-35.5 51 -35.5 93c0 20.667 0.166992 38.5 0.5 53.5s0.5 32.167 0.5 51.5v198h-67v55l79 10l28 139h96v-140h114v-64h-114v-275c0 -24.667 4.83301 -42.5 14.5 -53.5
s22.167 -16.5 37.5 -16.5c6.66699 0 15.167 1.5 25.5 4.5s21.5 9.5 33.5 19.5z" />
    <glyph glyph-name="u" unicode="u" horiz-adv-x="602" 
d="M579 44l0.000976562 -43.999l-184 -10l-7 83c-25.333 -28.667 -51.666 -50.5 -78.999 -65.5s-57 -22.5 -89 -22.5c-21.333 0 -40.5 3.16699 -57.5 9.5s-31.667 16.666 -44 30.999s-21.833 32.833 -28.5 55.5s-9.66699 50.667 -9 84l4 255l-55 10v40l180 18l12 -8l-5 -142
v-154c0 -44 5.66699 -74.5 17 -91.5s26 -25.5 44 -25.5c17.333 0 35.166 5.66699 53.499 17s36.166 25.333 53.499 42l4 294l-55 10v38l178 20l12 -8l-3 -142v-282z" />
    <glyph glyph-name="v" unicode="v" horiz-adv-x="535" 
d="M525 436l-63 -11l-178 -435h-57l-178 435l-54 11v44h273v-44l-71 -14l100 -276l106 279l-62 11v44h184v-44z" />
    <glyph glyph-name="w" unicode="w" horiz-adv-x="813" 
d="M803 436l-68 -12l-171 -434h-56l-121 330l-126 -330h-56l-158 438l-52 8v44h250v-44l-59 -8l89 -260l100 260l-60 8v44h228v-44l-58 -9l97 -256l94 254l-67 11v44h194v-44z" />
    <glyph glyph-name="x" unicode="x" horiz-adv-x="538" 
d="M528 44v-44h-262v44l49 8l-83 130l-88 -128l58 -10v-44h-192v44l78 13l120 163l-139 208l-58 8v44h253v-44l-47 -8l77 -119l82 119l-43 8v44h162v-44l-66 -12l-112 -150l148 -218z" />
    <glyph glyph-name="y" unicode="y" horiz-adv-x="527" 
d="M519 436l-64.0039 -11.001l-161 -438c-25.333 -69.333 -51.666 -121.166 -78.999 -155.499s-62.666 -51.5 -105.999 -51.5c-13.333 0 -26.166 1.5 -38.499 4.5s-23.166 7.5 -32.499 13.5s-16.833 13.333 -22.5 22s-8.5 18.667 -8.5 30
c5.33301 17.333 13.666 29.5 24.999 36.5s25.333 10.5 42 10.5c11.333 0 22.833 -2 34.5 -6s24.167 -12 37.5 -24l17 -15c14 12.667 26.833 27.667 38.5 45s22.834 38.333 33.501 63l-188 464l-57 12v44h273v-44l-70 -14l105 -287l102 289l-64 12v44h183v-44z" />
    <glyph glyph-name="z" unicode="z" horiz-adv-x="477" 
d="M452 166l-10 -166h-417v40l266 395h-162l-27 -111l-71 4l8 152h406v-40l-259 -395h165l30 121h71z" />
    <glyph glyph-name="braceleft" unicode="{" horiz-adv-x="339" 
d="M282 658c-24 -2.66699 -41.333 -9.50195 -52 -20.502s-16 -26.833 -16 -47.5c0 -38.667 2.66699 -72.167 8 -100.5s8 -55.166 8 -80.499c0 -32 -7 -59.333 -21 -82s-35.667 -39 -65 -49c29.333 -10 51 -26.333 65 -49s21 -50 21 -82
c0 -25.333 -2.66699 -52.166 -8 -80.499s-8 -61.833 -8 -100.5c0 -20.667 5.33301 -36.5 16 -47.5s28 -17.833 52 -20.5l27 -3v-54h-37c-52 0 -93.833 10.667 -125.5 32s-47.5 54 -47.5 98c0 18.667 2.66699 36.5 8 53.5s11.166 33.5 17.499 49.5s12.166 31.833 17.499 47.5
s8 31.5 8 47.5c0 23.333 -7.83301 41.833 -23.5 55.5s-44.5 23.167 -86.5 28.5v50c42 5.33301 70.833 14.833 86.5 28.5s23.5 32.167 23.5 55.5c0 16 -2.66699 31.833 -8 47.5s-11.166 31.5 -17.499 47.5s-12.166 32.5 -17.499 49.5s-8 34.833 -8 53.5
c0 44 15.833 76.667 47.5 98s73.5 32 125.5 32h37v-54z" />
    <glyph glyph-name="bar" unicode="|" horiz-adv-x="280" 
d="M97 750h86v-1000h-86v1000z" />
    <glyph glyph-name="braceright" unicode="}" horiz-adv-x="339" 
d="M299 253c-42 -5.33301 -70.833 -14.8311 -86.5 -28.498s-23.5 -32.167 -23.5 -55.5c0 -16 2.66699 -31.833 8 -47.5s11.166 -31.5 17.499 -47.5s12.166 -32.5 17.499 -49.5s8 -34.833 8 -53.5c0 -44 -15.833 -76.667 -47.5 -98s-73.5 -32 -125.5 -32h-37v54l27 3
c24 2.66699 41.333 9.5 52 20.5s16 26.833 16 47.5c0 38.667 -2.66699 72.167 -8 100.5s-8 55.166 -8 80.499c0 32 7 59.333 21 82s35.667 39 65 49c-29.333 10 -51 26.333 -65 49s-21 50 -21 82c0 25.333 2.66699 52.166 8 80.499s8 61.833 8 100.5
c0 20.667 -5.33301 36.5 -16 47.5s-28 17.833 -52 20.5l-27 3v54h37c52 0 93.833 -10.667 125.5 -32s47.5 -54 47.5 -98c0 -18.667 -2.66699 -36.5 -8 -53.5s-11.166 -33.5 -17.499 -49.5s-12.166 -31.833 -17.499 -47.5s-8 -31.5 -8 -47.5
c0 -23.333 7.83301 -41.833 23.5 -55.5s44.5 -23.167 86.5 -28.5v-50z" />
    <glyph glyph-name="asciitilde" unicode="~" horiz-adv-x="530" 
d="M285 380c20.667 -17.333 36.167 -28.999 46.5 -34.999s20.833 -9 31.5 -9c6.66699 0 13 1.16699 19 3.5s11.667 6.83301 17 13.5s10.166 16 14.499 28s7.83301 28 10.5 48l68 -8c-2 -32 -6.5 -58.667 -13.5 -80s-16 -38.166 -27 -50.499s-23.5 -21.166 -37.5 -26.499
s-29 -8 -45 -8c-22 0 -42.667 4.66699 -62 14s-40 22.666 -62 39.999l-27 21.5c-7.33301 5.66699 -14 10.167 -20 13.5s-11.5 5.66602 -16.5 6.99902s-10.167 2 -15.5 2c-6 0 -12 -1.16699 -18 -3.5s-11.667 -6.83301 -17 -13.5s-10.166 -16 -14.499 -28
s-7.83301 -28 -10.5 -48l-68 8c2 32 6.5 58.667 13.5 80s16 38.166 27 50.499s23.5 21.166 37.5 26.499s29 8 45 8c22 0 42.667 -4.66699 62 -14s40 -22.666 62 -39.999z" />
    <glyph glyph-name="uni00A0" unicode="&#xa0;" horiz-adv-x="220" 
 />
    <glyph glyph-name="exclamdown" unicode="&#xa1;" horiz-adv-x="328" 
d="M164 499c12 0 22.998 -2.16699 32.998 -6.5s18.833 -10.333 26.5 -18s13.667 -16.667 18 -27s6.5 -21.166 6.5 -32.499c0 -23.333 -8.16699 -43.333 -24.5 -60s-36.166 -25 -59.499 -25s-43.166 8.33301 -59.499 25s-24.5 36.667 -24.5 60
c0 11.333 2.16699 22.166 6.5 32.499s10.333 19.333 18 27s16.5 13.667 26.5 18s21 6.5 33 6.5zM163.998 -186c-22.667 0 -42.167 6.83301 -58.5 20.5s-24.5 34.5 -24.5 62.5c0 17.333 3.16699 44.833 9.5 82.5s15.833 88.5 28.5 152.5l21 107h48l21 -107
c12.667 -64 22.167 -114.833 28.5 -152.5s9.5 -65.167 9.5 -82.5c0 -28 -8.16699 -48.833 -24.5 -62.5s-35.833 -20.5 -58.5 -20.5z" />
    <glyph glyph-name="cent" unicode="&#xa2;" 
d="M271 504c-22.667 -12.667 -42 -34 -58 -64s-24 -68.333 -24 -115c0 -49.333 7.83301 -88.833 23.5 -118.5s35.167 -50.5 58.5 -62.5v360zM501 189c-11.333 -38 -32.3359 -68.167 -63.0029 -90.5s-68 -36.166 -112 -41.499v-102h-55v100
c-69.333 3.33301 -124.5 27 -165.5 71s-61.5 105.333 -61.5 184c0 36.667 5.83301 69.834 17.5 99.501s27.834 55.5 48.501 77.5s44.667 39.667 72 53s57 22 89 26v89h55v-87c26 -1.33301 50 -6 72 -14s41 -18.167 57 -30.5s28.5 -26.833 37.5 -43.5
s13.5 -34.334 13.5 -53.001c-3.33301 -16.667 -10.666 -29.167 -21.999 -37.5s-24.666 -12.5 -39.999 -12.5c-17.333 0 -32.333 6.16699 -45 18.5s-20 34.166 -22 65.499l-3 51c-15.333 4 -31.333 6 -48 6v-385c35.333 0.666992 63.5 7.16699 84.5 19.5
s39.167 30.833 54.5 55.5z" />
    <glyph glyph-name="sterling" unicode="&#xa3;" 
d="M479 120l-0.00390625 -120.001h-430v60c16.667 10.667 31.334 22.834 44.001 36.501s23.334 28.167 32.001 43.5s15.334 31 20.001 47s7 31 7 45c0 9.33301 -0.333008 17.833 -1 25.5s-1.66699 15.167 -3 22.5h-93v55h77l-14 33.5c-4.66699 11 -9 22.333 -13 34
s-7.33301 24 -10 37s-4 27.5 -4 43.5c0 23.333 4.83301 45.333 14.5 66s23.5 38.667 41.5 54s39.333 27.5 64 36.5s52 13.5 82 13.5c24 0 46.5 -3.66699 67.5 -11s39.5 -17.333 55.5 -30s28.5 -27.334 37.5 -44.001s13.5 -34 13.5 -52c-6 -32 -25 -48 -57 -48
c-17.333 0 -31.666 6 -42.999 18s-18.333 33 -21 63l-4 50c-10.667 2.66699 -21 4 -31 4c-32 0 -55.833 -10.167 -71.5 -30.5s-23.5 -49.166 -23.5 -86.499c0 -30.667 2.33301 -57.5 7 -80.5s9 -46.5 13 -70.5h141v-55h-135v-19c0 -55.333 -18 -102.333 -54 -141h291z" />
    <glyph glyph-name="currency" unicode="&#xa4;" 
d="M264 230c12.667 0 24.668 2.33203 36.001 6.99902s21.166 11.167 29.499 19.5s15 18.5 20 30.5s7.5 25.333 7.5 40s-2.5 28 -7.5 40s-11.667 22.333 -20 31s-18.166 15.334 -29.499 20.001s-23.333 7 -36 7c-26 0 -48.333 -9 -67 -27s-28 -41.667 -28 -71
c0 -14.667 2.5 -28 7.5 -40s11.833 -22.167 20.5 -30.5s18.667 -14.833 30 -19.5s23.666 -7 36.999 -7zM433.001 200.999c18.667 -10.667 34.666 -21.3359 47.999 -32.0029s20 -23.667 20 -39c0 -11.333 -4 -21.166 -12 -29.499s-18 -12.5 -30 -12.5
c-8.66699 0 -16.334 2 -23.001 6s-12.834 9.33301 -18.501 16s-10.834 14 -15.501 22l-13 23l-18 34c-30.667 -22.667 -66.334 -34 -107.001 -34s-77 11.333 -109 34l-17 -31c-10.667 -18.667 -21.334 -34.667 -32.001 -48s-23.667 -20 -39 -20
c-11.333 0 -21.166 4 -29.499 12s-12.5 18 -12.5 30c0 8.66699 2 16.334 6 23.001s9.33301 12.834 16 18.501s14 10.834 22 15.501l23 13l32 17c-11.333 14.667 -20.333 31 -27 49s-10 37.667 -10 59s3.33301 41.333 10 60s16 35 28 49l-30 17
c-18.667 10.667 -34.667 21.334 -48 32.001s-20 23.667 -20 39c0 11.333 4 21.166 12 29.499s18 12.5 30 12.5c8.66699 0 16.334 -2.16699 23.001 -6.5s12.834 -9.66602 18.501 -15.999s10.834 -13.5 15.501 -21.5l13 -23l18 -33c30.667 22.667 66.334 34 107.001 34
c20 0 39.333 -3 58 -9s35.667 -14.667 51 -26l17 31c10.667 18.667 21.334 34.667 32.001 48s23.667 20 39 20c11.333 0 21.166 -4 29.499 -12s12.5 -18 12.5 -30c0 -8.66699 -2.16699 -16.334 -6.5 -23.001s-9.66602 -12.834 -15.999 -18.501s-13.5 -10.834 -21.5 -15.501
l-23 -13l-32 -17c11.333 -14.667 20 -31 26 -49s9 -37.667 9 -59s-3.33301 -41.166 -10 -59.499s-15.667 -34.833 -27 -49.5z" />
    <glyph glyph-name="yen" unicode="&#xa5;" 
d="M474 577l-121 -233h124v-55h-147v-67h147v-55h-147v-54c0 -16.667 0.333008 -34.667 1 -54l95 -10v-49h-323v49l94 9c0.666992 19.333 1 37.5 1 54.5v54.5h-142v55h142v67h-142v55h118l-128 238l-65 7v49h283v-49l-78 -8l116 -230l115 227l-80 11v49h210v-49z" />
    <glyph glyph-name="brokenbar" unicode="&#xa6;" horiz-adv-x="280" 
d="M97 200h86v-450h-86v450zM97 320v430h86v-430h-86z" />
    <glyph glyph-name="section" unicode="&#xa7;" horiz-adv-x="518" 
d="M364 172c11.333 17.333 16.999 37.001 16.999 59.001c0 16 -2.66699 29.667 -8 41s-13 21.166 -23 29.499s-21.833 15.666 -35.5 21.999s-28.834 12.833 -45.501 19.5c-18 7.33301 -37.667 15.833 -59 25.5s-40.666 22.167 -57.999 37.5
c-5.33301 -7.33301 -9.16602 -15.166 -11.499 -23.499s-3.5 -18.166 -3.5 -29.499c0 -18 3.16699 -33.167 9.5 -45.5s15 -23 26 -32s23.5 -16.667 37.5 -23s28.667 -12.5 44 -18.5c12.667 -4.66699 29.5 -11.834 50.5 -21.501s40.833 -23.167 59.5 -40.5zM295.999 615.001
c-14.667 3.33301 -26.667 5.00195 -36 5.00195c-21.333 0 -39.5 -5.5 -54.5 -16.5s-22.5 -28.167 -22.5 -51.5c0 -13.333 2.83301 -24.666 8.5 -33.999s14 -17.833 25 -25.5s24.333 -14.834 40 -21.501s33.167 -13.667 52.5 -21c20.667 -8 40.834 -16.667 60.501 -26
s37.167 -20.5 52.5 -33.5s27.666 -28.5 36.999 -46.5s14 -39.333 14 -64c0 -32.667 -7.5 -60.334 -22.5 -83.001s-33.5 -42.667 -55.5 -60c7.33301 -11.333 13.166 -23.666 17.499 -36.999s6.5 -28.333 6.5 -45c0 -22.667 -4.16699 -43.5 -12.5 -62.5s-20 -35.333 -35 -49
s-33.333 -24.334 -55 -32.001s-45.5 -11.5 -71.5 -11.5c-20.667 0 -40.667 2.33301 -60 7s-37.166 11.334 -53.499 20.001s-30.666 19.167 -42.999 31.5s-21.5 26.166 -27.5 41.499c0 23.333 5.16699 39.666 15.5 48.999s23.5 14 39.5 14c13.333 0 25.833 -3.66699 37.5 -11
s22.5 -21 32.5 -41l28 -57c10.667 -2.66699 23 -4 37 -4c55.333 0 83 23.667 83 71c0 16 -3.16699 29.667 -9.5 41s-15 21.333 -26 30s-24.167 16.167 -39.5 22.5l-49 19.5c-16 6 -33.667 13.333 -53 22s-37.333 19.667 -54 33s-30.5 29.5 -41.5 48.5s-16.5 41.5 -16.5 67.5
c0 31.333 7.5 57.5 22.5 78.5s33.5 39.167 55.5 54.5c-7.33301 11.333 -13.333 23.833 -18 37.5s-7 29.167 -7 46.5c0 21.333 4.16699 41 12.5 59s20 33.667 35 47s33.333 23.666 55 30.999s46.167 11 73.5 11c44.667 0 82.167 -9.5 112.5 -28.5
s51.166 -42.833 62.499 -71.5c0 -23.333 -5 -39.666 -15 -48.999s-23 -14 -39 -14c-14 0 -26.667 3.83301 -38 11.5s-22.333 21.167 -33 40.5z" />
    <glyph glyph-name="dieresis" unicode="&#xa8;" horiz-adv-x="400" 
d="M314 581c-18.667 0 -34.667 6 -48 18s-20 27.333 -20 46s6.66699 34.334 20 47.001s29.333 19 48 19s34.834 -6.33301 48.501 -19s20.5 -28.334 20.5 -47.001s-6.83301 -34 -20.5 -46s-29.834 -18 -48.501 -18zM86 581c-18.667 0 -34.834 6 -48.501 18
s-20.5 27.333 -20.5 46s6.83301 34.334 20.5 47.001s29.834 19 48.501 19s34.667 -6.33301 48 -19s20 -28.334 20 -47.001s-6.66699 -34 -20 -46s-29.333 -18 -48 -18z" />
    <glyph glyph-name="copyright" unicode="&#xa9;" horiz-adv-x="748" 
d="M461 248l52.9961 0.000976562l-3 -96c-35.333 -18 -73.666 -27 -114.999 -27c-30 0 -57.333 5 -82 15s-46 23.833 -64 41.5s-31.833 38.667 -41.5 63s-14.5 51.166 -14.5 80.499c0 28 5 54.167 15 78.5s24 45.333 42 63s39.333 31.5 64 41.5s51.334 15 80.001 15
c19.333 0 37.833 -1.66699 55.5 -5s36.167 -10.666 55.5 -21.999l2 -96h-52l-10 64c-8 2 -15.667 3.33301 -23 4s-14 1 -20 1c-30 0 -55.5 -12.333 -76.5 -37s-31.5 -60.334 -31.5 -107.001c0 -47.333 10 -83.333 30 -108s47.667 -37 83 -37
c4.66699 0 10.834 0.333008 18.501 1s15.834 2 24.501 4zM373.996 31.001c38.667 0 75.167 7.33301 109.5 22s64.333 35.167 90 61.5s46 57.833 61 94.5s22.5 77 22.5 121s-7.5 84 -22.5 120s-35.333 66.833 -61 92.5s-55.667 45.667 -90 60s-70.833 21.5 -109.5 21.5
s-75.167 -7 -109.5 -21s-64.333 -34 -90 -60s-46 -57 -61 -93s-22.5 -76 -22.5 -120s7.5 -84.333 22.5 -121s35.333 -68.167 61 -94.5s55.667 -46.833 90 -61.5s70.833 -22 109.5 -22zM373.996 670.001c45.333 0 88.666 -7.83301 129.999 -23.5s77.5 -38.334 108.5 -68.001
s55.667 -65.5 74 -107.5s27.5 -89 27.5 -141c0 -52.667 -9.16699 -100.334 -27.5 -143.001s-43 -79 -74 -109s-67.167 -53 -108.5 -69s-84.666 -24 -129.999 -24s-88.666 8 -129.999 24s-77.5 39 -108.5 69s-55.667 66.333 -74 109s-27.5 90.334 -27.5 143.001
c0 52 9.16699 99 27.5 141s43 77.833 74 107.5s67.167 52.334 108.5 68.001s84.666 23.5 129.999 23.5z" />
    <glyph glyph-name="ordfeminine" unicode="&#xaa;" horiz-adv-x="366" 
d="M217 579c-19.333 -5.33301 -34.333 -10.002 -45 -14.002c-18.667 -7.33301 -31.834 -16.166 -39.501 -26.499s-11.5 -21.833 -11.5 -34.5c0 -8 1.33301 -14.667 4 -20s5.66699 -9.66602 9 -12.999c8.66699 -8.66699 20.334 -13 35.001 -13c8.66699 0 16.5 1.33301 23.5 4
s15.167 7 24.5 13v104zM370 453.998c-9.33301 -17.333 -20.168 -29.333 -32.501 -36s-26.166 -10 -41.499 -10c-19.333 0 -35.166 3.5 -47.499 10.5s-21.166 16.5 -26.499 28.5c-14.667 -12.667 -30.334 -22.834 -47.001 -30.501s-35 -11.5 -55 -11.5
c-25.333 0 -46.5 6.83301 -63.5 20.5s-25.5 33.834 -25.5 60.501c0 10.667 1.66699 20.667 5 30s9.66602 18.333 18.999 27s22.166 17.167 38.499 25.5s37.5 16.5 63.5 24.5c8 2.66699 17.167 5.33398 27.5 8.00098l32.5 8v22c0 27.333 -4.16699 46.5 -12.5 57.5
s-22.5 16.5 -42.5 16.5c-3.33301 0 -7 -0.166992 -11 -0.5s-8.33301 -0.833008 -13 -1.5l-5 -36c-2.66699 -16 -8.66699 -27.833 -18 -35.5s-19.666 -11.5 -30.999 -11.5c-10 0 -18.833 3 -26.5 9s-12.5 13.667 -14.5 23c2.66699 25.333 16.834 46.333 42.501 63
s59.5 25 101.5 25c44 0 75.833 -9.83301 95.5 -29.5s29.5 -52.834 29.5 -99.501v-135c0 -17.333 5 -26 15 -26c5.33301 0 9.66602 1.33301 12.999 4s7.33301 7 12 13z" />
    <glyph glyph-name="guillemotleft" unicode="&#xab;" horiz-adv-x="479" 
d="M112 253l148 -161l-37 -40l-193 159v83l193 159l37 -40zM311 253l148 -161l-37 -40l-193 159v83l193 159l37 -40z" />
    <glyph glyph-name="logicalnot" unicode="&#xac;" horiz-adv-x="530" 
d="M500 405v-257h-90v177h-380v80h470z" />
    <glyph glyph-name="uni00AD" unicode="&#xad;" horiz-adv-x="330" 
d="M40 293h250v-84h-250v84z" />
    <glyph glyph-name="registered" unicode="&#xae;" horiz-adv-x="466" 
d="M219 528h3c16 0 27.333 3.66699 34 11s10 16 10 26c0 22 -14.667 33 -44 33h-3v-70zM318 442l22 -2.99707v-20c-10.667 -2.66699 -21 -4 -31 -4c-11.333 0 -21.5 2 -30.5 6s-15.167 12.667 -18.5 26l-9 37c-2 8 -5.66699 13.667 -11 17s-11.333 5 -18 5h-3v-65l21 -2v-20
h-97v20l21 2v156l-21 2v21h100c24 0 42.667 -4.66699 56 -14s20 -22 20 -38c0 -10.667 -3.66699 -21.334 -11 -32.001s-20.333 -18.334 -39 -23.001c9.33301 -2.66699 17.5 -6.83398 24.5 -12.501s11.833 -13.167 14.5 -22.5zM233 354.003c21.333 0 41.5 3.66699 60.5 11
s35.833 18 50.5 32s26.167 31 34.5 51s12.5 42.667 12.5 68c0 24.667 -4.16699 47 -12.5 67s-19.833 36.833 -34.5 50.5s-31.5 24.167 -50.5 31.5s-39.167 11 -60.5 11s-41.5 -3.66699 -60.5 -11s-35.833 -17.833 -50.5 -31.5s-26.167 -30.5 -34.5 -50.5
s-12.5 -42.333 -12.5 -67c0 -25.333 4.16699 -48 12.5 -68s19.833 -37 34.5 -51s31.5 -24.667 50.5 -32s39.167 -11 60.5 -11zM233 716.003c27.333 0 53.333 -4.5 78 -13.5s46.167 -22.167 64.5 -39.5s33 -38.333 44 -63s16.5 -52.667 16.5 -84s-5.5 -59.5 -16.5 -84.5
s-25.667 -46.167 -44 -63.5s-39.833 -30.666 -64.5 -39.999s-50.667 -14 -78 -14s-53.333 4.66699 -78 14s-46.167 22.666 -64.5 39.999s-33 38.5 -44 63.5s-16.5 53.167 -16.5 84.5s5.5 59.333 16.5 84s25.667 45.667 44 63s39.833 30.5 64.5 39.5s50.667 13.5 78 13.5z
" />
    <glyph glyph-name="macron" unicode="&#xaf;" horiz-adv-x="400" 
d="M50 685h300v-82h-300v82z" />
    <glyph glyph-name="degree" unicode="&#xb0;" horiz-adv-x="356" 
d="M178 434c24.667 0 44.834 8.5 60.501 25.5s23.5 39.5 23.5 67.5c0 28.667 -7.83301 51.667 -23.5 69s-35.834 26 -60.501 26s-44.834 -8.66699 -60.501 -26s-23.5 -40.333 -23.5 -69c0 -28 7.83301 -50.5 23.5 -67.5s35.834 -25.5 60.501 -25.5zM178 386
c-19.333 0 -37.666 3.33301 -54.999 10s-32.5 16.167 -45.5 28.5s-23.333 27.166 -31 44.499s-11.5 36.666 -11.5 57.999c0 22 3.83301 41.833 11.5 59.5s18 32.667 31 45s28.167 21.833 45.5 28.5s35.666 10 54.999 10s37.666 -3.33301 54.999 -10s32.5 -16.167 45.5 -28.5
s23.333 -27.333 31 -45s11.5 -37.5 11.5 -59.5c0 -21.333 -3.83301 -40.666 -11.5 -57.999s-18 -32.166 -31 -44.499s-28.167 -21.833 -45.5 -28.5s-35.666 -10 -54.999 -10z" />
    <glyph glyph-name="plusminus" unicode="&#xb1;" horiz-adv-x="530" 
d="M30 80h470v-80h-470v80zM500 405v-80h-193v-183h-84v183h-193v80h193v168h84v-168h193z" />
    <glyph glyph-name="two.sups" unicode="&#xb2;" horiz-adv-x="358" 
d="M320 504l-0.00195312 -88.998h-283v58l85 80c57.333 55.333 86 107 86 155c0 20.667 -5.5 37.667 -16.5 51s-28.167 20 -51.5 20c-5.33301 0 -9.33301 -0.333008 -12 -1l-7 -37c-4.66699 -22 -10.667 -37 -18 -45s-16.666 -12 -27.999 -12
c-19.333 0 -33.333 8.66699 -42 26c0 17.333 3.83301 32.666 11.5 45.999s18 24.333 31 33s28 15.167 45 19.5s35.5 6.5 55.5 6.5c24.667 0 45.334 -3 62.001 -9s30.167 -13.833 40.5 -23.5s17.833 -20.5 22.5 -32.5s7 -23.667 7 -35c0 -15.333 -3.5 -30 -10.5 -44
s-17 -28.333 -30 -43s-28.833 -30.334 -47.5 -47.001l-63 -56l-23 -21h186z" />
    <glyph glyph-name="three.sups" unicode="&#xb3;" horiz-adv-x="357" 
d="M123 735c-2 -18 -6.33008 -29.835 -12.9971 -35.502s-14.334 -8.5 -23.001 -8.5c-9.33301 0 -17.5 1.83301 -24.5 5.5s-13.167 8.16699 -18.5 13.5c0.666992 18 4.5 33.667 11.5 47s16.5 24.333 28.5 33s26 15 42 19s33 6 51 6c39.333 0 71.666 -8.83301 96.999 -26.5
s38 -41.5 38 -71.5c0 -22.667 -7.33301 -42.5 -22 -59.5s-34.667 -29.5 -60 -37.5c31.333 -6 55.333 -17.5 72 -34.5s25 -39.5 25 -67.5c0 -36 -13.833 -63.667 -41.5 -83s-65.5 -29 -113.5 -29c-44.667 0 -80.5 9.83301 -107.5 29.5s-39.5 46.167 -37.5 79.5
c3.33301 10.667 8.66602 17.334 15.999 20.001s14.666 4 21.999 4c11.333 0 21 -3 29 -9s13.667 -20 17 -42l5 -44c3.33301 -0.666992 6.83301 -1.16699 10.5 -1.5s7.16699 -0.5 10.5 -0.5c25.333 0 46.166 7 62.499 21s24.5 34 24.5 60c0 23.333 -6.66699 41.833 -20 55.5
s-32.333 20.5 -57 20.5h-32v40h26c49.333 0 74 22.667 74 68c0 22.667 -6.16699 40.334 -18.5 53.001s-28.166 19 -47.499 19c-3.33301 0 -6.66602 -0.166992 -9.99902 -0.5s-7 -0.833008 -11 -1.5z" />
    <glyph glyph-name="acute" unicode="&#xb4;" horiz-adv-x="400" 
d="M155 671c19.333 34 36.002 57.8311 50.002 71.498s29.333 20.5 46 20.5c14 0 25.833 -4.16699 35.5 -12.5s14.5 -20.166 14.5 -35.499c0 -6.66699 -1.16699 -13.167 -3.5 -19.5s-6.33301 -13.166 -12 -20.499s-13.334 -15.333 -23.001 -24s-21.834 -19 -36.501 -31
l-95 -77l-34 27z" />
    <glyph glyph-name="uni00B5" unicode="&#xb5;" horiz-adv-x="609" 
d="M594 25c-14 -13.333 -27.5 -22.498 -40.5 -27.498s-26.833 -7.5 -41.5 -7.5c-26.667 0 -47.667 9.16699 -63 27.5s-25.333 40.166 -30 65.499c-17.333 -36 -37.833 -61.333 -61.5 -76s-49.834 -22 -78.501 -22c-62.667 0 -106.334 29 -131.001 87l-3 -279
c-7.33301 -7.33301 -15.5 -13 -24.5 -17s-20.5 -6 -34.5 -6c-15.333 0 -28.666 5.5 -39.999 16.5s-17 29.5 -17 55.5c0 12 1.33301 25.833 4 41.5s6 32 10 49s8.5 34.5 13.5 52.5l14.5 52l19 70v160l-9 213l69 18l15 -10l-5 -113v-135c0 -23.333 3.33301 -43.333 10 -60
s15.667 -30.167 27 -40.5s24.333 -17.833 39 -22.5s30.334 -7 47.001 -7c25.333 0 48.333 4.66699 69 14s42.334 22.666 65.001 39.999v103l-9 213l69 18l15 -10l-5 -113v-222c0 -17.333 3.5 -30.5 10.5 -39.5s16.167 -13.5 27.5 -13.5c8.66699 0 15.167 0.5 19.5 1.5
s8.16602 2.16699 11.499 3.5l19 7z" />
    <glyph glyph-name="paragraph" unicode="&#xb6;" horiz-adv-x="652" 
d="M527 596c-1.33301 -41.333 -1.99609 -82.835 -1.99609 -124.502v-126.5v-155c0 -52 0.166992 -103.667 0.5 -155s1.16602 -103 2.49902 -155h-130c1.33301 50.667 2.16602 101.834 2.49902 153.501s0.5 103.834 0.5 156.501v410h-65v-480
c-44.667 0.666992 -86 6.83398 -124 18.501s-70.833 29 -98.5 52s-49.334 51.667 -65.001 86s-23.5 74.166 -23.5 119.499c0 43.333 8.66699 81.166 26 113.499s41.666 59.333 72.999 81s68.5 37.834 111.5 48.501s90.167 16 141.5 16h235v-50z" />
    <glyph glyph-name="periodcentered" unicode="&#xb7;" horiz-adv-x="300" 
d="M150 241c-12 0 -22.998 2.16699 -32.998 6.5s-18.833 10.333 -26.5 18s-13.667 16.667 -18 27s-6.5 21.166 -6.5 32.499c0 23.333 8.16699 43.333 24.5 60s36.166 25 59.499 25s43.166 -8.33301 59.499 -25s24.5 -36.667 24.5 -60
c0 -11.333 -2.16699 -22.166 -6.5 -32.499s-10.333 -19.333 -18 -27s-16.5 -13.667 -26.5 -18s-21 -6.5 -33 -6.5z" />
    <glyph glyph-name="cedilla" unicode="&#xb8;" horiz-adv-x="400" 
d="M195 -54c64 -11.333 96 -39.665 96 -84.998c0 -29.333 -11 -51.833 -33 -67.5s-52.667 -23.5 -92 -23.5c-15.333 0 -29 1 -41 3s-22.667 4.33301 -32 7l10 43c8.66699 -1.33301 17.167 -2.5 25.5 -3.5s17.833 -1.5 28.5 -1.5c17.333 0 30.333 3.66699 39 11
s13 17.666 13 30.999c0 15.333 -5.83301 26.166 -17.5 32.499s-28.167 10.5 -49.5 12.5l14 103h46z" />
    <glyph glyph-name="one.sups" unicode="&#xb9;" horiz-adv-x="328" 
d="M287 449v-34h-239v34l70 15v285l-54 -6v38l145 31l9 -5v-343z" />
    <glyph glyph-name="ordmasculine" unicode="&#xba;" horiz-adv-x="388" 
d="M194 705c-47.333 0 -71 -44.333 -71 -133c0 -88 23.667 -132 71 -132c46.667 0 70 44 70 132c0 88.667 -23.333 133 -70 133zM194 740c22.667 0 44.502 -3.83301 65.502 -11.5s39.5 -18.834 55.5 -33.501s28.833 -32.334 38.5 -53.001s14.5 -44 14.5 -70
s-4.33301 -49.333 -13 -70s-20.834 -38.167 -36.501 -52.5s-34.167 -25.333 -55.5 -33s-44.333 -11.5 -69 -11.5c-25.333 0 -48.5 3.83301 -69.5 11.5s-39.333 18.667 -55 33s-27.834 31.833 -36.501 52.5s-13 44 -13 70s4.66699 49.333 14 70s22 38.334 38 53.001
s34.5 25.834 55.5 33.501s43.167 11.5 66.5 11.5z" />
    <glyph glyph-name="guillemotright" unicode="&#xbb;" horiz-adv-x="479" 
d="M250 294v-83l-193 -159l-37 40l148 161l-148 160l37 40zM449 294v-83l-193 -159l-37 40l148 161l-148 160l37 40z" />
    <glyph glyph-name="onequarter" unicode="&#xbc;" horiz-adv-x="880" 
d="M205 8l459 655l49 -33l-459 -655zM314 294v-34h-239v34l70 15v285l-54 -6v38l145 31l9 -5v-343zM658 157v157l-117 -157h117zM805 81h-59v-80h-88v80h-180v61l200 256h68v-241h59v-76z" />
    <glyph glyph-name="onehalf" unicode="&#xbd;" horiz-adv-x="880" 
d="M182 8l459 655l49 -33l-459 -655zM300 294v-34h-239v34l70 15v285l-54 -6v38l145 31l9 -5v-343zM819 90l-0.00195312 -88.998h-283v58l85 80c57.333 55.333 86 107 86 155c0 20.667 -5.5 37.667 -16.5 51s-28.167 20 -51.5 20c-5.33301 0 -9.33301 -0.333008 -12 -1
l-7 -37c-4.66699 -22 -10.667 -37 -18 -45s-16.666 -12 -27.999 -12c-19.333 0 -33.333 8.66699 -42 26c0 17.333 3.83301 32.666 11.5 45.999s18 24.333 31 33s28 15.167 45 19.5s35.5 6.5 55.5 6.5c24.667 0 45.334 -3 62.001 -9s30.167 -13.833 40.5 -23.5
s17.833 -20.5 22.5 -32.5s7 -23.667 7 -35c0 -15.333 -3.5 -30 -10.5 -44s-17 -28.333 -30 -43s-28.833 -30.334 -47.5 -47.001l-63 -56l-23 -21h186z" />
    <glyph glyph-name="threequarters" unicode="&#xbe;" horiz-adv-x="880" 
d="M212 -1l459 655l49 -33l-459 -655zM161 580c-2 -18 -6.33008 -29.835 -12.9971 -35.502s-14.334 -8.5 -23.001 -8.5c-9.33301 0 -17.5 1.83301 -24.5 5.5s-13.167 8.16699 -18.5 13.5c0.666992 18 4.5 33.667 11.5 47s16.5 24.333 28.5 33s26 15 42 19s33 6 51 6
c39.333 0 71.666 -8.83301 96.999 -26.5s38 -41.5 38 -71.5c0 -22.667 -7.33301 -42.5 -22 -59.5s-34.667 -29.5 -60 -37.5c31.333 -6 55.333 -17.5 72 -34.5s25 -39.5 25 -67.5c0 -36 -13.833 -63.667 -41.5 -83s-65.5 -29 -113.5 -29c-44.667 0 -80.5 9.83301 -107.5 29.5
s-39.5 46.167 -37.5 79.5c3.33301 10.667 8.66602 17.334 15.999 20.001s14.666 4 21.999 4c11.333 0 21 -3 29 -9s13.667 -20 17 -42l5 -44c3.33301 -0.666992 6.83301 -1.16699 10.5 -1.5s7.16699 -0.5 10.5 -0.5c25.333 0 46.166 7 62.499 21s24.5 34 24.5 60
c0 23.333 -6.66699 41.833 -20 55.5s-32.333 20.5 -57 20.5h-32v40h26c49.333 0 74 22.667 74 68c0 22.667 -6.16699 40.334 -18.5 53.001s-28.166 19 -47.499 19c-3.33301 0 -6.66602 -0.166992 -9.99902 -0.5s-7 -0.833008 -11 -1.5zM670.003 156.998v157l-117 -157h117z
M817.003 80.998h-59v-80h-88v80h-180v61l200 256h68v-241h59v-76z" />
    <glyph glyph-name="questiondown" unicode="&#xbf;" horiz-adv-x="471" 
d="M312 330c-23.333 0 -43.168 8.33301 -59.501 25s-24.5 36.667 -24.5 60c0 11.333 2.16699 22.166 6.5 32.499s10.333 19.333 18 27s16.5 13.667 26.5 18s21 6.5 33 6.5s23 -2.16699 33 -6.5s18.833 -10.333 26.5 -18s13.667 -16.667 18 -27s6.5 -21.166 6.5 -32.499
c0 -23.333 -8.16699 -43.333 -24.5 -60s-36.166 -25 -59.499 -25zM203.998 33c-20.667 -9.33301 -34.834 -18.168 -42.501 -26.501s-11.5 -18.833 -11.5 -31.5c0 -7.33301 0.833008 -14 2.5 -20s4.16699 -12.667 7.5 -20l77.5 10c27 3.33301 49.833 5 68.5 5
c31.333 0 54.833 -6.83301 70.5 -20.5s23.5 -30.5 23.5 -50.5c0 -17.333 -6 -32.166 -18 -44.499s-28.333 -19.166 -49 -20.499c-48 6.66699 -88.667 17 -122 31s-60.5 30.5 -81.5 49.5s-36.167 40.167 -45.5 63.5s-14 47.666 -14 72.999c0 34.667 9 61.667 27 81
s44 35 78 47l65 23c10.667 4 19.167 7.5 25.5 10.5s11.333 6.33301 15 10s6.33398 7.5 8.00098 11.5s3.16699 8.66699 4.5 14l5 21h42l8 -39c2.66699 -12.667 4.66699 -23 6 -31s2 -16.333 2 -25c0 -21.333 -5.16699 -38 -15.5 -50s-27.5 -23.333 -51.5 -34z" />
    <glyph glyph-name="Agrave" unicode="&#xc0;" horiz-adv-x="673" 
d="M385 259l-80 223l-83 -223h163zM669 49v-49h-294v49l82 10l-52 145h-203l-53 -142l81 -12v-50h-225v50l89 13l222 592h60l227 -598zM423 702l-143.999 70c-22.667 11.333 -37.667 22 -45 32s-11 19.667 -11 29c0 12 4.5 22.5 13.5 31.5s20.5 13.5 34.5 13.5
c10 0 20.167 -3 30.5 -9s23.166 -16 38.499 -30l108 -103z" />
    <glyph glyph-name="Aacute" unicode="&#xc1;" horiz-adv-x="673" 
d="M385 259l-80 223l-83 -223h163zM669 49v-49h-294v49l82 10l-52 145h-203l-53 -142l81 -12v-50h-225v50l89 13l222 592h60l227 -598zM349 839c15.333 14 28.333 24 39 30s21 9 31 9c14 0 25.333 -4.5 34 -13.5s13 -19.5 13 -31.5c0 -9.33301 -3.66699 -19 -11 -29
s-22.333 -20.667 -45 -32l-144 -70l-25 34z" />
    <glyph glyph-name="Acircumflex" unicode="&#xc2;" horiz-adv-x="673" 
d="M385 259l-80 223l-83 -223h163zM669 49v-49h-294v49l82 10l-52 145h-203l-53 -142l81 -12v-50h-225v50l89 13l222 592h60l227 -598zM484 674l-140 85l-140 -85l-27 33l139 141h56l139 -141z" />
    <glyph glyph-name="Atilde" unicode="&#xc3;" horiz-adv-x="673" 
d="M385 259l-80 223l-83 -223h163zM669 49v-49h-294v49l82 10l-52 145h-203l-53 -142l81 -12v-50h-225v50l89 13l222 592h60l227 -598zM413 700c-16.667 0 -33 3.49707 -49 10.4971s-32.667 18.833 -50 35.5c-7.33301 7.33301 -15.166 14 -23.499 20s-17.5 9 -27.5 9
s-18.667 -4.16699 -26 -12.5s-11 -24.166 -11 -47.499h-44c-1.33301 6.66699 -2.33301 12.834 -3 18.501s-1 11.167 -1 16.5c0 29.333 8.66699 53 26 71s40.333 27 69 27c17.333 0 33.666 -3.5 48.999 -10.5s32 -18.5 50 -34.5c8 -7.33301 16 -14 24 -20s17.667 -9 29 -9
c12 0 20.833 4.5 26.5 13.5s8.5 24.167 8.5 45.5h44c1.33301 -6 2.33301 -12.167 3 -18.5s1 -12.166 1 -17.499c0 -28.667 -8.66699 -52 -26 -70s-40.333 -27 -69 -27z" />
    <glyph glyph-name="Adieresis" unicode="&#xc4;" horiz-adv-x="673" 
d="M385 259l-80 223l-83 -223h163zM669 49v-49h-294v49l82 10l-52 145h-203l-53 -142l81 -12v-50h-225v50l89 13l222 592h60l227 -598zM229 719c-18.667 0 -34.834 6 -48.501 18s-20.5 27.333 -20.5 46s6.83301 34.167 20.5 46.5s29.834 18.5 48.501 18.5
s34.667 -6.16699 48 -18.5s20 -27.833 20 -46.5s-6.66699 -34 -20 -46s-29.333 -18 -48 -18zM473 719c-18.667 0 -34.667 6 -48 18s-20 27.333 -20 46s6.66699 34.167 20 46.5s29.333 18.5 48 18.5s34.834 -6.16699 48.501 -18.5s20.5 -27.833 20.5 -46.5
s-6.83301 -34 -20.5 -46s-29.834 -18 -48.501 -18z" />
    <glyph glyph-name="Aring" unicode="&#xc5;" horiz-adv-x="673" 
d="M385 259l-80 223l-83 -223h163zM669 49v-49h-294v49l82 10l-52 145h-203l-53 -142l81 -12v-50h-225v50l89 13l222 592h60l227 -598zM339 704c-30 0 -55.333 8.66699 -76 26s-31 42.666 -31 75.999c0 32 10.333 57 31 75s46 27 76 27s55.333 -8.66699 76 -26
s31 -42.666 31 -75.999c0 -32 -10.333 -57 -31 -75s-46 -27 -76 -27zM339 749c17.333 0 30.666 6 39.999 18s14 25 14 39c0 14.667 -4.5 27.834 -13.5 39.501s-22.5 17.5 -40.5 17.5c-17.333 0 -30.666 -5.83301 -39.999 -17.5s-14 -24.834 -14 -39.501
c0 -14 4.5 -27 13.5 -39s22.5 -18 40.5 -18z" />
    <glyph glyph-name="AE" unicode="&#xc6;" horiz-adv-x="913" 
d="M268 293h162v297h-10zM888 174l-7 -174h-534v50l81 9c0.666992 28 1.16699 56.833 1.5 86.5s0.5 60.5 0.5 92.5h-190l-89 -176l84 -12v-50h-225v50l73 11l274 535l-90 9v50h594l7 -174h-75l-21 119h-194c-1.33301 -38 -2 -76.333 -2 -115v-118h128l13 89h54v-232h-54
l-12 88h-129v-131.5c0 -42.333 0.666992 -84.5 2 -126.5h214l21 120h75z" />
    <glyph glyph-name="Ccedilla" unicode="&#xc7;" horiz-adv-x="622" 
d="M587 184l-4.00098 -152.003c-28 -15.333 -59 -27 -93 -35s-70 -12 -108 -12c-51.333 0 -98.5 7.16699 -141.5 21.5s-80.167 35.833 -111.5 64.5s-55.666 64.334 -72.999 107.001s-26 92.334 -26 149.001s9.16699 106.5 27.5 149.5s43.5 78.833 75.5 107.5
s70.167 50.167 114.5 64.5s92.5 21.5 144.5 21.5c32 0 62.5 -3.5 91.5 -10.5s58.833 -19.167 89.5 -36.5l4 -152h-79l-20 126c-28 12 -56.333 18 -85 18c-29.333 0 -56.833 -6.16699 -82.5 -18.5s-48 -30.666 -67 -54.999s-33.833 -54.5 -44.5 -90.5s-16 -77.333 -16 -124
s5.33301 -87.834 16 -123.501s25.5 -65.667 44.5 -90s41.333 -42.666 67 -54.999s53.167 -18.5 82.5 -18.5c31.333 0 63 6 95 18l19 126h80zM383.999 -54.0029c64 -11.333 96 -39.665 96 -84.998c0 -29.333 -11 -51.833 -33 -67.5s-52.667 -23.5 -92 -23.5
c-15.333 0 -29 1 -41 3s-22.667 4.33301 -32 7l10 43c8.66699 -1.33301 17.167 -2.5 25.5 -3.5s17.833 -1.5 28.5 -1.5c17.333 0 30.333 3.66699 39 11s13 17.666 13 30.999c0 15.333 -5.83301 26.166 -17.5 32.499s-28.167 10.5 -49.5 12.5l14 103h46z" />
    <glyph glyph-name="Egrave" unicode="&#xc8;" horiz-adv-x="598" 
d="M573 174l-7 -174h-534v50l81 9c1.33301 41.333 2 82.833 2 124.5v126.5v35v125.5c0 41.667 -0.666992 83.5 -2 125.5l-81 9v50h514l7 -174h-75l-21 119h-194c-1.33301 -38 -2 -76.333 -2 -115v-118h128l13 89h54v-232h-54l-12 88h-129v-131.5
c0 -42.333 0.666992 -84.5 2 -126.5h214l21 120h75zM375 702l-143.999 70c-22.667 11.333 -37.667 22 -45 32s-11 19.667 -11 29c0 12 4.5 22.5 13.5 31.5s20.5 13.5 34.5 13.5c10 0 20.167 -3 30.5 -9s23.166 -16 38.499 -30l108 -103z" />
    <glyph glyph-name="Eacute" unicode="&#xc9;" horiz-adv-x="598" 
d="M573 174l-7 -174h-534v50l81 9c1.33301 41.333 2 82.833 2 124.5v126.5v35v125.5c0 41.667 -0.666992 83.5 -2 125.5l-81 9v50h514l7 -174h-75l-21 119h-194c-1.33301 -38 -2 -76.333 -2 -115v-118h128l13 89h54v-232h-54l-12 88h-129v-131.5
c0 -42.333 0.666992 -84.5 2 -126.5h214l21 120h75zM347 839c15.333 14 28.333 24 39 30s21 9 31 9c14 0 25.333 -4.5 34 -13.5s13 -19.5 13 -31.5c0 -9.33301 -3.66699 -19 -11 -29s-22.333 -20.667 -45 -32l-144 -70l-25 34z" />
    <glyph glyph-name="Ecircumflex" unicode="&#xca;" horiz-adv-x="598" 
d="M573 174l-7 -174h-534v50l81 9c1.33301 41.333 2 82.833 2 124.5v126.5v35v125.5c0 41.667 -0.666992 83.5 -2 125.5l-81 9v50h514l7 -174h-75l-21 119h-194c-1.33301 -38 -2 -76.333 -2 -115v-118h128l13 89h54v-232h-54l-12 88h-129v-131.5
c0 -42.333 0.666992 -84.5 2 -126.5h214l21 120h75zM468 693l-140 85l-140 -85l-27 33l139 141h56l139 -141z" />
    <glyph glyph-name="Edieresis" unicode="&#xcb;" horiz-adv-x="598" 
d="M573 174l-7 -174h-534v50l81 9c1.33301 41.333 2 82.833 2 124.5v126.5v35v125.5c0 41.667 -0.666992 83.5 -2 125.5l-81 9v50h514l7 -174h-75l-21 119h-194c-1.33301 -38 -2 -76.333 -2 -115v-118h128l13 89h54v-232h-54l-12 88h-129v-131.5
c0 -42.333 0.666992 -84.5 2 -126.5h214l21 120h75zM191 719c-18.667 0 -34.834 6 -48.501 18s-20.5 27.333 -20.5 46s6.83301 34.167 20.5 46.5s29.834 18.5 48.501 18.5s34.667 -6.16699 48 -18.5s20 -27.833 20 -46.5s-6.66699 -34 -20 -46s-29.333 -18 -48 -18zM435 719
c-18.667 0 -34.667 6 -48 18s-20 27.333 -20 46s6.66699 34.167 20 46.5s29.333 18.5 48 18.5s34.834 -6.16699 48.501 -18.5s20.5 -27.833 20.5 -46.5s-6.83301 -34 -20.5 -46s-29.834 -18 -48.501 -18z" />
    <glyph glyph-name="Igrave" unicode="&#xcc;" horiz-adv-x="376" 
d="M263 596c-1.33301 -41.333 -2 -82.833 -2 -124.5v-126.5v-35v-125.5c0 -41.667 0.666992 -83.5 2 -125.5l81 -9v-50h-312v50l81 9c1.33301 41.333 2 82.833 2 124.5v126.5v35v125.5c0 41.667 -0.666992 83.5 -2 125.5l-81 9v50h312v-50zM264 702l-143.999 70
c-22.667 11.333 -37.667 22 -45 32s-11 19.667 -11 29c0 12 4.5 22.5 13.5 31.5s20.5 13.5 34.5 13.5c10 0 20.167 -3 30.5 -9s23.166 -16 38.499 -30l108 -103z" />
    <glyph glyph-name="Iacute" unicode="&#xcd;" horiz-adv-x="376" 
d="M263 596c-1.33301 -41.333 -2 -82.833 -2 -124.5v-126.5v-35v-125.5c0 -41.667 0.666992 -83.5 2 -125.5l81 -9v-50h-312v50l81 9c1.33301 41.333 2 82.833 2 124.5v126.5v35v125.5c0 41.667 -0.666992 83.5 -2 125.5l-81 9v50h312v-50zM221 839
c15.333 14 28.333 24 39 30s21 9 31 9c14 0 25.333 -4.5 34 -13.5s13 -19.5 13 -31.5c0 -9.33301 -3.66699 -19 -11 -29s-22.333 -20.667 -45 -32l-144 -70l-25 34z" />
    <glyph glyph-name="Icircumflex" unicode="&#xce;" horiz-adv-x="376" 
d="M263 596c-1.33301 -41.333 -2 -82.833 -2 -124.5v-126.5v-35v-125.5c0 -41.667 0.666992 -83.5 2 -125.5l81 -9v-50h-312v50l81 9c1.33301 41.333 2 82.833 2 124.5v126.5v35v125.5c0 41.667 -0.666992 83.5 -2 125.5l-81 9v50h312v-50zM328 693l-140 85l-140 -85l-27 33
l139 141h56l139 -141z" />
    <glyph glyph-name="Idieresis" unicode="&#xcf;" horiz-adv-x="376" 
d="M263 596c-1.33301 -41.333 -2 -82.833 -2 -124.5v-126.5v-35v-125.5c0 -41.667 0.666992 -83.5 2 -125.5l81 -9v-50h-312v50l81 9c1.33301 41.333 2 82.833 2 124.5v126.5v35v125.5c0 41.667 -0.666992 83.5 -2 125.5l-81 9v50h312v-50zM66 719
c-18.667 0 -34.834 6 -48.501 18s-20.5 27.333 -20.5 46s6.83301 34.167 20.5 46.5s29.834 18.5 48.501 18.5s34.667 -6.16699 48 -18.5s20 -27.833 20 -46.5s-6.66699 -34 -20 -46s-29.333 -18 -48 -18zM310 719c-18.667 0 -34.667 6 -48 18s-20 27.333 -20 46
s6.66699 34.167 20 46.5s29.333 18.5 48 18.5s34.834 -6.16699 48.501 -18.5s20.5 -27.833 20.5 -46.5s-6.83301 -34 -20.5 -46s-29.834 -18 -48.501 -18z" />
    <glyph glyph-name="Eth" unicode="&#xd0;" horiz-adv-x="692" 
d="M299 55c31.333 0 60.001 6.00098 86.001 18.001s48.167 29.5 66.5 52.5s32.5 51.5 42.5 85.5s15 73 15 117s-5 83 -15 117s-24.333 62.5 -43 85.5s-40.834 40.333 -66.501 52s-54.5 17.5 -86.5 17.5h-35c-1.33301 -38.667 -2 -77.334 -2 -116.001v-118h131v-55h-131v-131
c0 -42 0.666992 -83.667 2 -125h36zM334.001 655.001c48.667 0 93.167 -7 133.5 -21s75 -34.833 104 -62.5s51.333 -61.5 67 -101.5s23.5 -86 23.5 -138c0 -54 -8.66699 -101.667 -26 -143s-41.5 -76 -72.5 -104s-67.833 -49.167 -110.5 -63.5s-89 -21.5 -139 -21.5h-282v50
l81 9c1.33301 40 2 80.833 2 122.5v129.5h-83v55h83v115.5c0 38.333 -0.666992 76.5 -2 114.5l-81 9v50h302z" />
    <glyph glyph-name="Ntilde" unicode="&#xd1;" horiz-adv-x="761" 
d="M735 605l-93 -13v-602h-50l-414 515v-442l114 -13v-50h-266v50l93 13v516l-15 18l-68 7v51h197l351 -443v380l-115 13v50h266v-50zM452 700c-16.667 0 -33 3.49707 -49 10.4971s-32.667 18.833 -50 35.5c-7.33301 7.33301 -15.166 14 -23.499 20s-17.5 9 -27.5 9
s-18.667 -4.16699 -26 -12.5s-11 -24.166 -11 -47.499h-44c-1.33301 6.66699 -2.33301 12.834 -3 18.501s-1 11.167 -1 16.5c0 29.333 8.66699 53 26 71s40.333 27 69 27c17.333 0 33.666 -3.5 48.999 -10.5s32 -18.5 50 -34.5c8 -7.33301 16 -14 24 -20s17.667 -9 29 -9
c12 0 20.833 4.5 26.5 13.5s8.5 24.167 8.5 45.5h44c1.33301 -6 2.33301 -12.167 3 -18.5s1 -12.166 1 -17.499c0 -28.667 -8.66699 -52 -26 -70s-40.333 -27 -69 -27z" />
    <glyph glyph-name="Ograve" unicode="&#xd2;" horiz-adv-x="708" 
d="M185 327c0 -36 3 -71.167 9 -105.5s15.833 -65 29.5 -92s31.167 -48.667 52.5 -65s47.333 -24.5 78 -24.5s56.667 8.16699 78 24.5s38.666 38 51.999 65s23.166 57.667 29.499 92s9.5 69.5 9.5 105.5s-3.16699 71.333 -9.5 106s-16.166 65.5 -29.499 92.5
s-30.666 48.667 -51.999 65s-47.333 24.5 -78 24.5s-56.667 -8.16699 -78 -24.5s-38.833 -38 -52.5 -65s-23.5 -57.833 -29.5 -92.5s-9 -70 -9 -106zM354 670c39.333 0 78.166 -7.16699 116.499 -21.5s72.833 -35.666 103.5 -63.999s55.334 -64 74.001 -107
s28 -93.167 28 -150.5s-9.33301 -107.333 -28 -150s-43.167 -78.167 -73.5 -106.5s-64.833 -49.666 -103.5 -63.999s-77.667 -21.5 -117 -21.5s-78.333 7.16699 -117 21.5s-73.167 35.666 -103.5 63.999s-54.833 63.833 -73.5 106.5s-28 92.667 -28 150
s9.33301 107.5 28 150.5s43.334 78.667 74.001 107s65.167 49.666 103.5 63.999s77.166 21.5 116.499 21.5zM435 702l-143.999 70c-22.667 11.333 -37.667 22 -45 32s-11 19.667 -11 29c0 12 4.5 22.5 13.5 31.5s20.5 13.5 34.5 13.5c10 0 20.167 -3 30.5 -9
s23.166 -16 38.499 -30l108 -103z" />
    <glyph glyph-name="Oacute" unicode="&#xd3;" horiz-adv-x="708" 
d="M185 327c0 -36 3 -71.167 9 -105.5s15.833 -65 29.5 -92s31.167 -48.667 52.5 -65s47.333 -24.5 78 -24.5s56.667 8.16699 78 24.5s38.666 38 51.999 65s23.166 57.667 29.499 92s9.5 69.5 9.5 105.5s-3.16699 71.333 -9.5 106s-16.166 65.5 -29.499 92.5
s-30.666 48.667 -51.999 65s-47.333 24.5 -78 24.5s-56.667 -8.16699 -78 -24.5s-38.833 -38 -52.5 -65s-23.5 -57.833 -29.5 -92.5s-9 -70 -9 -106zM354 670c39.333 0 78.166 -7.16699 116.499 -21.5s72.833 -35.666 103.5 -63.999s55.334 -64 74.001 -107
s28 -93.167 28 -150.5s-9.33301 -107.333 -28 -150s-43.167 -78.167 -73.5 -106.5s-64.833 -49.666 -103.5 -63.999s-77.667 -21.5 -117 -21.5s-78.333 7.16699 -117 21.5s-73.167 35.666 -103.5 63.999s-54.833 63.833 -73.5 106.5s-28 92.667 -28 150
s9.33301 107.5 28 150.5s43.334 78.667 74.001 107s65.167 49.666 103.5 63.999s77.166 21.5 116.499 21.5zM372 839c15.333 14 28.333 24 39 30s21 9 31 9c14 0 25.333 -4.5 34 -13.5s13 -19.5 13 -31.5c0 -9.33301 -3.66699 -19 -11 -29s-22.333 -20.667 -45 -32l-144 -70
l-25 34z" />
    <glyph glyph-name="Ocircumflex" unicode="&#xd4;" horiz-adv-x="708" 
d="M185 327c0 -36 3 -71.167 9 -105.5s15.833 -65 29.5 -92s31.167 -48.667 52.5 -65s47.333 -24.5 78 -24.5s56.667 8.16699 78 24.5s38.666 38 51.999 65s23.166 57.667 29.499 92s9.5 69.5 9.5 105.5s-3.16699 71.333 -9.5 106s-16.166 65.5 -29.499 92.5
s-30.666 48.667 -51.999 65s-47.333 24.5 -78 24.5s-56.667 -8.16699 -78 -24.5s-38.833 -38 -52.5 -65s-23.5 -57.833 -29.5 -92.5s-9 -70 -9 -106zM354 670c39.333 0 78.166 -7.16699 116.499 -21.5s72.833 -35.666 103.5 -63.999s55.334 -64 74.001 -107
s28 -93.167 28 -150.5s-9.33301 -107.333 -28 -150s-43.167 -78.167 -73.5 -106.5s-64.833 -49.666 -103.5 -63.999s-77.667 -21.5 -117 -21.5s-78.333 7.16699 -117 21.5s-73.167 35.666 -103.5 63.999s-54.833 63.833 -73.5 106.5s-28 92.667 -28 150
s9.33301 107.5 28 150.5s43.334 78.667 74.001 107s65.167 49.666 103.5 63.999s77.166 21.5 116.499 21.5zM494 693l-140 85l-140 -85l-27 33l139 141h56l139 -141z" />
    <glyph glyph-name="Otilde" unicode="&#xd5;" horiz-adv-x="708" 
d="M185 327c0 -36 3 -71.167 9 -105.5s15.833 -65 29.5 -92s31.167 -48.667 52.5 -65s47.333 -24.5 78 -24.5s56.667 8.16699 78 24.5s38.666 38 51.999 65s23.166 57.667 29.499 92s9.5 69.5 9.5 105.5s-3.16699 71.333 -9.5 106s-16.166 65.5 -29.499 92.5
s-30.666 48.667 -51.999 65s-47.333 24.5 -78 24.5s-56.667 -8.16699 -78 -24.5s-38.833 -38 -52.5 -65s-23.5 -57.833 -29.5 -92.5s-9 -70 -9 -106zM354 670c39.333 0 78.166 -7.16699 116.499 -21.5s72.833 -35.666 103.5 -63.999s55.334 -64 74.001 -107
s28 -93.167 28 -150.5s-9.33301 -107.333 -28 -150s-43.167 -78.167 -73.5 -106.5s-64.833 -49.666 -103.5 -63.999s-77.667 -21.5 -117 -21.5s-78.333 7.16699 -117 21.5s-73.167 35.666 -103.5 63.999s-54.833 63.833 -73.5 106.5s-28 92.667 -28 150
s9.33301 107.5 28 150.5s43.334 78.667 74.001 107s65.167 49.666 103.5 63.999s77.166 21.5 116.499 21.5zM424 710c-16.667 0 -33 3.49707 -49 10.4971s-32.667 18.833 -50 35.5c-7.33301 7.33301 -15.166 14 -23.499 20s-17.5 9 -27.5 9s-18.667 -4.16699 -26 -12.5
s-11 -24.166 -11 -47.499h-44c-1.33301 6.66699 -2.33301 12.834 -3 18.501s-1 11.167 -1 16.5c0 29.333 8.66699 53 26 71s40.333 27 69 27c17.333 0 33.666 -3.5 48.999 -10.5s32 -18.5 50 -34.5c8 -7.33301 16 -14 24 -20s17.667 -9 29 -9c12 0 20.833 4.5 26.5 13.5
s8.5 24.167 8.5 45.5h44c1.33301 -6 2.33301 -12.167 3 -18.5s1 -12.166 1 -17.499c0 -28.667 -8.66699 -52 -26 -70s-40.333 -27 -69 -27z" />
    <glyph glyph-name="Odieresis" unicode="&#xd6;" horiz-adv-x="708" 
d="M185 327c0 -36 3 -71.167 9 -105.5s15.833 -65 29.5 -92s31.167 -48.667 52.5 -65s47.333 -24.5 78 -24.5s56.667 8.16699 78 24.5s38.666 38 51.999 65s23.166 57.667 29.499 92s9.5 69.5 9.5 105.5s-3.16699 71.333 -9.5 106s-16.166 65.5 -29.499 92.5
s-30.666 48.667 -51.999 65s-47.333 24.5 -78 24.5s-56.667 -8.16699 -78 -24.5s-38.833 -38 -52.5 -65s-23.5 -57.833 -29.5 -92.5s-9 -70 -9 -106zM354 670c39.333 0 78.166 -7.16699 116.499 -21.5s72.833 -35.666 103.5 -63.999s55.334 -64 74.001 -107
s28 -93.167 28 -150.5s-9.33301 -107.333 -28 -150s-43.167 -78.167 -73.5 -106.5s-64.833 -49.666 -103.5 -63.999s-77.667 -21.5 -117 -21.5s-78.333 7.16699 -117 21.5s-73.167 35.666 -103.5 63.999s-54.833 63.833 -73.5 106.5s-28 92.667 -28 150
s9.33301 107.5 28 150.5s43.334 78.667 74.001 107s65.167 49.666 103.5 63.999s77.166 21.5 116.499 21.5zM232 719c-18.667 0 -34.834 6 -48.501 18s-20.5 27.333 -20.5 46s6.83301 34.167 20.5 46.5s29.834 18.5 48.501 18.5s34.667 -6.16699 48 -18.5
s20 -27.833 20 -46.5s-6.66699 -34 -20 -46s-29.333 -18 -48 -18zM476 719c-18.667 0 -34.667 6 -48 18s-20 27.333 -20 46s6.66699 34.167 20 46.5s29.333 18.5 48 18.5s34.834 -6.16699 48.501 -18.5s20.5 -27.833 20.5 -46.5s-6.83301 -34 -20.5 -46
s-29.834 -18 -48.501 -18z" />
    <glyph glyph-name="multiply" unicode="&#xd7;" horiz-adv-x="530" 
d="M319 325l175 -175l-54 -54l-175 175l-175 -175l-54 54l175 175l-175 175l54 54l175 -175l175 175l54 -54z" />
    <glyph glyph-name="Oslash" unicode="&#xd8;" horiz-adv-x="708" 
d="M223 130c13.333 -27.333 30.834 -49.167 52.501 -65.5s47.834 -24.5 78.501 -24.5s56.667 8.16699 78 24.5s38.666 38 51.999 65s23.166 57.667 29.499 92s9.5 69.5 9.5 105.5c0 47.333 -5 92 -15 134zM476.001 540.999c-13.333 22.667 -30 40.667 -50 54s-44 20 -72 20
c-30.667 0 -56.667 -8.16699 -78 -24.5s-38.833 -38 -52.5 -65s-23.5 -57.833 -29.5 -92.5s-9 -70 -9 -106c0 -19.333 0.833008 -38.333 2.5 -57s4.5 -37 8.5 -55zM595.001 561.999c24.667 -28 44.332 -61.501 58.999 -100.501s22 -83.833 22 -134.5
c0 -57.333 -9.33301 -107.333 -28 -150s-43.167 -78.167 -73.5 -106.5s-64.833 -49.666 -103.5 -63.999s-77.667 -21.5 -117 -21.5c-35.333 0 -70 5.5 -104 16.5s-65.333 27.833 -94 50.5l-62 -72l-58 50l65 76c-21.333 28 -38.166 60.333 -50.499 97s-18.5 78 -18.5 124
c0 57.333 9.33301 107.5 28 150.5s43.334 78.667 74.001 107s65.167 49.666 103.5 63.999s77.166 21.5 116.499 21.5c32 0 63.667 -4.66699 95 -14s61 -23.666 89 -42.999l49 57l58 -50z" />
    <glyph glyph-name="Ugrave" unicode="&#xd9;" horiz-adv-x="750" 
d="M730 605l-89.0029 -9v-313c0 -55.333 -6.66699 -102 -20 -140s-31.666 -68.667 -54.999 -92s-51.166 -40.166 -83.499 -50.499s-67.5 -15.5 -105.5 -15.5c-38.667 0 -74.167 5.16699 -106.5 15.5s-60 26.166 -83 47.499s-40.833 48.833 -53.5 82.5s-19 74.167 -19 121.5
v100v122c0 40.667 -0.666992 81.334 -2 122.001l-81 9v50h312v-50l-80 -8c-1.33301 -40.667 -2 -81.334 -2 -122.001v-123v-69c0 -39.333 3.5 -72.666 10.5 -99.999s17.333 -49.333 31 -66s30.334 -28.667 50.001 -36s42.167 -11 67.5 -11s48 3.66699 68 11
s36.833 19.333 50.5 36s24 38.667 31 66s10.5 60.666 10.5 99.999v313l-87 9v50h236v-50zM463.997 702l-143.999 70c-22.667 11.333 -37.667 22 -45 32s-11 19.667 -11 29c0 12 4.5 22.5 13.5 31.5s20.5 13.5 34.5 13.5c10 0 20.167 -3 30.5 -9s23.166 -16 38.499 -30
l108 -103z" />
    <glyph glyph-name="Uacute" unicode="&#xda;" horiz-adv-x="750" 
d="M730 605l-89.0029 -9v-313c0 -55.333 -6.66699 -102 -20 -140s-31.666 -68.667 -54.999 -92s-51.166 -40.166 -83.499 -50.499s-67.5 -15.5 -105.5 -15.5c-38.667 0 -74.167 5.16699 -106.5 15.5s-60 26.166 -83 47.499s-40.833 48.833 -53.5 82.5s-19 74.167 -19 121.5
v100v122c0 40.667 -0.666992 81.334 -2 122.001l-81 9v50h312v-50l-80 -8c-1.33301 -40.667 -2 -81.334 -2 -122.001v-123v-69c0 -39.333 3.5 -72.666 10.5 -99.999s17.333 -49.333 31 -66s30.334 -28.667 50.001 -36s42.167 -11 67.5 -11s48 3.66699 68 11
s36.833 19.333 50.5 36s24 38.667 31 66s10.5 60.666 10.5 99.999v313l-87 9v50h236v-50zM435.997 839c15.333 14 28.333 24 39 30s21 9 31 9c14 0 25.333 -4.5 34 -13.5s13 -19.5 13 -31.5c0 -9.33301 -3.66699 -19 -11 -29s-22.333 -20.667 -45 -32l-144 -70l-25 34z" />
    <glyph glyph-name="Ucircumflex" unicode="&#xdb;" horiz-adv-x="750" 
d="M730 605l-89.0029 -9v-313c0 -55.333 -6.66699 -102 -20 -140s-31.666 -68.667 -54.999 -92s-51.166 -40.166 -83.499 -50.499s-67.5 -15.5 -105.5 -15.5c-38.667 0 -74.167 5.16699 -106.5 15.5s-60 26.166 -83 47.499s-40.833 48.833 -53.5 82.5s-19 74.167 -19 121.5
v100v122c0 40.667 -0.666992 81.334 -2 122.001l-81 9v50h312v-50l-80 -8c-1.33301 -40.667 -2 -81.334 -2 -122.001v-123v-69c0 -39.333 3.5 -72.666 10.5 -99.999s17.333 -49.333 31 -66s30.334 -28.667 50.001 -36s42.167 -11 67.5 -11s48 3.66699 68 11
s36.833 19.333 50.5 36s24 38.667 31 66s10.5 60.666 10.5 99.999v313l-87 9v50h236v-50zM550.997 693l-140 85l-140 -85l-27 33l139 141h56l139 -141z" />
    <glyph glyph-name="Udieresis" unicode="&#xdc;" horiz-adv-x="750" 
d="M730 605l-89.0029 -9v-313c0 -55.333 -6.66699 -102 -20 -140s-31.666 -68.667 -54.999 -92s-51.166 -40.166 -83.499 -50.499s-67.5 -15.5 -105.5 -15.5c-38.667 0 -74.167 5.16699 -106.5 15.5s-60 26.166 -83 47.499s-40.833 48.833 -53.5 82.5s-19 74.167 -19 121.5
v100v122c0 40.667 -0.666992 81.334 -2 122.001l-81 9v50h312v-50l-80 -8c-1.33301 -40.667 -2 -81.334 -2 -122.001v-123v-69c0 -39.333 3.5 -72.666 10.5 -99.999s17.333 -49.333 31 -66s30.334 -28.667 50.001 -36s42.167 -11 67.5 -11s48 3.66699 68 11
s36.833 19.333 50.5 36s24 38.667 31 66s10.5 60.666 10.5 99.999v313l-87 9v50h236v-50zM295.997 719c-18.667 0 -34.834 6 -48.501 18s-20.5 27.333 -20.5 46s6.83301 34.167 20.5 46.5s29.834 18.5 48.501 18.5s34.667 -6.16699 48 -18.5s20 -27.833 20 -46.5
s-6.66699 -34 -20 -46s-29.333 -18 -48 -18zM539.997 719c-18.667 0 -34.667 6 -48 18s-20 27.333 -20 46s6.66699 34.167 20 46.5s29.333 18.5 48 18.5s34.834 -6.16699 48.501 -18.5s20.5 -27.833 20.5 -46.5s-6.83301 -34 -20.5 -46s-29.834 -18 -48.501 -18z" />
    <glyph glyph-name="Yacute" unicode="&#xdd;" horiz-adv-x="606" 
d="M376 293v-68v-47.5v-40.5c0 -12.667 0.166992 -25.167 0.5 -37.5s0.5 -25.5 0.5 -39.5l92 -10v-50h-332v50l92 10c0.666992 26.667 1 52 1 76v89v57l-163 316l-65 7v50h307v-50l-79 -9l116 -258l126 256l-80 11v50h212v-50l-74 -13zM362 839c15.333 14 28.333 24 39 30
s21 9 31 9c14 0 25.333 -4.5 34 -13.5s13 -19.5 13 -31.5c0 -9.33301 -3.66699 -19 -11 -29s-22.333 -20.667 -45 -32l-144 -70l-25 34z" />
    <glyph glyph-name="Thorn" unicode="&#xde;" horiz-adv-x="614" 
d="M302 199c53.333 0 92.333 13.167 117 39.5s37 60.833 37 103.5c0 44 -12.333 78 -37 102s-63 36 -115 36h-43v-281h41zM261 144c0 -14 0.167969 -28.002 0.500977 -42.002s0.5 -28 0.5 -42l92 -10v-50h-322v50l81 9c1.33301 41.333 2 82.833 2 124.5v126.5v35v125.5
c0 41.667 -0.666992 83.5 -2 125.5l-81 9v50h322v-50l-91 -10c-0.666992 -10 -1 -20 -1 -30s-0.333008 -20 -1 -30h51c99.333 0 171.166 -17 215.499 -51s66.5 -80.333 66.5 -139c0 -28 -4.5 -54.167 -13.5 -78.5s-25.167 -45.666 -48.5 -63.999
s-54.833 -32.666 -94.5 -42.999s-90.167 -15.5 -151.5 -15.5h-25z" />
    <glyph glyph-name="germandbls" unicode="&#xdf;" horiz-adv-x="628" 
d="M86 429c0 44 3.66797 80.834 11.001 110.501s16.666 55.834 27.999 78.501c22 44 53.167 75.333 93.5 94s86.166 28 137.499 28c60.667 0 108.667 -12.833 144 -38.5s53 -60.834 53 -105.501c0 -25.333 -6.33301 -47.166 -19 -65.499s-31.334 -36.833 -56.001 -55.5
c-19.333 -14.667 -32.833 -28 -40.5 -40s-11.5 -24.667 -11.5 -38c0 -7.33301 1.33301 -14 4 -20s7.33398 -12.167 14.001 -18.5s15.834 -13.666 27.501 -21.999l44.5 -31.5c18.667 -13.333 34 -26 46 -38s21.5 -24 28.5 -36s11.667 -24.167 14 -36.5s3.5 -25.5 3.5 -39.5
c0 -28.667 -4.83301 -53.667 -14.5 -75s-22.834 -39 -39.501 -53s-36.167 -24.5 -58.5 -31.5s-45.833 -10.5 -70.5 -10.5c-26 0 -51.333 3.66699 -76 11s-49.334 17.666 -74.001 30.999v115h74l12 -89c25.333 -10.667 47.333 -16 66 -16c20.667 0 36.667 6.16699 48 18.5
s17 29.166 17 50.499c0 18 -4.83301 34.833 -14.5 50.5s-28.5 33.167 -56.5 52.5l-48 34.5c-14 10.333 -25.5 20.833 -34.5 31.5s-15.833 21.667 -20.5 33s-7 24.666 -7 39.999c0 12.667 1.5 24 4.5 34s7.83301 20 14.5 30s14.834 20.167 24.501 30.5l35.5 36.5
c18 18 30.667 36.833 38 56.5s11 38.5 11 56.5c0 28 -8.5 51.333 -25.5 70s-40.833 28 -71.5 28c-26.667 0 -50.167 -6.83301 -70.5 -20.5s-34.166 -36.167 -41.499 -67.5c-5.33301 -21.333 -8 -48.333 -8 -81v-109v-202c0 -70 1 -140 3 -210h-201v44l60 12
c0.666992 25.333 1.16699 51 1.5 77s0.5 51.667 0.5 77v219z" />
    <glyph glyph-name="agrave" unicode="&#xe0;" horiz-adv-x="534" 
d="M317 258c-12.667 -3.33301 -24.501 -6.83496 -35.501 -10.502s-20.5 -7.16699 -28.5 -10.5c-29.333 -11.333 -49.666 -25.666 -60.999 -42.999s-17 -36.666 -17 -57.999c0 -13.333 1.83301 -24 5.5 -32s8.16699 -14.667 13.5 -20c14 -14 32.667 -21 56 -21
c10.667 0 21 1.83301 31 5.5s22 10.5 36 20.5v169zM538.999 62.998c-13.333 -27.333 -28.498 -46.3271 -45.498 -56.9941s-38.167 -16 -63.5 -16c-27.333 0 -50 5.33301 -68 16s-30.667 24.667 -38 42c-22.667 -20.667 -44.5 -36.334 -65.5 -47.001s-47.167 -16 -78.5 -16
c-40 0 -72.5 10.167 -97.5 30.5s-37.5 50.166 -37.5 89.499c0 15.333 2.5 30.5 7.5 45.5s14.333 29.667 28 44s32.5 28.166 56.5 41.499s55 26.333 93 39c11.333 4 24.666 8.16699 39.999 12.5l47 13.5v30c0 42 -6.33301 72 -19 90s-35 27 -67 27
c-5.33301 0 -10.5 -0.166992 -15.5 -0.5s-10.167 -0.833008 -15.5 -1.5l-8 -58c-3.33301 -26 -11.333 -45.333 -24 -58s-27.667 -19 -45 -19c-15.333 0 -28.5 4.66699 -39.5 14s-18.167 21.666 -21.5 36.999c4.66699 39.333 25.667 71.833 63 97.5s88 38.5 152 38.5
c31.333 0 58.166 -3.5 80.499 -10.5s40.5 -18.333 54.5 -34s24.333 -36.334 31 -62.001s10 -57.167 10 -94.5v-206c0 -10.667 2 -19.334 6 -26.001s10.333 -10 19 -10c6.66699 0 12 2 16 6s8.66699 9 14 15l5 6zM330.001 543.004l-95.002 77
c-29.333 23.333 -49.166 41.833 -59.499 55.5s-15.5 26.834 -15.5 39.501c0 15.333 5 27.166 15 35.499s22 12.5 36 12.5c16.667 0 31.834 -6.83301 45.501 -20.5s30.167 -37.5 49.5 -71.5l58 -101z" />
    <glyph glyph-name="aacute" unicode="&#xe1;" horiz-adv-x="534" 
d="M317 258c-12.667 -3.33301 -24.501 -6.83496 -35.501 -10.502s-20.5 -7.16699 -28.5 -10.5c-29.333 -11.333 -49.666 -25.666 -60.999 -42.999s-17 -36.666 -17 -57.999c0 -13.333 1.83301 -24 5.5 -32s8.16699 -14.667 13.5 -20c14 -14 32.667 -21 56 -21
c10.667 0 21 1.83301 31 5.5s22 10.5 36 20.5v169zM538.999 62.998c-13.333 -27.333 -28.498 -46.3271 -45.498 -56.9941s-38.167 -16 -63.5 -16c-27.333 0 -50 5.33301 -68 16s-30.667 24.667 -38 42c-22.667 -20.667 -44.5 -36.334 -65.5 -47.001s-47.167 -16 -78.5 -16
c-40 0 -72.5 10.167 -97.5 30.5s-37.5 50.166 -37.5 89.499c0 15.333 2.5 30.5 7.5 45.5s14.333 29.667 28 44s32.5 28.166 56.5 41.499s55 26.333 93 39c11.333 4 24.666 8.16699 39.999 12.5l47 13.5v30c0 42 -6.33301 72 -19 90s-35 27 -67 27
c-5.33301 0 -10.5 -0.166992 -15.5 -0.5s-10.167 -0.833008 -15.5 -1.5l-8 -58c-3.33301 -26 -11.333 -45.333 -24 -58s-27.667 -19 -45 -19c-15.333 0 -28.5 4.66699 -39.5 14s-18.167 21.666 -21.5 36.999c4.66699 39.333 25.667 71.833 63 97.5s88 38.5 152 38.5
c31.333 0 58.166 -3.5 80.499 -10.5s40.5 -18.333 54.5 -34s24.333 -36.334 31 -62.001s10 -57.167 10 -94.5v-206c0 -10.667 2 -19.334 6 -26.001s10.333 -10 19 -10c6.66699 0 12 2 16 6s8.66699 9 14 15l5 6zM255.001 671.004c19.333 34 36.002 57.8311 50.002 71.498
s29.333 20.5 46 20.5c14 0 25.833 -4.16699 35.5 -12.5s14.5 -20.166 14.5 -35.499c0 -6.66699 -1.16699 -13.167 -3.5 -19.5s-6.33301 -13.166 -12 -20.499s-13.334 -15.333 -23.001 -24s-21.834 -19 -36.501 -31l-95 -77l-34 27z" />
    <glyph glyph-name="acircumflex" unicode="&#xe2;" horiz-adv-x="534" 
d="M317 258c-12.667 -3.33301 -24.501 -6.83496 -35.501 -10.502s-20.5 -7.16699 -28.5 -10.5c-29.333 -11.333 -49.666 -25.666 -60.999 -42.999s-17 -36.666 -17 -57.999c0 -13.333 1.83301 -24 5.5 -32s8.16699 -14.667 13.5 -20c14 -14 32.667 -21 56 -21
c10.667 0 21 1.83301 31 5.5s22 10.5 36 20.5v169zM538.999 62.998c-13.333 -27.333 -28.498 -46.3271 -45.498 -56.9941s-38.167 -16 -63.5 -16c-27.333 0 -50 5.33301 -68 16s-30.667 24.667 -38 42c-22.667 -20.667 -44.5 -36.334 -65.5 -47.001s-47.167 -16 -78.5 -16
c-40 0 -72.5 10.167 -97.5 30.5s-37.5 50.166 -37.5 89.499c0 15.333 2.5 30.5 7.5 45.5s14.333 29.667 28 44s32.5 28.166 56.5 41.499s55 26.333 93 39c11.333 4 24.666 8.16699 39.999 12.5l47 13.5v30c0 42 -6.33301 72 -19 90s-35 27 -67 27
c-5.33301 0 -10.5 -0.166992 -15.5 -0.5s-10.167 -0.833008 -15.5 -1.5l-8 -58c-3.33301 -26 -11.333 -45.333 -24 -58s-27.667 -19 -45 -19c-15.333 0 -28.5 4.66699 -39.5 14s-18.167 21.666 -21.5 36.999c4.66699 39.333 25.667 71.833 63 97.5s88 38.5 152 38.5
c31.333 0 58.166 -3.5 80.499 -10.5s40.5 -18.333 54.5 -34s24.333 -36.334 31 -62.001s10 -57.167 10 -94.5v-206c0 -10.667 2 -19.334 6 -26.001s10.333 -10 19 -10c6.66699 0 12 2 16 6s8.66699 9 14 15l5 6zM400.001 553.004l-131 103l-131 -103l-32 30l136 170h54
l136 -170z" />
    <glyph glyph-name="atilde" unicode="&#xe3;" horiz-adv-x="534" 
d="M317 258c-12.667 -3.33301 -24.501 -6.83496 -35.501 -10.502s-20.5 -7.16699 -28.5 -10.5c-29.333 -11.333 -49.666 -25.666 -60.999 -42.999s-17 -36.666 -17 -57.999c0 -13.333 1.83301 -24 5.5 -32s8.16699 -14.667 13.5 -20c14 -14 32.667 -21 56 -21
c10.667 0 21 1.83301 31 5.5s22 10.5 36 20.5v169zM538.999 62.998c-13.333 -27.333 -28.498 -46.3271 -45.498 -56.9941s-38.167 -16 -63.5 -16c-27.333 0 -50 5.33301 -68 16s-30.667 24.667 -38 42c-22.667 -20.667 -44.5 -36.334 -65.5 -47.001s-47.167 -16 -78.5 -16
c-40 0 -72.5 10.167 -97.5 30.5s-37.5 50.166 -37.5 89.499c0 15.333 2.5 30.5 7.5 45.5s14.333 29.667 28 44s32.5 28.166 56.5 41.499s55 26.333 93 39c11.333 4 24.666 8.16699 39.999 12.5l47 13.5v30c0 42 -6.33301 72 -19 90s-35 27 -67 27
c-5.33301 0 -10.5 -0.166992 -15.5 -0.5s-10.167 -0.833008 -15.5 -1.5l-8 -58c-3.33301 -26 -11.333 -45.333 -24 -58s-27.667 -19 -45 -19c-15.333 0 -28.5 4.66699 -39.5 14s-18.167 21.666 -21.5 36.999c4.66699 39.333 25.667 71.833 63 97.5s88 38.5 152 38.5
c31.333 0 58.166 -3.5 80.499 -10.5s40.5 -18.333 54.5 -34s24.333 -36.334 31 -62.001s10 -57.167 10 -94.5v-206c0 -10.667 2 -19.334 6 -26.001s10.333 -10 19 -10c6.66699 0 12 2 16 6s8.66699 9 14 15l5 6zM344.001 560.004c-19.333 0 -35.6631 4 -48.9961 12
s-28.666 20.333 -45.999 37l-21.5 24.5c-7 8.33301 -16.167 12.5 -27.5 12.5c-10.667 0 -19.334 -5 -26.001 -15s-10 -28.333 -10 -55h-44c-2.66699 13.333 -4 26.333 -4 39c0 31.333 9 57.333 27 78s43 31 75 31c19.333 0 35.666 -4 48.999 -12s28.666 -20.667 45.999 -38
c7.33301 -7.33301 14.666 -15.166 21.999 -23.499s16.666 -12.5 27.999 -12.5c10 0 18.333 5 25 15s10 28.333 10 55h44c1.33301 -7.33301 2.33301 -14.333 3 -21s1 -13 1 -19c0 -30.667 -9 -56.334 -27 -77.001s-43 -31 -75 -31z" />
    <glyph glyph-name="adieresis" unicode="&#xe4;" horiz-adv-x="534" 
d="M317 258c-12.667 -3.33301 -24.501 -6.83496 -35.501 -10.502s-20.5 -7.16699 -28.5 -10.5c-29.333 -11.333 -49.666 -25.666 -60.999 -42.999s-17 -36.666 -17 -57.999c0 -13.333 1.83301 -24 5.5 -32s8.16699 -14.667 13.5 -20c14 -14 32.667 -21 56 -21
c10.667 0 21 1.83301 31 5.5s22 10.5 36 20.5v169zM538.999 62.998c-13.333 -27.333 -28.498 -46.3271 -45.498 -56.9941s-38.167 -16 -63.5 -16c-27.333 0 -50 5.33301 -68 16s-30.667 24.667 -38 42c-22.667 -20.667 -44.5 -36.334 -65.5 -47.001s-47.167 -16 -78.5 -16
c-40 0 -72.5 10.167 -97.5 30.5s-37.5 50.166 -37.5 89.499c0 15.333 2.5 30.5 7.5 45.5s14.333 29.667 28 44s32.5 28.166 56.5 41.499s55 26.333 93 39c11.333 4 24.666 8.16699 39.999 12.5l47 13.5v30c0 42 -6.33301 72 -19 90s-35 27 -67 27
c-5.33301 0 -10.5 -0.166992 -15.5 -0.5s-10.167 -0.833008 -15.5 -1.5l-8 -58c-3.33301 -26 -11.333 -45.333 -24 -58s-27.667 -19 -45 -19c-15.333 0 -28.5 4.66699 -39.5 14s-18.167 21.666 -21.5 36.999c4.66699 39.333 25.667 71.833 63 97.5s88 38.5 152 38.5
c31.333 0 58.166 -3.5 80.499 -10.5s40.5 -18.333 54.5 -34s24.333 -36.334 31 -62.001s10 -57.167 10 -94.5v-206c0 -10.667 2 -19.334 6 -26.001s10.333 -10 19 -10c6.66699 0 12 2 16 6s8.66699 9 14 15l5 6zM378.001 581.004c-18.667 0 -34.667 6 -48 18
s-20 27.333 -20 46s6.66699 34.334 20 47.001s29.333 19 48 19s34.834 -6.33301 48.501 -19s20.5 -28.334 20.5 -47.001s-6.83301 -34 -20.5 -46s-29.834 -18 -48.501 -18zM150.001 581.004c-18.667 0 -34.834 6 -48.501 18s-20.5 27.333 -20.5 46
s6.83301 34.334 20.5 47.001s29.834 19 48.501 19s34.667 -6.33301 48 -19s20 -28.334 20 -47.001s-6.66699 -34 -20 -46s-29.333 -18 -48 -18z" />
    <glyph glyph-name="aring" unicode="&#xe5;" horiz-adv-x="534" 
d="M317 258c-12.667 -3.33301 -24.501 -6.83496 -35.501 -10.502s-20.5 -7.16699 -28.5 -10.5c-29.333 -11.333 -49.666 -25.666 -60.999 -42.999s-17 -36.666 -17 -57.999c0 -13.333 1.83301 -24 5.5 -32s8.16699 -14.667 13.5 -20c14 -14 32.667 -21 56 -21
c10.667 0 21 1.83301 31 5.5s22 10.5 36 20.5v169zM538.999 62.998c-13.333 -27.333 -28.498 -46.3271 -45.498 -56.9941s-38.167 -16 -63.5 -16c-27.333 0 -50 5.33301 -68 16s-30.667 24.667 -38 42c-22.667 -20.667 -44.5 -36.334 -65.5 -47.001s-47.167 -16 -78.5 -16
c-40 0 -72.5 10.167 -97.5 30.5s-37.5 50.166 -37.5 89.499c0 15.333 2.5 30.5 7.5 45.5s14.333 29.667 28 44s32.5 28.166 56.5 41.499s55 26.333 93 39c11.333 4 24.666 8.16699 39.999 12.5l47 13.5v30c0 42 -6.33301 72 -19 90s-35 27 -67 27
c-5.33301 0 -10.5 -0.166992 -15.5 -0.5s-10.167 -0.833008 -15.5 -1.5l-8 -58c-3.33301 -26 -11.333 -45.333 -24 -58s-27.667 -19 -45 -19c-15.333 0 -28.5 4.66699 -39.5 14s-18.167 21.666 -21.5 36.999c4.66699 39.333 25.667 71.833 63 97.5s88 38.5 152 38.5
c31.333 0 58.166 -3.5 80.499 -10.5s40.5 -18.333 54.5 -34s24.333 -36.334 31 -62.001s10 -57.167 10 -94.5v-206c0 -10.667 2 -19.334 6 -26.001s10.333 -10 19 -10c6.66699 0 12 2 16 6s8.66699 9 14 15l5 6zM262.001 587.004c19.333 0 34.166 6.66699 44.499 20
s15.5 27.666 15.5 42.999c0 16 -5.16699 30.5 -15.5 43.5s-25.166 19.5 -44.499 19.5s-34.166 -6.5 -44.499 -19.5s-15.5 -27.5 -15.5 -43.5c0 -15.333 5.16699 -29.666 15.5 -42.999s25.166 -20 44.499 -20zM262.001 539.004c-16 0 -31 2.50195 -45 7.50195
s-26.333 12.167 -37 21.5s-19.167 20.833 -25.5 34.5s-9.5 29.5 -9.5 47.5c0 17.333 3.16699 32.833 9.5 46.5s14.833 25.334 25.5 35.001s23 17 37 22s29 7.5 45 7.5s31 -2.33301 45 -7s26.333 -11.834 37 -21.501s19.167 -21.334 25.5 -35.001s9.5 -29.5 9.5 -47.5
c0 -17.333 -3.16699 -32.833 -9.5 -46.5s-14.833 -25.334 -25.5 -35.001s-23 -17 -37 -22s-29 -7.5 -45 -7.5z" />
    <glyph glyph-name="ae" unicode="&#xe6;" horiz-adv-x="804" 
d="M339 106c-8.66699 17.333 -15.333 36.665 -20 57.998s-7 44.333 -7 69v12c0 4 0.333008 8 1 12c-24.667 -7.33301 -44.667 -14 -60 -20c-29.333 -11.333 -49.666 -25.666 -60.999 -42.999s-17 -36.666 -17 -57.999c0 -13.333 1.83301 -24 5.5 -32
s8.16699 -14.667 13.5 -20c14 -14 32.667 -21 56 -21c12 0 23.667 2.33301 35 7s25.666 13.667 42.999 27zM578.001 284.999c24 0 40.501 5.16797 49.501 15.501s13.5 26.166 13.5 47.499c0 34.667 -7.33301 60 -22 76s-31.667 24 -51 24c-10.667 0 -22 -2.66699 -34 -8
s-23.167 -14.333 -33.5 -27s-19.333 -29.5 -27 -50.5s-12.834 -46.833 -15.501 -77.5h120zM457.002 235c2 -59.333 16.502 -102.831 43.502 -130.498s60.833 -41.5 101.5 -41.5c29.333 0 53.5 6.5 72.5 19.5s36.167 31.5 51.5 55.5l34 -19
c-13.333 -44 -38.333 -77.333 -75 -100s-80.334 -34 -131.001 -34c-42 0 -79.5 7.5 -112.5 22.5s-60.167 36.5 -81.5 64.5l-23 -20c-14 -12 -26.833 -22.167 -38.5 -30.5s-23.167 -15.333 -34.5 -21s-23 -9.66699 -35 -12s-25.333 -3.5 -40 -3.5c-44 0 -79 10.167 -105 30.5
s-39 50.166 -39 89.499c0 15.333 2.5 30.5 7.5 45.5s14.333 29.667 28 44s32.5 28.166 56.5 41.499s55 26.333 93 39c11.333 4 24.666 8.16699 39.999 12.5l47 13.5v30c0 44.667 -6.33301 75.334 -19 92.001s-32.334 25 -59.001 25c-6.66699 0 -13.167 -0.166992 -19.5 -0.5
s-12.833 -0.833008 -19.5 -1.5l-7 -52c-6.66699 -54.667 -30.334 -82 -71.001 -82c-18 0 -31.667 4.66699 -41 14s-15.666 20.666 -18.999 33.999c4.66699 40 24.834 73 60.501 99s84.5 39 146.5 39c38 0 69.167 -5.33301 93.5 -16s43.5 -25 57.5 -43
c20 20.667 42.167 35.667 66.5 45s50.5 14 78.5 14c31.333 0 59.666 -5.16699 84.999 -15.5s46.833 -24.833 64.5 -43.5s31.334 -41 41.001 -67s14.5 -54.333 14.5 -85c0 -18.667 -2 -36 -6 -52h-307z" />
    <glyph glyph-name="ccedilla" unicode="&#xe7;" horiz-adv-x="510" 
d="M479 119c-12 -43.333 -36.334 -76.5049 -73.001 -99.5049s-80 -34.5 -130 -34.5c-36.667 0 -69.834 5.66699 -99.501 17s-55 27.833 -76 49.5s-37.167 48.334 -48.5 80.001s-17 67.834 -17 108.501c0 40 6.83301 76 20.5 108s32.167 59.167 55.5 81.5
s50.5 39.333 81.5 51s64.167 17.5 99.5 17.5c26.667 0 51.5 -3.66699 74.5 -11s42.833 -17.166 59.5 -29.499s29.834 -27.166 39.501 -44.499s14.5 -36 14.5 -56c-7.33301 -32 -27 -48 -59 -48c-18.667 0 -34.667 6.16699 -48 18.5s-20.666 33.5 -21.999 63.5l-3 53
c-5.33301 1.33301 -10.5 2.33301 -15.5 3s-10.167 1 -15.5 1c-18.667 0 -36.334 -4.16699 -53.001 -12.5s-31.167 -20.666 -43.5 -36.999s-22.166 -36.5 -29.499 -60.5s-11 -51.667 -11 -83c0 -65.333 13.667 -113.666 41 -144.999s62 -47 104 -47
c26.667 0 49.5 6.16699 68.5 18.5s36.167 31.166 51.5 56.499zM287.999 -54.0049c64 -11.333 96 -39.665 96 -84.998c0 -29.333 -11 -51.833 -33 -67.5s-52.667 -23.5 -92 -23.5c-15.333 0 -29 1 -41 3s-22.667 4.33301 -32 7l10 43c8.66699 -1.33301 17.167 -2.5 25.5 -3.5
s17.833 -1.5 28.5 -1.5c17.333 0 30.333 3.66699 39 11s13 17.666 13 30.999c0 15.333 -5.83301 26.166 -17.5 32.499s-28.167 10.5 -49.5 12.5l14 103h46z" />
    <glyph glyph-name="egrave" unicode="&#xe8;" horiz-adv-x="527" 
d="M301 285c24 0 40.5 5 49.5 15s13.5 25.667 13.5 47c0 32 -6.66699 56.833 -20 74.5s-30.666 26.5 -51.999 26.5c-11.333 0 -23 -2.66699 -35 -8s-23.167 -14.333 -33.5 -27s-19.333 -29.5 -27 -50.5s-12.834 -46.833 -15.501 -77.5h120zM180 235
c2 -59.333 16.501 -102.835 43.501 -130.502s60.833 -41.5 101.5 -41.5c29.333 0 53.5 6.5 72.5 19.5s36.167 31.5 51.5 55.5l34 -19c-13.333 -44 -38.333 -77.333 -75 -100s-80.334 -34 -131.001 -34c-36 0 -69 5.66699 -99 17s-55.5 27.833 -76.5 49.5
s-37.333 48.334 -49 80.001s-17.5 67.834 -17.5 108.501c0 38 6.33301 72.667 19 104s30.167 58.5 52.5 81.5s48.833 40.833 79.5 53.5s63.667 19 99 19c32 0 60.833 -5.16699 86.5 -15.5s47.5 -24.833 65.5 -43.5s31.833 -41 41.5 -67s14.5 -54.333 14.5 -85
c0 -18.667 -2 -36 -6 -52h-307zM328.001 542.998l-95.002 77c-29.333 23.333 -49.166 41.833 -59.499 55.5s-15.5 26.834 -15.5 39.501c0 15.333 5 27.166 15 35.499s22 12.5 36 12.5c16.667 0 31.834 -6.83301 45.501 -20.5s30.167 -37.5 49.5 -71.5l58 -101z" />
    <glyph glyph-name="eacute" unicode="&#xe9;" horiz-adv-x="527" 
d="M301 285c24 0 40.5 5 49.5 15s13.5 25.667 13.5 47c0 32 -6.66699 56.833 -20 74.5s-30.666 26.5 -51.999 26.5c-11.333 0 -23 -2.66699 -35 -8s-23.167 -14.333 -33.5 -27s-19.333 -29.5 -27 -50.5s-12.834 -46.833 -15.501 -77.5h120zM180 235
c2 -59.333 16.501 -102.835 43.501 -130.502s60.833 -41.5 101.5 -41.5c29.333 0 53.5 6.5 72.5 19.5s36.167 31.5 51.5 55.5l34 -19c-13.333 -44 -38.333 -77.333 -75 -100s-80.334 -34 -131.001 -34c-36 0 -69 5.66699 -99 17s-55.5 27.833 -76.5 49.5
s-37.333 48.334 -49 80.001s-17.5 67.834 -17.5 108.501c0 38 6.33301 72.667 19 104s30.167 58.5 52.5 81.5s48.833 40.833 79.5 53.5s63.667 19 99 19c32 0 60.833 -5.16699 86.5 -15.5s47.5 -24.833 65.5 -43.5s31.833 -41 41.5 -67s14.5 -54.333 14.5 -85
c0 -18.667 -2 -36 -6 -52h-307zM265.001 670.998c19.333 34 36.002 57.8311 50.002 71.498s29.333 20.5 46 20.5c14 0 25.833 -4.16699 35.5 -12.5s14.5 -20.166 14.5 -35.499c0 -6.66699 -1.16699 -13.167 -3.5 -19.5s-6.33301 -13.166 -12 -20.499
s-13.334 -15.333 -23.001 -24s-21.834 -19 -36.501 -31l-95 -77l-34 27z" />
    <glyph glyph-name="ecircumflex" unicode="&#xea;" horiz-adv-x="527" 
d="M301 285c24 0 40.5 5 49.5 15s13.5 25.667 13.5 47c0 32 -6.66699 56.833 -20 74.5s-30.666 26.5 -51.999 26.5c-11.333 0 -23 -2.66699 -35 -8s-23.167 -14.333 -33.5 -27s-19.333 -29.5 -27 -50.5s-12.834 -46.833 -15.501 -77.5h120zM180 235
c2 -59.333 16.501 -102.835 43.501 -130.502s60.833 -41.5 101.5 -41.5c29.333 0 53.5 6.5 72.5 19.5s36.167 31.5 51.5 55.5l34 -19c-13.333 -44 -38.333 -77.333 -75 -100s-80.334 -34 -131.001 -34c-36 0 -69 5.66699 -99 17s-55.5 27.833 -76.5 49.5
s-37.333 48.334 -49 80.001s-17.5 67.834 -17.5 108.501c0 38 6.33301 72.667 19 104s30.167 58.5 52.5 81.5s48.833 40.833 79.5 53.5s63.667 19 99 19c32 0 60.833 -5.16699 86.5 -15.5s47.5 -24.833 65.5 -43.5s31.833 -41 41.5 -67s14.5 -54.333 14.5 -85
c0 -18.667 -2 -36 -6 -52h-307zM416.001 552.998l-131 103l-131 -103l-32 30l136 170h54l136 -170z" />
    <glyph glyph-name="edieresis" unicode="&#xeb;" horiz-adv-x="527" 
d="M301 285c24 0 40.5 5 49.5 15s13.5 25.667 13.5 47c0 32 -6.66699 56.833 -20 74.5s-30.666 26.5 -51.999 26.5c-11.333 0 -23 -2.66699 -35 -8s-23.167 -14.333 -33.5 -27s-19.333 -29.5 -27 -50.5s-12.834 -46.833 -15.501 -77.5h120zM180 235
c2 -59.333 16.501 -102.835 43.501 -130.502s60.833 -41.5 101.5 -41.5c29.333 0 53.5 6.5 72.5 19.5s36.167 31.5 51.5 55.5l34 -19c-13.333 -44 -38.333 -77.333 -75 -100s-80.334 -34 -131.001 -34c-36 0 -69 5.66699 -99 17s-55.5 27.833 -76.5 49.5
s-37.333 48.334 -49 80.001s-17.5 67.834 -17.5 108.501c0 38 6.33301 72.667 19 104s30.167 58.5 52.5 81.5s48.833 40.833 79.5 53.5s63.667 19 99 19c32 0 60.833 -5.16699 86.5 -15.5s47.5 -24.833 65.5 -43.5s31.833 -41 41.5 -67s14.5 -54.333 14.5 -85
c0 -18.667 -2 -36 -6 -52h-307zM395.001 580.998c-18.667 0 -34.667 6 -48 18s-20 27.333 -20 46s6.66699 34.334 20 47.001s29.333 19 48 19s34.834 -6.33301 48.501 -19s20.5 -28.334 20.5 -47.001s-6.83301 -34 -20.5 -46s-29.834 -18 -48.501 -18zM167.001 580.998
c-18.667 0 -34.834 6 -48.501 18s-20.5 27.333 -20.5 46s6.83301 34.334 20.5 47.001s29.834 19 48.501 19s34.667 -6.33301 48 -19s20 -28.334 20 -47.001s-6.66699 -34 -20 -46s-29.333 -18 -48 -18z" />
    <glyph glyph-name="igrave" unicode="&#xec;" horiz-adv-x="309" 
d="M294 44v-43.999h-256v44l61 12c0.666992 25.333 1 52 1 80v74v50c0 27.333 -0.333008 50.166 -1 68.499l-2 57.5l-67 9v38l194 65l15 -10l-3 -143v-135v-74.5c0 -28.333 0.333008 -54.833 1 -79.5zM182 543.001l-95.002 77c-29.333 23.333 -49.166 41.833 -59.499 55.5
s-15.5 26.834 -15.5 39.501c0 15.333 5 27.166 15 35.499s22 12.5 36 12.5c16.667 0 31.834 -6.83301 45.501 -20.5s30.167 -37.5 49.5 -71.5l58 -101z" />
    <glyph glyph-name="iacute" unicode="&#xed;" horiz-adv-x="309" 
d="M294 44v-43.999h-256v44l61 12c0.666992 25.333 1 52 1 80v74v50c0 27.333 -0.333008 50.166 -1 68.499l-2 57.5l-67 9v38l194 65l15 -10l-3 -143v-135v-74.5c0 -28.333 0.333008 -54.833 1 -79.5zM142 671.001c19.333 34 36.002 57.8311 50.002 71.498
s29.333 20.5 46 20.5c14 0 25.833 -4.16699 35.5 -12.5s14.5 -20.166 14.5 -35.499c0 -6.66699 -1.16699 -13.167 -3.5 -19.5s-6.33301 -13.166 -12 -20.499s-13.334 -15.333 -23.001 -24s-21.834 -19 -36.501 -31l-95 -77l-34 27z" />
    <glyph glyph-name="icircumflex" unicode="&#xee;" horiz-adv-x="309" 
d="M294 44v-43.999h-256v44l61 12c0.666992 25.333 1 52 1 80v74v50c0 27.333 -0.333008 50.166 -1 68.499l-2 57.5l-67 9v38l194 65l15 -10l-3 -143v-135v-74.5c0 -28.333 0.333008 -54.833 1 -79.5zM308 553.001l-131 103l-131 -103l-32 30l136 170h54l136 -170z" />
    <glyph glyph-name="idieresis" unicode="&#xef;" horiz-adv-x="309" 
d="M294 44v-43.999h-256v44l61 12c0.666992 25.333 1 52 1 80v74v50c0 27.333 -0.333008 50.166 -1 68.499l-2 57.5l-67 9v38l194 65l15 -10l-3 -143v-135v-74.5c0 -28.333 0.333008 -54.833 1 -79.5zM282 581.001c-18.667 0 -34.667 6 -48 18s-20 27.333 -20 46
s6.66699 34.334 20 47.001s29.333 19 48 19s34.834 -6.33301 48.501 -19s20.5 -28.334 20.5 -47.001s-6.83301 -34 -20.5 -46s-29.834 -18 -48.501 -18zM54 581.001c-18.667 0 -34.834 6 -48.501 18s-20.5 27.333 -20.5 46s6.83301 34.334 20.5 47.001s29.834 19 48.501 19
s34.667 -6.33301 48 -19s20 -28.334 20 -47.001s-6.66699 -34 -20 -46s-29.333 -18 -48 -18z" />
    <glyph glyph-name="eth" unicode="&#xf0;" horiz-adv-x="545" 
d="M274 35c31.333 0 55.5 16.666 72.5 49.999s25.5 83.333 25.5 150c0 64.667 -8.5 113.334 -25.5 146.001s-41.167 49 -72.5 49s-55.5 -16.5 -72.5 -49.5s-25.5 -82.833 -25.5 -149.5c0 -64.667 8.5 -113.5 25.5 -146.5s41.167 -49.5 72.5 -49.5zM360 614.999
c46 -42.667 82.1689 -92.3281 108.502 -148.995s39.5 -119.334 39.5 -188.001c0 -50.667 -6.5 -94.334 -19.5 -131.001s-30.667 -67 -53 -91s-48.333 -41.833 -78 -53.5s-60.834 -17.5 -93.501 -17.5c-28.667 0 -56.667 5.16699 -84 15.5s-51.666 25.5 -72.999 45.5
s-38.5 45.167 -51.5 75.5s-19.5 65.5 -19.5 105.5c0 41.333 6.5 77.666 19.5 108.999s30.167 57.666 51.5 78.999s45.666 37.5 72.999 48.5s55 16.5 83 16.5c34 0 62.667 -8.33301 86 -25c-18 48 -40.333 88 -67 120l-131 -67l-31 61l109 56
c-28.667 21.333 -64 42.666 -106 63.999l25 51c57.333 -20.667 108.666 -46.667 153.999 -78l151 78l31 -61z" />
    <glyph glyph-name="ntilde" unicode="&#xf1;" horiz-adv-x="624" 
d="M602 44l-0.00292969 -43.999h-256v44l61 12c0.666992 24.667 1 51 1 79v75v96c0 38 -4 65.833 -12 83.5s-23.667 26.5 -47 26.5c-19.333 0 -38.166 -5.16699 -56.499 -15.5s-37.166 -24.833 -56.499 -43.5v-147v-74.5c0 -28.333 0.333008 -54.833 1 -79.5l57 -12v-44
h-256v44l61 12c0.666992 25.333 1 52 1 80v74v57v36.5c0 10.333 -0.166992 20 -0.5 29l-1 26c-0.333008 8.33301 -0.833008 17.5 -1.5 27.5l-67 9v38l181 65l15 -10l7 -79c14 16 27.167 29.5 39.5 40.5s24.833 20.167 37.5 27.5s25.834 12.666 39.501 15.999
s29.167 5 46.5 5c48 0 84.667 -14.167 110 -42.5s38 -72.833 38 -133.5v-112v-75.5c0 -28.333 0.333008 -54.5 1 -78.5zM378.997 560.001c-19.333 0 -35.6631 4 -48.9961 12s-28.666 20.333 -45.999 37l-21.5 24.5c-7 8.33301 -16.167 12.5 -27.5 12.5
c-10.667 0 -19.334 -5 -26.001 -15s-10 -28.333 -10 -55h-44c-2.66699 13.333 -4 26.333 -4 39c0 31.333 9 57.333 27 78s43 31 75 31c19.333 0 35.666 -4 48.999 -12s28.666 -20.667 45.999 -38c7.33301 -7.33301 14.666 -15.166 21.999 -23.499s16.666 -12.5 27.999 -12.5
c10 0 18.333 5 25 15s10 28.333 10 55h44c1.33301 -7.33301 2.33301 -14.333 3 -21s1 -13 1 -19c0 -30.667 -9 -56.334 -27 -77.001s-43 -31 -75 -31z" />
    <glyph glyph-name="ograve" unicode="&#xf2;" horiz-adv-x="566" 
d="M283 448c-70 0 -105 -69 -105 -207c0 -70.667 8.83301 -122.667 26.5 -156s43.834 -50 78.501 -50c35.333 0 61.666 16.667 78.999 50s26 85.333 26 156c0 138 -35 207 -105 207zM283 498c33.333 0 65.1689 -6 95.502 -18s57.166 -29.167 80.499 -51.5s42 -49.333 56 -81
s21 -67.5 21 -107.5s-6.33301 -75.667 -19 -107s-30.334 -58 -53.001 -80s-49.5 -38.833 -80.5 -50.5s-64.5 -17.5 -100.5 -17.5s-69.5 5.83301 -100.5 17.5s-57.667 28.5 -80 50.5s-40 48.667 -53 80s-19.5 67 -19.5 107s6.83301 75.833 20.5 107.5s32.167 58.667 55.5 81
s50.333 39.5 81 51.5s62.667 18 96 18zM313.003 543l-95.002 77c-29.333 23.333 -49.166 41.833 -59.499 55.5s-15.5 26.834 -15.5 39.501c0 15.333 5 27.166 15 35.499s22 12.5 36 12.5c16.667 0 31.834 -6.83301 45.501 -20.5s30.167 -37.5 49.5 -71.5l58 -101z" />
    <glyph glyph-name="oacute" unicode="&#xf3;" horiz-adv-x="566" 
d="M283 448c-70 0 -105 -69 -105 -207c0 -70.667 8.83301 -122.667 26.5 -156s43.834 -50 78.501 -50c35.333 0 61.666 16.667 78.999 50s26 85.333 26 156c0 138 -35 207 -105 207zM283 498c33.333 0 65.1689 -6 95.502 -18s57.166 -29.167 80.499 -51.5s42 -49.333 56 -81
s21 -67.5 21 -107.5s-6.33301 -75.667 -19 -107s-30.334 -58 -53.001 -80s-49.5 -38.833 -80.5 -50.5s-64.5 -17.5 -100.5 -17.5s-69.5 5.83301 -100.5 17.5s-57.667 28.5 -80 50.5s-40 48.667 -53 80s-19.5 67 -19.5 107s6.83301 75.833 20.5 107.5s32.167 58.667 55.5 81
s50.333 39.5 81 51.5s62.667 18 96 18zM264.003 671c19.333 34 36.002 57.8311 50.002 71.498s29.333 20.5 46 20.5c14 0 25.833 -4.16699 35.5 -12.5s14.5 -20.166 14.5 -35.499c0 -6.66699 -1.16699 -13.167 -3.5 -19.5s-6.33301 -13.166 -12 -20.499
s-13.334 -15.333 -23.001 -24s-21.834 -19 -36.501 -31l-95 -77l-34 27z" />
    <glyph glyph-name="ocircumflex" unicode="&#xf4;" horiz-adv-x="566" 
d="M283 448c-70 0 -105 -69 -105 -207c0 -70.667 8.83301 -122.667 26.5 -156s43.834 -50 78.501 -50c35.333 0 61.666 16.667 78.999 50s26 85.333 26 156c0 138 -35 207 -105 207zM283 498c33.333 0 65.1689 -6 95.502 -18s57.166 -29.167 80.499 -51.5s42 -49.333 56 -81
s21 -67.5 21 -107.5s-6.33301 -75.667 -19 -107s-30.334 -58 -53.001 -80s-49.5 -38.833 -80.5 -50.5s-64.5 -17.5 -100.5 -17.5s-69.5 5.83301 -100.5 17.5s-57.667 28.5 -80 50.5s-40 48.667 -53 80s-19.5 67 -19.5 107s6.83301 75.833 20.5 107.5s32.167 58.667 55.5 81
s50.333 39.5 81 51.5s62.667 18 96 18zM414.003 553l-131 103l-131 -103l-32 30l136 170h54l136 -170z" />
    <glyph glyph-name="otilde" unicode="&#xf5;" horiz-adv-x="566" 
d="M283 448c-70 0 -105 -69 -105 -207c0 -70.667 8.83301 -122.667 26.5 -156s43.834 -50 78.501 -50c35.333 0 61.666 16.667 78.999 50s26 85.333 26 156c0 138 -35 207 -105 207zM283 498c33.333 0 65.1689 -6 95.502 -18s57.166 -29.167 80.499 -51.5s42 -49.333 56 -81
s21 -67.5 21 -107.5s-6.33301 -75.667 -19 -107s-30.334 -58 -53.001 -80s-49.5 -38.833 -80.5 -50.5s-64.5 -17.5 -100.5 -17.5s-69.5 5.83301 -100.5 17.5s-57.667 28.5 -80 50.5s-40 48.667 -53 80s-19.5 67 -19.5 107s6.83301 75.833 20.5 107.5s32.167 58.667 55.5 81
s50.333 39.5 81 51.5s62.667 18 96 18zM346.003 560c-19.333 0 -35.6631 4 -48.9961 12s-28.666 20.333 -45.999 37l-21.5 24.5c-7 8.33301 -16.167 12.5 -27.5 12.5c-10.667 0 -19.334 -5 -26.001 -15s-10 -28.333 -10 -55h-44c-2.66699 13.333 -4 26.333 -4 39
c0 31.333 9 57.333 27 78s43 31 75 31c19.333 0 35.666 -4 48.999 -12s28.666 -20.667 45.999 -38c7.33301 -7.33301 14.666 -15.166 21.999 -23.499s16.666 -12.5 27.999 -12.5c10 0 18.333 5 25 15s10 28.333 10 55h44c1.33301 -7.33301 2.33301 -14.333 3 -21
s1 -13 1 -19c0 -30.667 -9 -56.334 -27 -77.001s-43 -31 -75 -31z" />
    <glyph glyph-name="odieresis" unicode="&#xf6;" horiz-adv-x="566" 
d="M283 448c-70 0 -105 -69 -105 -207c0 -70.667 8.83301 -122.667 26.5 -156s43.834 -50 78.501 -50c35.333 0 61.666 16.667 78.999 50s26 85.333 26 156c0 138 -35 207 -105 207zM283 498c33.333 0 65.1689 -6 95.502 -18s57.166 -29.167 80.499 -51.5s42 -49.333 56 -81
s21 -67.5 21 -107.5s-6.33301 -75.667 -19 -107s-30.334 -58 -53.001 -80s-49.5 -38.833 -80.5 -50.5s-64.5 -17.5 -100.5 -17.5s-69.5 5.83301 -100.5 17.5s-57.667 28.5 -80 50.5s-40 48.667 -53 80s-19.5 67 -19.5 107s6.83301 75.833 20.5 107.5s32.167 58.667 55.5 81
s50.333 39.5 81 51.5s62.667 18 96 18zM397.003 581c-18.667 0 -34.667 6 -48 18s-20 27.333 -20 46s6.66699 34.334 20 47.001s29.333 19 48 19s34.834 -6.33301 48.501 -19s20.5 -28.334 20.5 -47.001s-6.83301 -34 -20.5 -46s-29.834 -18 -48.501 -18zM169.003 581
c-18.667 0 -34.834 6 -48.501 18s-20.5 27.333 -20.5 46s6.83301 34.334 20.5 47.001s29.834 19 48.501 19s34.667 -6.33301 48 -19s20 -28.334 20 -47.001s-6.66699 -34 -20 -46s-29.333 -18 -48 -18z" />
    <glyph glyph-name="divide" unicode="&#xf7;" horiz-adv-x="530" 
d="M265 61c-20 0 -37 6.5 -51 19.5s-21 29.5 -21 49.5s7 36.5 21 49.5s31 19.5 51 19.5s37 -6.5 51 -19.5s21 -29.5 21 -49.5s-7 -36.5 -21 -49.5s-31 -19.5 -51 -19.5zM265 461c-20 0 -37 6.5 -51 19.5s-21 29.5 -21 49.5s7 36.5 21 49.5s31 19.5 51 19.5s37 -6.5 51 -19.5
s21 -29.5 21 -49.5s-7 -36.5 -21 -49.5s-31 -19.5 -51 -19.5zM30 285v80h470v-80h-470z" />
    <glyph glyph-name="oslash" unicode="&#xf8;" horiz-adv-x="566" 
d="M196 105c16.667 -46.667 45.668 -69.999 87.001 -69.999c35.333 0 61.666 16.667 78.999 50s26 85.333 26 156c0 18 -0.5 34.667 -1.5 50s-2.83301 29.666 -5.5 42.999zM360.001 399.001c-16.667 32.667 -42.333 49.001 -77 49.001c-70 0 -105 -69 -105 -207
c0 -24.667 1 -46.334 3 -65.001zM458.002 430.002c23.333 -22.667 42.168 -50 56.501 -82s21.5 -68 21.5 -108s-6.33301 -75.667 -19 -107s-30.334 -58 -53.001 -80s-49.5 -38.833 -80.5 -50.5s-64.5 -17.5 -100.5 -17.5c-28.667 0 -55.5 3.66699 -80.5 11
s-47.833 17.666 -68.5 30.999l-38 -47l-44 35l40 49c-19.333 21.333 -34.5 46.833 -45.5 76.5s-16.5 62.834 -16.5 99.501c0 40 6.83301 75.833 20.5 107.5s32.167 58.667 55.5 81s50.333 39.5 81 51.5s62.667 18 96 18c46.667 0 90 -11.333 130 -34l33 41l44 -35z" />
    <glyph glyph-name="ugrave" unicode="&#xf9;" horiz-adv-x="602" 
d="M579 44l0.000976562 -43.999l-184 -10l-7 83c-25.333 -28.667 -51.666 -50.5 -78.999 -65.5s-57 -22.5 -89 -22.5c-21.333 0 -40.5 3.16699 -57.5 9.5s-31.667 16.666 -44 30.999s-21.833 32.833 -28.5 55.5s-9.66699 50.667 -9 84l4 255l-55 10v40l180 18l12 -8l-5 -142
v-154c0 -44 5.66699 -74.5 17 -91.5s26 -25.5 44 -25.5c17.333 0 35.166 5.66699 53.499 17s36.166 25.333 53.499 42l4 294l-55 10v38l178 20l12 -8l-3 -142v-282zM324.001 543.001l-95.002 77c-29.333 23.333 -49.166 41.833 -59.499 55.5s-15.5 26.834 -15.5 39.501
c0 15.333 5 27.166 15 35.499s22 12.5 36 12.5c16.667 0 31.834 -6.83301 45.501 -20.5s30.167 -37.5 49.5 -71.5l58 -101z" />
    <glyph glyph-name="uacute" unicode="&#xfa;" horiz-adv-x="602" 
d="M579 44l0.000976562 -43.999l-184 -10l-7 83c-25.333 -28.667 -51.666 -50.5 -78.999 -65.5s-57 -22.5 -89 -22.5c-21.333 0 -40.5 3.16699 -57.5 9.5s-31.667 16.666 -44 30.999s-21.833 32.833 -28.5 55.5s-9.66699 50.667 -9 84l4 255l-55 10v40l180 18l12 -8l-5 -142
v-154c0 -44 5.66699 -74.5 17 -91.5s26 -25.5 44 -25.5c17.333 0 35.166 5.66699 53.499 17s36.166 25.333 53.499 42l4 294l-55 10v38l178 20l12 -8l-3 -142v-282zM262.001 671.001c19.333 34 36.002 57.8311 50.002 71.498s29.333 20.5 46 20.5
c14 0 25.833 -4.16699 35.5 -12.5s14.5 -20.166 14.5 -35.499c0 -6.66699 -1.16699 -13.167 -3.5 -19.5s-6.33301 -13.166 -12 -20.499s-13.334 -15.333 -23.001 -24s-21.834 -19 -36.501 -31l-95 -77l-34 27z" />
    <glyph glyph-name="ucircumflex" unicode="&#xfb;" horiz-adv-x="602" 
d="M579 44l0.000976562 -43.999l-184 -10l-7 83c-25.333 -28.667 -51.666 -50.5 -78.999 -65.5s-57 -22.5 -89 -22.5c-21.333 0 -40.5 3.16699 -57.5 9.5s-31.667 16.666 -44 30.999s-21.833 32.833 -28.5 55.5s-9.66699 50.667 -9 84l4 255l-55 10v40l180 18l12 -8l-5 -142
v-154c0 -44 5.66699 -74.5 17 -91.5s26 -25.5 44 -25.5c17.333 0 35.166 5.66699 53.499 17s36.166 25.333 53.499 42l4 294l-55 10v38l178 20l12 -8l-3 -142v-282zM435.001 553.001l-131 103l-131 -103l-32 30l136 170h54l136 -170z" />
    <glyph glyph-name="udieresis" unicode="&#xfc;" horiz-adv-x="602" 
d="M579 44l0.000976562 -43.999l-184 -10l-7 83c-25.333 -28.667 -51.666 -50.5 -78.999 -65.5s-57 -22.5 -89 -22.5c-21.333 0 -40.5 3.16699 -57.5 9.5s-31.667 16.666 -44 30.999s-21.833 32.833 -28.5 55.5s-9.66699 50.667 -9 84l4 255l-55 10v40l180 18l12 -8l-5 -142
v-154c0 -44 5.66699 -74.5 17 -91.5s26 -25.5 44 -25.5c17.333 0 35.166 5.66699 53.499 17s36.166 25.333 53.499 42l4 294l-55 10v38l178 20l12 -8l-3 -142v-282zM410.001 581.001c-18.667 0 -34.667 6 -48 18s-20 27.333 -20 46s6.66699 34.334 20 47.001
s29.333 19 48 19s34.834 -6.33301 48.501 -19s20.5 -28.334 20.5 -47.001s-6.83301 -34 -20.5 -46s-29.834 -18 -48.501 -18zM182.001 581.001c-18.667 0 -34.834 6 -48.501 18s-20.5 27.333 -20.5 46s6.83301 34.334 20.5 47.001s29.834 19 48.501 19
s34.667 -6.33301 48 -19s20 -28.334 20 -47.001s-6.66699 -34 -20 -46s-29.333 -18 -48 -18z" />
    <glyph glyph-name="yacute" unicode="&#xfd;" horiz-adv-x="527" 
d="M519 436l-64.0039 -11.001l-161 -438c-25.333 -69.333 -51.666 -121.166 -78.999 -155.499s-62.666 -51.5 -105.999 -51.5c-13.333 0 -26.166 1.5 -38.499 4.5s-23.166 7.5 -32.499 13.5s-16.833 13.333 -22.5 22s-8.5 18.667 -8.5 30
c5.33301 17.333 13.666 29.5 24.999 36.5s25.333 10.5 42 10.5c11.333 0 22.833 -2 34.5 -6s24.167 -12 37.5 -24l17 -15c14 12.667 26.833 27.667 38.5 45s22.834 38.333 33.501 63l-188 464l-57 12v44h273v-44l-70 -14l105 -287l102 289l-64 12v44h183v-44z
M245.996 670.999c19.333 34 36.002 57.8311 50.002 71.498s29.333 20.5 46 20.5c14 0 25.833 -4.16699 35.5 -12.5s14.5 -20.166 14.5 -35.499c0 -6.66699 -1.16699 -13.167 -3.5 -19.5s-6.33301 -13.166 -12 -20.499s-13.334 -15.333 -23.001 -24s-21.834 -19 -36.501 -31
l-95 -77l-34 27z" />
    <glyph glyph-name="thorn" unicode="&#xfe;" horiz-adv-x="582" 
d="M216 89c12.667 -8.66699 25.168 -15.333 37.501 -20s25.166 -7 38.499 -7c30.667 0 56.667 14.5 78 43.5s32 74.167 32 135.5s-9.16699 106.5 -27.5 135.5s-43.833 43.5 -76.5 43.5c-13.333 0 -27 -2.5 -41 -7.5s-27.667 -11.833 -41 -20.5v-303zM213.001 444.001
c19.333 17.333 39.833 30.666 61.5 39.999s46.5 14 74.5 14s54.167 -5.33301 78.5 -16s45.333 -26.667 63 -48s31.5 -47.833 41.5 -79.5s15 -68.5 15 -110.5c0 -40 -5.5 -76 -16.5 -108s-26.167 -59.167 -45.5 -81.5s-41.833 -39.5 -67.5 -51.5s-53.5 -18 -83.5 -18
c-25.333 0 -48 3.83301 -68 11.5s-38.333 18.834 -55 33.501v-30v-77.5c0 -29.667 0.333008 -57.5 1 -83.5l76 -15v-44h-270v44l61 12c0.666992 26 1 54.167 1 84.5v79.5v626l-75 9v40l198 45l14 -8l-4 -142v-126z" />
    <glyph glyph-name="ydieresis" unicode="&#xff;" horiz-adv-x="527" 
d="M519 436l-64.0039 -11.001l-161 -438c-25.333 -69.333 -51.666 -121.166 -78.999 -155.499s-62.666 -51.5 -105.999 -51.5c-13.333 0 -26.166 1.5 -38.499 4.5s-23.166 7.5 -32.499 13.5s-16.833 13.333 -22.5 22s-8.5 18.667 -8.5 30
c5.33301 17.333 13.666 29.5 24.999 36.5s25.333 10.5 42 10.5c11.333 0 22.833 -2 34.5 -6s24.167 -12 37.5 -24l17 -15c14 12.667 26.833 27.667 38.5 45s22.834 38.333 33.501 63l-188 464l-57 12v44h273v-44l-70 -14l105 -287l102 289l-64 12v44h183v-44z
M401.996 580.999c-18.667 0 -34.667 6 -48 18s-20 27.333 -20 46s6.66699 34.334 20 47.001s29.333 19 48 19s34.834 -6.33301 48.501 -19s20.5 -28.334 20.5 -47.001s-6.83301 -34 -20.5 -46s-29.834 -18 -48.501 -18zM173.996 580.999c-18.667 0 -34.834 6 -48.501 18
s-20.5 27.333 -20.5 46s6.83301 34.334 20.5 47.001s29.834 19 48.501 19s34.667 -6.33301 48 -19s20 -28.334 20 -47.001s-6.66699 -34 -20 -46s-29.333 -18 -48 -18z" />
    <glyph glyph-name="Amacron" unicode="&#x100;" horiz-adv-x="673" 
d="M385 259l-80 223l-83 -223h163zM669 49v-49h-294v49l82 10l-52 145h-203l-53 -142l81 -12v-50h-225v50l89 13l222 592h60l227 -598zM179 814h310v-82h-310v82z" />
    <glyph glyph-name="amacron" unicode="&#x101;" horiz-adv-x="534" 
d="M317 258c-12.667 -3.33301 -24.501 -6.83496 -35.501 -10.502s-20.5 -7.16699 -28.5 -10.5c-29.333 -11.333 -49.666 -25.666 -60.999 -42.999s-17 -36.666 -17 -57.999c0 -13.333 1.83301 -24 5.5 -32s8.16699 -14.667 13.5 -20c14 -14 32.667 -21 56 -21
c10.667 0 21 1.83301 31 5.5s22 10.5 36 20.5v169zM538.999 62.998c-13.333 -27.333 -28.498 -46.3271 -45.498 -56.9941s-38.167 -16 -63.5 -16c-27.333 0 -50 5.33301 -68 16s-30.667 24.667 -38 42c-22.667 -20.667 -44.5 -36.334 -65.5 -47.001s-47.167 -16 -78.5 -16
c-40 0 -72.5 10.167 -97.5 30.5s-37.5 50.166 -37.5 89.499c0 15.333 2.5 30.5 7.5 45.5s14.333 29.667 28 44s32.5 28.166 56.5 41.499s55 26.333 93 39c11.333 4 24.666 8.16699 39.999 12.5l47 13.5v30c0 42 -6.33301 72 -19 90s-35 27 -67 27
c-5.33301 0 -10.5 -0.166992 -15.5 -0.5s-10.167 -0.833008 -15.5 -1.5l-8 -58c-3.33301 -26 -11.333 -45.333 -24 -58s-27.667 -19 -45 -19c-15.333 0 -28.5 4.66699 -39.5 14s-18.167 21.666 -21.5 36.999c4.66699 39.333 25.667 71.833 63 97.5s88 38.5 152 38.5
c31.333 0 58.166 -3.5 80.499 -10.5s40.5 -18.333 54.5 -34s24.333 -36.334 31 -62.001s10 -57.167 10 -94.5v-206c0 -10.667 2 -19.334 6 -26.001s10.333 -10 19 -10c6.66699 0 12 2 16 6s8.66699 9 14 15l5 6zM118.001 685.004h300v-82h-300v82z" />
    <glyph glyph-name="Abreve" unicode="&#x102;" horiz-adv-x="673" 
d="M385 259l-80 223l-83 -223h163zM669 49v-49h-294v49l82 10l-52 145h-203l-53 -142l81 -12v-50h-225v50l89 13l222 592h60l227 -598zM344 711c-26 0 -48.5 4.16797 -67.5 12.501s-35 19.333 -48 33s-23 28.667 -30 45s-11.167 32.5 -12.5 48.5l42 13
c9.33301 -22 24 -40.5 44 -55.5s44 -22.5 72 -22.5s52.167 7.66699 72.5 23s34.833 33.666 43.5 54.999l42 -13c-1.33301 -16 -5.5 -32.167 -12.5 -48.5s-17 -31.333 -30 -45s-29 -24.667 -48 -33s-41.5 -12.5 -67.5 -12.5z" />
    <glyph glyph-name="abreve" unicode="&#x103;" horiz-adv-x="534" 
d="M317 258c-12.667 -3.33301 -24.501 -6.83496 -35.501 -10.502s-20.5 -7.16699 -28.5 -10.5c-29.333 -11.333 -49.666 -25.666 -60.999 -42.999s-17 -36.666 -17 -57.999c0 -13.333 1.83301 -24 5.5 -32s8.16699 -14.667 13.5 -20c14 -14 32.667 -21 56 -21
c10.667 0 21 1.83301 31 5.5s22 10.5 36 20.5v169zM538.999 62.998c-13.333 -27.333 -28.498 -46.3271 -45.498 -56.9941s-38.167 -16 -63.5 -16c-27.333 0 -50 5.33301 -68 16s-30.667 24.667 -38 42c-22.667 -20.667 -44.5 -36.334 -65.5 -47.001s-47.167 -16 -78.5 -16
c-40 0 -72.5 10.167 -97.5 30.5s-37.5 50.166 -37.5 89.499c0 15.333 2.5 30.5 7.5 45.5s14.333 29.667 28 44s32.5 28.166 56.5 41.499s55 26.333 93 39c11.333 4 24.666 8.16699 39.999 12.5l47 13.5v30c0 42 -6.33301 72 -19 90s-35 27 -67 27
c-5.33301 0 -10.5 -0.166992 -15.5 -0.5s-10.167 -0.833008 -15.5 -1.5l-8 -58c-3.33301 -26 -11.333 -45.333 -24 -58s-27.667 -19 -45 -19c-15.333 0 -28.5 4.66699 -39.5 14s-18.167 21.666 -21.5 36.999c4.66699 39.333 25.667 71.833 63 97.5s88 38.5 152 38.5
c31.333 0 58.166 -3.5 80.499 -10.5s40.5 -18.333 54.5 -34s24.333 -36.334 31 -62.001s10 -57.167 10 -94.5v-206c0 -10.667 2 -19.334 6 -26.001s10.333 -10 19 -10c6.66699 0 12 2 16 6s8.66699 9 14 15l5 6zM272.001 575.004c-26 0 -48.833 4.66797 -68.5 14.001
s-36 21.5 -49 36.5s-23 31.5 -30 49.5s-11.167 36 -12.5 54l42 14c10 -24.667 25.167 -45.334 45.5 -62.001s44.5 -25 72.5 -25s52.333 8.5 73 25.5s35.667 37.5 45 61.5l42 -14c-1.33301 -18 -5.5 -36 -12.5 -54s-17 -34.5 -30 -49.5s-29.333 -27.167 -49 -36.5
s-42.5 -14 -68.5 -14z" />
    <glyph glyph-name="Aogonek" unicode="&#x104;" horiz-adv-x="673" 
d="M385 259l-80 223l-83 -223h163zM669 49v-49h-294v49l82 10l-52 145h-203l-53 -142l81 -12v-50h-225v50l89 13l222 592h60l227 -598zM432 -131c0 17.333 3.33398 33.498 10.001 48.498s15.834 28.833 27.501 41.5s25.167 24.334 40.5 35.001s32 20.667 50 30h37
c-23.333 -14 -40.833 -30.5 -52.5 -49.5s-17.5 -38.5 -17.5 -58.5c0 -24.667 7.5 -42.667 22.5 -54s32.167 -17 51.5 -17c15.333 0 32.666 2.66699 51.999 8l14 -38c-15.333 -13.333 -34.5 -24.166 -57.5 -32.499s-45.167 -12.5 -66.5 -12.5c-34.667 0 -61.834 9 -81.501 27
s-29.5 42 -29.5 72z" />
    <glyph glyph-name="aogonek" unicode="&#x105;" horiz-adv-x="534" 
d="M317 258c-12.667 -3.33301 -24.501 -6.83496 -35.501 -10.502s-20.5 -7.16699 -28.5 -10.5c-29.333 -11.333 -49.666 -25.666 -60.999 -42.999s-17 -36.666 -17 -57.999c0 -13.333 1.83301 -24 5.5 -32s8.16699 -14.667 13.5 -20c14 -14 32.667 -21 56 -21
c10.667 0 21 1.83301 31 5.5s22 10.5 36 20.5v169zM548.999 -185.002c-15.333 -13.333 -34.667 -24.1592 -58 -32.4922s-46 -12.5 -68 -12.5c-34 0 -60.667 8.66699 -80 26s-29 40 -29 68s9.16699 52.5 27.5 73.5s40.833 38.833 67.5 53.5c-20 2 -37.167 8.33301 -51.5 19
s-25.166 23.667 -32.499 39c-11.333 -10 -22.333 -19 -33 -27s-21.667 -14.833 -33 -20.5s-23.333 -9.83398 -36 -12.501s-27 -4 -43 -4c-40 0 -72.5 10.167 -97.5 30.5s-37.5 50.166 -37.5 89.499c0 15.333 2.5 30.5 7.5 45.5s14.333 29.667 28 44s32.5 28.166 56.5 41.499
s55 26.333 93 39c11.333 4 24.666 8.16699 39.999 12.5l47 13.5v30c0 42 -6.33301 72 -19 90s-35 27 -67 27c-5.33301 0 -10.5 -0.166992 -15.5 -0.5s-10.167 -0.833008 -15.5 -1.5l-8 -58c-3.33301 -26 -11.333 -45.333 -24 -58s-27.667 -19 -45 -19
c-15.333 0 -28.5 4.66699 -39.5 14s-18.167 21.666 -21.5 36.999c4.66699 39.333 25.667 71.833 63 97.5s88 38.5 152 38.5c31.333 0 58.166 -3.5 80.499 -10.5s40.5 -18.333 54.5 -34s24.333 -36.334 31 -62.001s10 -57.167 10 -94.5v-206c0 -10.667 2 -19.334 6 -26.001
s10.333 -10 19 -10c6.66699 0 12 2 16 6s8.66699 9 14 15l5 6l26 -19c-9.33301 -16.667 -18.166 -29.334 -26.499 -38.001s-18.5 -17.667 -30.5 -27c-21.333 -15.333 -38.833 -29.333 -52.5 -42s-20.5 -28.667 -20.5 -48c0 -20.667 7.5 -36.334 22.5 -47.001
s32.5 -16 52.5 -16c14.667 0 31.667 2.66699 51 8z" />
    <glyph glyph-name="Cacute" unicode="&#x106;" horiz-adv-x="622" 
d="M587 184l-4.00098 -152.003c-28 -15.333 -59 -27 -93 -35s-70 -12 -108 -12c-51.333 0 -98.5 7.16699 -141.5 21.5s-80.167 35.833 -111.5 64.5s-55.666 64.334 -72.999 107.001s-26 92.334 -26 149.001s9.16699 106.5 27.5 149.5s43.5 78.833 75.5 107.5
s70.167 50.167 114.5 64.5s92.5 21.5 144.5 21.5c32 0 62.5 -3.5 91.5 -10.5s58.833 -19.167 89.5 -36.5l4 -152h-79l-20 126c-28 12 -56.333 18 -85 18c-29.333 0 -56.833 -6.16699 -82.5 -18.5s-48 -30.666 -67 -54.999s-33.833 -54.5 -44.5 -90.5s-16 -77.333 -16 -124
s5.33301 -87.834 16 -123.501s25.5 -65.667 44.5 -90s41.333 -42.666 67 -54.999s53.167 -18.5 82.5 -18.5c31.333 0 63 6 95 18l19 126h80zM376.999 838.997c15.333 14 28.333 24 39 30s21 9 31 9c14 0 25.333 -4.5 34 -13.5s13 -19.5 13 -31.5
c0 -9.33301 -3.66699 -19 -11 -29s-22.333 -20.667 -45 -32l-144 -70l-25 34z" />
    <glyph glyph-name="cacute" unicode="&#x107;" horiz-adv-x="510" 
d="M479 119c-12 -43.333 -36.334 -76.5049 -73.001 -99.5049s-80 -34.5 -130 -34.5c-36.667 0 -69.834 5.66699 -99.501 17s-55 27.833 -76 49.5s-37.167 48.334 -48.5 80.001s-17 67.834 -17 108.501c0 40 6.83301 76 20.5 108s32.167 59.167 55.5 81.5
s50.5 39.333 81.5 51s64.167 17.5 99.5 17.5c26.667 0 51.5 -3.66699 74.5 -11s42.833 -17.166 59.5 -29.499s29.834 -27.166 39.501 -44.499s14.5 -36 14.5 -56c-7.33301 -32 -27 -48 -59 -48c-18.667 0 -34.667 6.16699 -48 18.5s-20.666 33.5 -21.999 63.5l-3 53
c-5.33301 1.33301 -10.5 2.33301 -15.5 3s-10.167 1 -15.5 1c-18.667 0 -36.334 -4.16699 -53.001 -12.5s-31.167 -20.666 -43.5 -36.999s-22.166 -36.5 -29.499 -60.5s-11 -51.667 -11 -83c0 -65.333 13.667 -113.666 41 -144.999s62 -47 104 -47
c26.667 0 49.5 6.16699 68.5 18.5s36.167 31.166 51.5 56.499zM273.999 670.995c19.333 34 36.002 57.8311 50.002 71.498s29.333 20.5 46 20.5c14 0 25.833 -4.16699 35.5 -12.5s14.5 -20.166 14.5 -35.499c0 -6.66699 -1.16699 -13.167 -3.5 -19.5
s-6.33301 -13.166 -12 -20.499s-13.334 -15.333 -23.001 -24s-21.834 -19 -36.501 -31l-95 -77l-34 27z" />
    <glyph glyph-name="Ccaron" unicode="&#x10c;" horiz-adv-x="622" 
d="M587 184l-4.00098 -152.003c-28 -15.333 -59 -27 -93 -35s-70 -12 -108 -12c-51.333 0 -98.5 7.16699 -141.5 21.5s-80.167 35.833 -111.5 64.5s-55.666 64.334 -72.999 107.001s-26 92.334 -26 149.001s9.16699 106.5 27.5 149.5s43.5 78.833 75.5 107.5
s70.167 50.167 114.5 64.5s92.5 21.5 144.5 21.5c32 0 62.5 -3.5 91.5 -10.5s58.833 -19.167 89.5 -36.5l4 -152h-79l-20 126c-28 12 -56.333 18 -85 18c-29.333 0 -56.833 -6.16699 -82.5 -18.5s-48 -30.666 -67 -54.999s-33.833 -54.5 -44.5 -90.5s-16 -77.333 -16 -124
s5.33301 -87.834 16 -123.501s25.5 -65.667 44.5 -90s41.333 -42.666 67 -54.999s53.167 -18.5 82.5 -18.5c31.333 0 63 6 95 18l19 126h80zM526.999 835.997l-108 -126h-80l-108 126l31 31l117 -85l117 85z" />
    <glyph glyph-name="ccaron" unicode="&#x10d;" horiz-adv-x="510" 
d="M479 119c-12 -43.333 -36.334 -76.5049 -73.001 -99.5049s-80 -34.5 -130 -34.5c-36.667 0 -69.834 5.66699 -99.501 17s-55 27.833 -76 49.5s-37.167 48.334 -48.5 80.001s-17 67.834 -17 108.501c0 40 6.83301 76 20.5 108s32.167 59.167 55.5 81.5
s50.5 39.333 81.5 51s64.167 17.5 99.5 17.5c26.667 0 51.5 -3.66699 74.5 -11s42.833 -17.166 59.5 -29.499s29.834 -27.166 39.501 -44.499s14.5 -36 14.5 -56c-7.33301 -32 -27 -48 -59 -48c-18.667 0 -34.667 6.16699 -48 18.5s-20.666 33.5 -21.999 63.5l-3 53
c-5.33301 1.33301 -10.5 2.33301 -15.5 3s-10.167 1 -15.5 1c-18.667 0 -36.334 -4.16699 -53.001 -12.5s-31.167 -20.666 -43.5 -36.999s-22.166 -36.5 -29.499 -60.5s-11 -51.667 -11 -83c0 -65.333 13.667 -113.666 41 -144.999s62 -47 104 -47
c26.667 0 49.5 6.16699 68.5 18.5s36.167 31.166 51.5 56.499zM441.999 731.995l-111 -164h-82l-111 164l34 28l118 -111l118 111z" />
    <glyph glyph-name="Dcaron" unicode="&#x10e;" horiz-adv-x="692" 
d="M299 55c31.333 0 60.001 6.00098 86.001 18.001s48.167 29.5 66.5 52.5s32.5 51.5 42.5 85.5s15 73 15 117s-5 83 -15 117s-24.333 62.5 -43 85.5s-40.834 40.333 -66.501 52s-54.5 17.5 -86.5 17.5h-35c-1.33301 -42 -2 -84.167 -2 -126.5v-128.5v-25v-135.5
c0 -43.667 0.666992 -86.834 2 -129.501h36zM334.001 655.001c48.667 0 93.167 -7 133.5 -21s75 -34.833 104 -62.5s51.333 -61.5 67 -101.5s23.5 -86 23.5 -138c0 -54 -8.66699 -101.667 -26 -143s-41.5 -76 -72.5 -104s-67.833 -49.167 -110.5 -63.5s-89 -21.5 -139 -21.5
h-282v50l81 9c1.33301 41.333 2 83.5 2 126.5v134.5v25v125.5c0 41.667 -0.666992 83.5 -2 125.5l-81 9v50h302zM489.001 836.001l-108 -126h-80l-108 126l31 31l117 -85l117 85z" />
    <glyph glyph-name="dcaron" unicode="&#x10f;" horiz-adv-x="612" 
d="M375 388c-14 10 -27.835 18 -41.502 24s-27.5 9 -41.5 9c-14.667 0 -28.667 -3.66699 -42 -11s-25.166 -18.333 -35.499 -33s-18.666 -33.167 -24.999 -55.5s-9.5 -48.833 -9.5 -79.5c0 -60.667 10.167 -105.667 30.5 -135s45.5 -44 75.5 -44
c14.667 0 29.5 3.16699 44.5 9.5s29.833 14.5 44.5 24.5v291zM568.998 44l0.000976562 -44.001l-182 -10l-8 59c-20 -20.667 -41.667 -36.5 -65 -47.5s-50.333 -16.5 -81 -16.5c-28 0 -54.167 5.33301 -78.5 16s-45.333 26.667 -63 48s-31.5 47.833 -41.5 79.5
s-15 68.5 -15 110.5c0 40 5.5 76 16.5 108s26.167 59.167 45.5 81.5s41.833 39.5 67.5 51.5s53.5 18 83.5 18c28 0 52.667 -4.66699 74 -14s40.666 -22.666 57.999 -39.999v181l-80 10v40l201 45l14 -8l-4 -142v-514zM637.999 734.999
c17.333 0 29.502 -4.16699 36.502 -12.5s10.5 -20.166 10.5 -35.499c0 -12 -2 -24.833 -6 -38.5s-10.333 -30.5 -19 -50.5l-35 -82h-44l4 204c9.33301 5.33301 18.166 9.16602 26.499 11.499s17.166 3.5 26.499 3.5z" />
    <glyph glyph-name="Dcroat" unicode="&#x110;" horiz-adv-x="692" 
d="M299 55c31.333 0 60.001 6.00098 86.001 18.001s48.167 29.5 66.5 52.5s32.5 51.5 42.5 85.5s15 73 15 117s-5 83 -15 117s-24.333 62.5 -43 85.5s-40.834 40.333 -66.501 52s-54.5 17.5 -86.5 17.5h-35c-1.33301 -38.667 -2 -77.334 -2 -116.001v-118h131v-55h-131v-131
c0 -42 0.666992 -83.667 2 -125h36zM334.001 655.001c48.667 0 93.167 -7 133.5 -21s75 -34.833 104 -62.5s51.333 -61.5 67 -101.5s23.5 -86 23.5 -138c0 -54 -8.66699 -101.667 -26 -143s-41.5 -76 -72.5 -104s-67.833 -49.167 -110.5 -63.5s-89 -21.5 -139 -21.5h-282v50
l81 9c1.33301 40 2 80.833 2 122.5v129.5h-83v55h83v115.5c0 38.333 -0.666992 76.5 -2 114.5l-81 9v50h302z" />
    <glyph glyph-name="dcroat" unicode="&#x111;" horiz-adv-x="592" 
d="M375 370c-14 10 -28.002 18 -42.002 24s-28 9 -42 9s-27.667 -3.5 -41 -10.5s-25.166 -17.5 -35.499 -31.5s-18.666 -31.667 -24.999 -53s-9.5 -46.333 -9.5 -75c0 -57.333 10 -100 30 -128s45 -42 75 -42c14.667 0 29.5 3.16699 44.5 9.5s30.167 14.833 45.5 25.5v272z
M510.998 531l0.000976562 -475.001l58 -12v-44l-184 -10l-6 59c-20.667 -20.667 -42.5 -36.5 -65.5 -47.5s-49.833 -16.5 -80.5 -16.5c-28 0 -54.167 5.16699 -78.5 15.5s-45.333 25.666 -63 45.999s-31.5 45.833 -41.5 76.5s-15 66.334 -15 107.001
c0 38.667 5.5 73.5 16.5 104.5s26.167 57.333 45.5 79s41.833 38.167 67.5 49.5s53.5 17 83.5 17c28 0 52.667 -4.66699 74 -14s40.666 -22.666 57.999 -39.999v105h-186v55h186v39l-80 10v40l201 45l14 -8l-4 -126h58v-55h-58z" />
    <glyph glyph-name="Emacron" unicode="&#x112;" horiz-adv-x="598" 
d="M573 174l-7 -174h-534v50l81 9c1.33301 41.333 2 82.833 2 124.5v126.5v35v125.5c0 41.667 -0.666992 83.5 -2 125.5l-81 9v50h514l7 -174h-75l-21 119h-194c-1.33301 -38 -2 -76.333 -2 -115v-118h128l13 89h54v-232h-54l-12 88h-129v-131.5
c0 -42.333 0.666992 -84.5 2 -126.5h214l21 120h75zM174 814h310v-82h-310v82z" />
    <glyph glyph-name="emacron" unicode="&#x113;" horiz-adv-x="527" 
d="M301 285c24 0 40.5 5 49.5 15s13.5 25.667 13.5 47c0 32 -6.66699 56.833 -20 74.5s-30.666 26.5 -51.999 26.5c-11.333 0 -23 -2.66699 -35 -8s-23.167 -14.333 -33.5 -27s-19.333 -29.5 -27 -50.5s-12.834 -46.833 -15.501 -77.5h120zM180 235
c2 -59.333 16.501 -102.835 43.501 -130.502s60.833 -41.5 101.5 -41.5c29.333 0 53.5 6.5 72.5 19.5s36.167 31.5 51.5 55.5l34 -19c-13.333 -44 -38.333 -77.333 -75 -100s-80.334 -34 -131.001 -34c-36 0 -69 5.66699 -99 17s-55.5 27.833 -76.5 49.5
s-37.333 48.334 -49 80.001s-17.5 67.834 -17.5 108.501c0 38 6.33301 72.667 19 104s30.167 58.5 52.5 81.5s48.833 40.833 79.5 53.5s63.667 19 99 19c32 0 60.833 -5.16699 86.5 -15.5s47.5 -24.833 65.5 -43.5s31.833 -41 41.5 -67s14.5 -54.333 14.5 -85
c0 -18.667 -2 -36 -6 -52h-307zM136.001 684.998h300v-82h-300v82z" />
    <glyph glyph-name="Edotaccent" unicode="&#x116;" horiz-adv-x="598" 
d="M573 174l-7 -174h-534v50l81 9c1.33301 41.333 2 82.833 2 124.5v126.5v35v125.5c0 41.667 -0.666992 83.5 -2 125.5l-81 9v50h514l7 -174h-75l-21 119h-194c-1.33301 -38 -2 -76.333 -2 -115v-118h128l13 89h54v-232h-54l-12 88h-129v-131.5
c0 -42.333 0.666992 -84.5 2 -126.5h214l21 120h75zM314 716c-22 0 -40.833 7.16699 -56.5 21.5s-23.5 32.5 -23.5 54.5c0 22.667 7.83301 40.834 23.5 54.501s34.5 20.5 56.5 20.5s40.833 -6.83301 56.5 -20.5s23.5 -31.834 23.5 -54.501
c0 -22 -7.83301 -40.167 -23.5 -54.5s-34.5 -21.5 -56.5 -21.5z" />
    <glyph glyph-name="edotaccent" unicode="&#x117;" horiz-adv-x="527" 
d="M301 285c24 0 40.5 5 49.5 15s13.5 25.667 13.5 47c0 32 -6.66699 56.833 -20 74.5s-30.666 26.5 -51.999 26.5c-11.333 0 -23 -2.66699 -35 -8s-23.167 -14.333 -33.5 -27s-19.333 -29.5 -27 -50.5s-12.834 -46.833 -15.501 -77.5h120zM180 235
c2 -59.333 16.501 -102.835 43.501 -130.502s60.833 -41.5 101.5 -41.5c29.333 0 53.5 6.5 72.5 19.5s36.167 31.5 51.5 55.5l34 -19c-13.333 -44 -38.333 -77.333 -75 -100s-80.334 -34 -131.001 -34c-36 0 -69 5.66699 -99 17s-55.5 27.833 -76.5 49.5
s-37.333 48.334 -49 80.001s-17.5 67.834 -17.5 108.501c0 38 6.33301 72.667 19 104s30.167 58.5 52.5 81.5s48.833 40.833 79.5 53.5s63.667 19 99 19c32 0 60.833 -5.16699 86.5 -15.5s47.5 -24.833 65.5 -43.5s31.833 -41 41.5 -67s14.5 -54.333 14.5 -85
c0 -18.667 -2 -36 -6 -52h-307zM286.001 580.998c-22.667 0 -42.167 7.5 -58.5 22.5s-24.5 34.167 -24.5 57.5s8.16699 42.333 24.5 57s35.833 22 58.5 22c23.333 0 43 -7.33301 59 -22s24 -33.667 24 -57s-8 -42.5 -24 -57.5s-35.667 -22.5 -59 -22.5z" />
    <glyph glyph-name="Eogonek" unicode="&#x118;" horiz-adv-x="598" 
d="M573 174l-7 -174h-534v50l81 9c1.33301 41.333 2 82.833 2 124.5v126.5v35v125.5c0 41.667 -0.666992 83.5 -2 125.5l-81 9v50h514l7 -174h-75l-21 119h-194c-1.33301 -38 -2 -76.333 -2 -115v-118h128l13 89h54v-232h-54l-12 88h-129v-131.5
c0 -42.333 0.666992 -84.5 2 -126.5h214l21 120h75zM343 -131c0 17.333 3.33398 33.498 10.001 48.498s15.834 28.833 27.501 41.5s25.167 24.334 40.5 35.001s32 20.667 50 30h37c-23.333 -14 -40.833 -30.5 -52.5 -49.5s-17.5 -38.5 -17.5 -58.5
c0 -24.667 7.5 -42.667 22.5 -54s32.167 -17 51.5 -17c15.333 0 32.666 2.66699 51.999 8l14 -38c-15.333 -13.333 -34.5 -24.166 -57.5 -32.499s-45.167 -12.5 -66.5 -12.5c-34.667 0 -61.834 9 -81.501 27s-29.5 42 -29.5 72z" />
    <glyph glyph-name="eogonek" unicode="&#x119;" horiz-adv-x="527" 
d="M301 285c24 0 40.501 5 49.501 15s13.5 25.667 13.5 47c0 32 -6.83301 56.833 -20.5 74.5s-31.167 26.5 -52.5 26.5c-10.667 0 -22 -2.66699 -34 -8s-23.167 -14.333 -33.5 -27s-19.333 -29.5 -27 -50.5s-12.834 -46.833 -15.501 -77.5h120zM483.001 119
c-6.66699 -19.333 -15.4961 -36.6699 -26.4961 -52.0029s-24.833 -29.666 -41.5 -42.999c-22.667 -18.667 -40.834 -36.334 -54.501 -53.001s-20.5 -35 -20.5 -55c0 -24.667 7.5 -42.667 22.5 -54s32.167 -17 51.5 -17c15.333 0 32.666 2.66699 51.999 8l14 -38
c-15.333 -13.333 -34.5 -24.166 -57.5 -32.499s-45.167 -12.5 -66.5 -12.5c-34.667 0 -61.834 9 -81.501 27s-29.5 42 -29.5 72c0 22.667 5.66699 44 17 64s26 37.667 44 53c-4.66699 -0.666992 -9.33398 -1 -14.001 -1h-15c-36 0 -69 5.66699 -99 17
s-55.5 27.833 -76.5 49.5s-37.333 48.334 -49 80.001s-17.5 67.834 -17.5 108.501c0 38 6.33301 72.667 19 104s30.167 58.5 52.5 81.5s48.833 40.833 79.5 53.5s63.667 19 99 19c32 0 60.833 -5.16699 86.5 -15.5s47.5 -24.833 65.5 -43.5s31.833 -41 41.5 -67
s14.5 -54.333 14.5 -85c0 -18 -2 -35.333 -6 -52h-307c2 -59.333 16.5 -102.833 43.5 -130.5s60.833 -41.5 101.5 -41.5c29.333 0 53.5 6.5 72.5 19.5s36.167 31.5 51.5 55.5z" />
    <glyph glyph-name="Ecaron" unicode="&#x11a;" horiz-adv-x="598" 
d="M573 174l-7 -174h-534v50l81 9c1.33301 41.333 2 82.833 2 124.5v126.5v35v125.5c0 41.667 -0.666992 83.5 -2 125.5l-81 9v50h514l7 -174h-75l-21 119h-194c-1.33301 -38 -2 -76.333 -2 -115v-118h128l13 89h54v-232h-54l-12 88h-129v-131.5
c0 -42.333 0.666992 -84.5 2 -126.5h214l21 120h75zM472 836l-108 -126h-80l-108 126l31 31l117 -85l117 85z" />
    <glyph glyph-name="ecaron" unicode="&#x11b;" horiz-adv-x="527" 
d="M301 285c24 0 40.5 5 49.5 15s13.5 25.667 13.5 47c0 32 -6.66699 56.833 -20 74.5s-30.666 26.5 -51.999 26.5c-11.333 0 -23 -2.66699 -35 -8s-23.167 -14.333 -33.5 -27s-19.333 -29.5 -27 -50.5s-12.834 -46.833 -15.501 -77.5h120zM180 235
c2 -59.333 16.501 -102.835 43.501 -130.502s60.833 -41.5 101.5 -41.5c29.333 0 53.5 6.5 72.5 19.5s36.167 31.5 51.5 55.5l34 -19c-13.333 -44 -38.333 -77.333 -75 -100s-80.334 -34 -131.001 -34c-36 0 -69 5.66699 -99 17s-55.5 27.833 -76.5 49.5
s-37.333 48.334 -49 80.001s-17.5 67.834 -17.5 108.501c0 38 6.33301 72.667 19 104s30.167 58.5 52.5 81.5s48.833 40.833 79.5 53.5s63.667 19 99 19c32 0 60.833 -5.16699 86.5 -15.5s47.5 -24.833 65.5 -43.5s31.833 -41 41.5 -67s14.5 -54.333 14.5 -85
c0 -18.667 -2 -36 -6 -52h-307zM442.001 731.998l-111 -164h-82l-111 164l34 28l118 -111l118 111z" />
    <glyph glyph-name="Gbreve" unicode="&#x11e;" horiz-adv-x="674" 
d="M650 261l-54 -6.99512c-0.666992 -28 -1.16699 -55.833 -1.5 -83.5s-0.5 -55.834 -0.5 -84.501v-43c-35.333 -19.333 -70.333 -33.833 -105 -43.5s-72 -14.5 -112 -14.5c-52.667 0 -100.334 8.66699 -143.001 26s-79.167 41.166 -109.5 71.499
s-53.666 66.333 -69.999 108s-24.5 87.167 -24.5 136.5s8.33301 95 25 137s40.5 78.167 71.5 108.5s68.5 54.166 112.5 71.499s93.333 26 148 26c32 0 64 -3.5 96 -10.5s65.667 -19.167 101 -36.5l4 -142h-80l-18 111c-31.333 15.333 -63.333 23 -96 23
c-64.667 0 -116 -25 -154 -75s-57 -121 -57 -213c0 -45.333 5.5 -85.833 16.5 -121.5s26 -65.834 45 -90.501s41.5 -43.334 67.5 -56.001s54.333 -19 85 -19c19.333 0 37 2.33301 53 7v39c0 28 -0.166992 55.667 -0.5 83s-0.833008 55 -1.5 83l-74 9v50h276v-50z
M382 720.005c-26 0 -48.5 4.16797 -67.5 12.501s-35 19.333 -48 33s-23 28.667 -30 45s-11.167 32.5 -12.5 48.5l42 13c9.33301 -22 24 -40.5 44 -55.5s44 -22.5 72 -22.5s52.167 7.66699 72.5 23s34.833 33.666 43.5 54.999l42 -13c-1.33301 -16 -5.5 -32.167 -12.5 -48.5
s-17 -31.333 -30 -45s-29 -24.667 -48 -33s-41.5 -12.5 -67.5 -12.5z" />
    <glyph glyph-name="gbreve" unicode="&#x11f;" horiz-adv-x="544" 
d="M254 216c25.333 0 44.666 10.5 57.999 31.5s20 50.167 20 87.5s-6.66699 66.333 -20 87s-32.666 31 -57.999 31s-44.5 -10.333 -57.5 -31s-19.5 -49.667 -19.5 -87s6.5 -66.5 19.5 -87.5s32.167 -31.5 57.5 -31.5zM217 -15c-22.667 0 -42.334 1.99902 -59.001 5.99902
c-9.33301 -19.333 -14 -38.666 -14 -57.999c0 -31.333 9.66699 -53 29 -65s45 -18 77 -18c51.333 0 90.333 7.83301 117 23.5s40 35.167 40 58.5c0 13.333 -5.66699 25.5 -17 36.5s-32.666 16.5 -63.999 16.5h-109zM525 414.999l-94.999 -0.00292969
c14.667 -24 22 -50.667 22 -80c0 -24 -4.66699 -46 -14 -66s-22.666 -37.333 -39.999 -52s-38.166 -26 -62.499 -34s-51.5 -12 -81.5 -12c-26.667 0 -52 3.66699 -76 11c-4 -7.33301 -7.16699 -13.666 -9.5 -18.999s-3.5 -11.666 -3.5 -18.999c0 -25.333 18.333 -38 55 -38
h108c69.333 0 118.666 -11.833 147.999 -35.5s44 -55.5 44 -95.5c0 -24 -5.83301 -46.667 -17.5 -68s-29.167 -39.833 -52.5 -55.5s-53.166 -28.167 -89.499 -37.5s-78.833 -14 -127.5 -14c-72.667 0 -124.834 8.33301 -156.501 25s-47.5 41 -47.5 73
c0 20.667 6.66699 39.334 20 56.001s37 33.334 71 50.001c-19.333 9.33301 -33.333 21.5 -42 36.5s-13 31.167 -13 48.5c0 22.667 6.5 42.667 19.5 60s30.833 33.666 53.5 48.999c-25.333 14.667 -45.333 33.667 -60 57s-22 50 -22 80c0 24 4.66699 46 14 66
s22.666 37.167 39.999 51.5s38.166 25.5 62.499 33.5s51.5 12 81.5 12c54.667 0 99.667 -13 135 -39l121 39l15 -10v-73zM269.001 574.996c-26 0 -48.833 4.66797 -68.5 14.001s-36 21.5 -49 36.5s-23 31.5 -30 49.5s-11.167 36 -12.5 54l42 14
c10 -24.667 25.167 -45.334 45.5 -62.001s44.5 -25 72.5 -25s52.333 8.5 73 25.5s35.667 37.5 45 61.5l42 -14c-1.33301 -18 -5.5 -36 -12.5 -54s-17 -34.5 -30 -49.5s-29.333 -27.167 -49 -36.5s-42.5 -14 -68.5 -14z" />
    <glyph glyph-name="Gdotaccent" unicode="&#x120;" horiz-adv-x="674" 
d="M650 261l-54 -6.99512c-0.666992 -28 -1.16699 -55.833 -1.5 -83.5s-0.5 -55.834 -0.5 -84.501v-43c-35.333 -19.333 -70.333 -33.833 -105 -43.5s-72 -14.5 -112 -14.5c-52.667 0 -100.334 8.66699 -143.001 26s-79.167 41.166 -109.5 71.499
s-53.666 66.333 -69.999 108s-24.5 87.167 -24.5 136.5s8.33301 95 25 137s40.5 78.167 71.5 108.5s68.5 54.166 112.5 71.499s93.333 26 148 26c32 0 64 -3.5 96 -10.5s65.667 -19.167 101 -36.5l4 -142h-80l-18 111c-31.333 15.333 -63.333 23 -96 23
c-64.667 0 -116 -25 -154 -75s-57 -121 -57 -213c0 -45.333 5.5 -85.833 16.5 -121.5s26 -65.834 45 -90.501s41.5 -43.334 67.5 -56.001s54.333 -19 85 -19c19.333 0 37 2.33301 53 7v39c0 28 -0.166992 55.667 -0.5 83s-0.833008 55 -1.5 83l-74 9v50h276v-50z
M377 716.005c-22 0 -40.833 7.16699 -56.5 21.5s-23.5 32.5 -23.5 54.5c0 22.667 7.83301 40.834 23.5 54.501s34.5 20.5 56.5 20.5s40.833 -6.83301 56.5 -20.5s23.5 -31.834 23.5 -54.501c0 -22 -7.83301 -40.167 -23.5 -54.5s-34.5 -21.5 -56.5 -21.5z" />
    <glyph glyph-name="gdotaccent" unicode="&#x121;" horiz-adv-x="544" 
d="M254 216c25.333 0 44.666 10.5 57.999 31.5s20 50.167 20 87.5s-6.66699 66.333 -20 87s-32.666 31 -57.999 31s-44.5 -10.333 -57.5 -31s-19.5 -49.667 -19.5 -87s6.5 -66.5 19.5 -87.5s32.167 -31.5 57.5 -31.5zM217 -15c-22.667 0 -42.334 1.99902 -59.001 5.99902
c-9.33301 -19.333 -14 -38.666 -14 -57.999c0 -31.333 9.66699 -53 29 -65s45 -18 77 -18c51.333 0 90.333 7.83301 117 23.5s40 35.167 40 58.5c0 13.333 -5.66699 25.5 -17 36.5s-32.666 16.5 -63.999 16.5h-109zM525 414.999l-94.999 -0.00292969
c14.667 -24 22 -50.667 22 -80c0 -24 -4.66699 -46 -14 -66s-22.666 -37.333 -39.999 -52s-38.166 -26 -62.499 -34s-51.5 -12 -81.5 -12c-26.667 0 -52 3.66699 -76 11c-4 -7.33301 -7.16699 -13.666 -9.5 -18.999s-3.5 -11.666 -3.5 -18.999c0 -25.333 18.333 -38 55 -38
h108c69.333 0 118.666 -11.833 147.999 -35.5s44 -55.5 44 -95.5c0 -24 -5.83301 -46.667 -17.5 -68s-29.167 -39.833 -52.5 -55.5s-53.166 -28.167 -89.499 -37.5s-78.833 -14 -127.5 -14c-72.667 0 -124.834 8.33301 -156.501 25s-47.5 41 -47.5 73
c0 20.667 6.66699 39.334 20 56.001s37 33.334 71 50.001c-19.333 9.33301 -33.333 21.5 -42 36.5s-13 31.167 -13 48.5c0 22.667 6.5 42.667 19.5 60s30.833 33.666 53.5 48.999c-25.333 14.667 -45.333 33.667 -60 57s-22 50 -22 80c0 24 4.66699 46 14 66
s22.666 37.167 39.999 51.5s38.166 25.5 62.499 33.5s51.5 12 81.5 12c54.667 0 99.667 -13 135 -39l121 39l15 -10v-73zM260.001 580.996c-22.667 0 -42.167 7.5 -58.5 22.5s-24.5 34.167 -24.5 57.5s8.16699 42.333 24.5 57s35.833 22 58.5 22
c23.333 0 43 -7.33301 59 -22s24 -33.667 24 -57s-8 -42.5 -24 -57.5s-35.667 -22.5 -59 -22.5z" />
    <glyph glyph-name="uni0122" unicode="&#x122;" horiz-adv-x="674" 
d="M650 261l-54 -6.99512c-0.666992 -28 -1.16699 -55.833 -1.5 -83.5s-0.5 -55.834 -0.5 -84.501v-43c-35.333 -19.333 -70.333 -33.833 -105 -43.5s-72 -14.5 -112 -14.5c-52.667 0 -100.334 8.66699 -143.001 26s-79.167 41.166 -109.5 71.499
s-53.666 66.333 -69.999 108s-24.5 87.167 -24.5 136.5s8.33301 95 25 137s40.5 78.167 71.5 108.5s68.5 54.166 112.5 71.499s93.333 26 148 26c32 0 64 -3.5 96 -10.5s65.667 -19.167 101 -36.5l4 -142h-80l-18 111c-31.333 15.333 -63.333 23 -96 23
c-64.667 0 -116 -25 -154 -75s-57 -121 -57 -213c0 -45.333 5.5 -85.833 16.5 -121.5s26 -65.834 45 -90.501s41.5 -43.334 67.5 -56.001s54.333 -19 85 -19c19.333 0 37 2.33301 53 7v39c0 28 -0.166992 55.667 -0.5 83s-0.833008 55 -1.5 83l-74 9v50h276v-50z
M285 -230.995c18 7.33301 33.832 14.999 47.499 22.999s26.167 18.333 37.5 31c-15.333 6.66699 -28.666 15.667 -39.999 27s-17 25.333 -17 42s6 31.334 18 44.001s28 19 48 19c8.66699 0 17.5 -1.5 26.5 -4.5s18.167 -8.83301 27.5 -17.5
c4.66699 -9.33301 7.83398 -19 9.50098 -29s2.5 -19 2.5 -27c0 -18.667 -4 -35.667 -12 -51s-18.667 -29 -32 -41s-28.833 -22.667 -46.5 -32s-35.834 -17 -54.501 -23z" />
    <glyph glyph-name="uni0123" unicode="&#x123;" horiz-adv-x="544" 
d="M254 216c25.333 0 44.666 10.5 57.999 31.5s20 50.167 20 87.5s-6.66699 66.333 -20 87s-32.666 31 -57.999 31s-44.5 -10.333 -57.5 -31s-19.5 -49.667 -19.5 -87s6.5 -66.5 19.5 -87.5s32.167 -31.5 57.5 -31.5zM217 -15c-22.667 0 -42.334 1.99902 -59.001 5.99902
c-9.33301 -19.333 -14 -38.666 -14 -57.999c0 -31.333 9.66699 -53 29 -65s45 -18 77 -18c51.333 0 90.333 7.83301 117 23.5s40 35.167 40 58.5c0 13.333 -5.66699 25.5 -17 36.5s-32.666 16.5 -63.999 16.5h-109zM525 414.999l-94.999 -0.00292969
c14.667 -24 22 -50.667 22 -80c0 -24 -4.66699 -46 -14 -66s-22.666 -37.333 -39.999 -52s-38.166 -26 -62.499 -34s-51.5 -12 -81.5 -12c-26.667 0 -52 3.66699 -76 11c-4 -7.33301 -7.16699 -13.666 -9.5 -18.999s-3.5 -11.666 -3.5 -18.999c0 -25.333 18.333 -38 55 -38
h108c69.333 0 118.666 -11.833 147.999 -35.5s44 -55.5 44 -95.5c0 -24 -5.83301 -46.667 -17.5 -68s-29.167 -39.833 -52.5 -55.5s-53.166 -28.167 -89.499 -37.5s-78.833 -14 -127.5 -14c-72.667 0 -124.834 8.33301 -156.501 25s-47.5 41 -47.5 73
c0 20.667 6.66699 39.334 20 56.001s37 33.334 71 50.001c-19.333 9.33301 -33.333 21.5 -42 36.5s-13 31.167 -13 48.5c0 22.667 6.5 42.667 19.5 60s30.833 33.666 53.5 48.999c-25.333 14.667 -45.333 33.667 -60 57s-22 50 -22 80c0 24 4.66699 46 14 66
s22.666 37.167 39.999 51.5s38.166 25.5 62.499 33.5s51.5 12 81.5 12c54.667 0 99.667 -13 135 -39l121 39l15 -10v-73zM369.001 754.996c-18 -7.33301 -33.8291 -14.999 -47.4961 -22.999s-26.167 -18.333 -37.5 -31c15.333 -6.66699 28.666 -15.667 39.999 -27
s17 -25.333 17 -42s-6 -31.334 -18 -44.001s-28 -19 -48 -19c-8.66699 0 -17.5 1.5 -26.5 4.5s-18.167 8.83301 -27.5 17.5c-4.66699 9.33301 -7.83398 19 -9.50098 29s-2.5 19 -2.5 27c0 18.667 4 35.667 12 51s18.667 29 32 41s28.666 22.667 45.999 32
s35.666 17 54.999 23z" />
    <glyph glyph-name="Imacron" unicode="&#x12a;" horiz-adv-x="376" 
d="M263 596c-1.33301 -41.333 -2 -82.833 -2 -124.5v-126.5v-35v-125.5c0 -41.667 0.666992 -83.5 2 -125.5l81 -9v-50h-312v50l81 9c1.33301 41.333 2 82.833 2 124.5v126.5v35v125.5c0 41.667 -0.666992 83.5 -2 125.5l-81 9v50h312v-50zM33 814h310v-82h-310v82z" />
    <glyph glyph-name="imacron" unicode="&#x12b;" horiz-adv-x="309" 
d="M294 44v-43.999h-256v44l61 12c0.666992 25.333 1 52 1 80v74v50c0 27.333 -0.333008 50.166 -1 68.499l-2 57.5l-67 9v38l194 65l15 -10l-3 -143v-135v-74.5c0 -28.333 0.333008 -54.833 1 -79.5zM2 685.001h300v-82h-300v82z" />
    <glyph glyph-name="Iogonek" unicode="&#x12e;" horiz-adv-x="376" 
d="M263 596c-1.33301 -41.333 -2 -82.833 -2 -124.5v-126.5v-35v-125.5c0 -41.667 0.666992 -83.5 2 -125.5l81 -9v-50h-312v50l81 9c1.33301 41.333 2 82.833 2 124.5v126.5v35v125.5c0 41.667 -0.666992 83.5 -2 125.5l-81 9v50h312v-50zM108 -131
c0 17.333 3.33398 33.498 10.001 48.498s15.834 28.833 27.501 41.5s25.167 24.334 40.5 35.001s32 20.667 50 30h37c-23.333 -14 -40.833 -30.5 -52.5 -49.5s-17.5 -38.5 -17.5 -58.5c0 -24.667 7.5 -42.667 22.5 -54s32.167 -17 51.5 -17
c15.333 0 32.666 2.66699 51.999 8l14 -38c-15.333 -13.333 -34.5 -24.166 -57.5 -32.499s-45.167 -12.5 -66.5 -12.5c-34.667 0 -61.834 9 -81.501 27s-29.5 42 -29.5 72z" />
    <glyph glyph-name="iogonek" unicode="&#x12f;" horiz-adv-x="309" 
d="M166 581c-22.667 0 -42.167 7.5 -58.5 22.5s-24.5 34.167 -24.5 57.5s8.16699 42.333 24.5 57s35.833 22 58.5 22c23.333 0 43 -7.33301 59 -22s24 -33.667 24 -57s-8 -42.5 -24 -57.5s-35.667 -22.5 -59 -22.5zM294 44v-43.999h-256v44l61 12c0.666992 25.333 1 52 1 80
v74v50c0 27.333 -0.333008 50.166 -1 68.499l-2 57.5l-67 9v38l194 65l15 -10l-3 -143v-135v-74.5c0 -28.333 0.333008 -54.833 1 -79.5zM67 -130.999c0 17.333 3.33398 33.498 10.001 48.498s15.834 28.833 27.501 41.5s25.167 24.334 40.5 35.001s32 20.667 50 30h37
c-23.333 -14 -40.833 -30.5 -52.5 -49.5s-17.5 -38.5 -17.5 -58.5c0 -24.667 7.5 -42.667 22.5 -54s32.167 -17 51.5 -17c15.333 0 32.666 2.66699 51.999 8l14 -38c-15.333 -13.333 -34.5 -24.166 -57.5 -32.499s-45.167 -12.5 -66.5 -12.5c-34.667 0 -61.834 9 -81.501 27
s-29.5 42 -29.5 72z" />
    <glyph glyph-name="Idotaccent" unicode="&#x130;" horiz-adv-x="376" 
d="M263 596c-1.33301 -41.333 -2 -82.833 -2 -124.5v-126.5v-35v-125.5c0 -41.667 0.666992 -83.5 2 -125.5l81 -9v-50h-312v50l81 9c1.33301 41.333 2 82.833 2 124.5v126.5v35v125.5c0 41.667 -0.666992 83.5 -2 125.5l-81 9v50h312v-50zM188 716
c-22 0 -40.833 7.16699 -56.5 21.5s-23.5 32.5 -23.5 54.5c0 22.667 7.83301 40.834 23.5 54.501s34.5 20.5 56.5 20.5s40.833 -6.83301 56.5 -20.5s23.5 -31.834 23.5 -54.501c0 -22 -7.83301 -40.167 -23.5 -54.5s-34.5 -21.5 -56.5 -21.5z" />
    <glyph glyph-name="dotlessi" unicode="&#x131;" horiz-adv-x="309" 
d="M294 44v-43.999h-256v44l61 12c0.666992 25.333 1 52 1 80v74v50c0 27.333 -0.333008 50.166 -1 68.499l-2 57.5l-67 9v38l194 65l15 -10l-3 -143v-135v-74.5c0 -28.333 0.333008 -54.833 1 -79.5z" />
    <glyph glyph-name="uni0136" unicode="&#x136;" horiz-adv-x="701" 
d="M701 50v-50h-296v50l59 6l-135 268l-68 -83v-91.5c0 -30.333 0.666992 -60.5 2 -90.5l81 -9v-50h-312v50l81 9c1.33301 41.333 2 82.833 2 124.5v126.5v35v125.5c0 41.667 -0.666992 83.5 -2 125.5l-81 9v50h312v-50l-81 -9c-1.33301 -41.333 -2 -82.833 -2 -124.5
v-126.5v-26l222 276l-54 10v50h226v-50l-105 -13l-133 -161l205 -372zM273 -231c18 7.33301 33.832 14.999 47.499 22.999s26.167 18.333 37.5 31c-15.333 6.66699 -28.666 15.667 -39.999 27s-17 25.333 -17 42s6 31.334 18 44.001s28 19 48 19
c8.66699 0 17.5 -1.5 26.5 -4.5s18.167 -8.83301 27.5 -17.5c4.66699 -9.33301 7.83398 -19 9.50098 -29s2.5 -19 2.5 -27c0 -18.667 -4 -35.667 -12 -51s-18.667 -29 -32 -41s-28.833 -22.667 -46.5 -32s-35.834 -17 -54.501 -23z" />
    <glyph glyph-name="uni0137" unicode="&#x137;" horiz-adv-x="590" 
d="M595 44v-44.001h-188l-132 234l-48 -46c0 -20 0.166992 -41.667 0.5 -65s0.5 -45.666 0.5 -66.999l61 -12v-44h-256v44l61 12c0.666992 25.333 1 52 1 80v74v415l-75 10v40l197 45l14 -8l-4 -142v-321l180 176l-74 11v44h230v-44l-91 -12l-103 -99l153 -264z
M208 -231.001c18 7.33301 33.832 14.999 47.499 22.999s26.167 18.333 37.5 31c-15.333 6.66699 -28.666 15.667 -39.999 27s-17 25.333 -17 42s6 31.334 18 44.001s28 19 48 19c8.66699 0 17.5 -1.5 26.5 -4.5s18.167 -8.83301 27.5 -17.5
c4.66699 -9.33301 7.83398 -19 9.50098 -29s2.5 -19 2.5 -27c0 -18.667 -4 -35.667 -12 -51s-18.667 -29 -32 -41s-28.833 -22.667 -46.5 -32s-35.834 -17 -54.501 -23z" />
    <glyph glyph-name="Lacute" unicode="&#x139;" horiz-adv-x="580" 
d="M560 194l-10 -194h-518v50l81 9c1.33301 41.333 2 82.833 2 124.5v126.5v35v125.5c0 41.667 -0.666992 83.5 -2 125.5l-81 9v50h317v-50l-86 -9c-1.33301 -42 -2 -83.667 -2 -125v-126v-35v-127.5c0 -42.333 0.666992 -84.833 2 -127.5h190l28 139h79zM253 839
c15.333 14 28.333 24 39 30s21 9 31 9c14 0 25.333 -4.5 34 -13.5s13 -19.5 13 -31.5c0 -9.33301 -3.66699 -19 -11 -29s-22.333 -20.667 -45 -32l-144 -70l-25 34z" />
    <glyph glyph-name="lacute" unicode="&#x13a;" horiz-adv-x="309" 
d="M287 44v-44h-254v44l60 12c0.666992 26 1.16699 51.833 1.5 77.5s0.5 51.167 0.5 76.5v415l-75 10v40l199 45l14 -8l-4 -142v-360c0 -25.333 0.166992 -51 0.5 -77s0.833008 -51.667 1.5 -77zM156 879c15.333 14 28.333 24 39 30s21 9 31 9c14 0 25.333 -4.5 34 -13.5
s13 -19.5 13 -31.5c0 -9.33301 -3.66699 -19 -11 -29s-22.333 -20.667 -45 -32l-144 -70l-25 34z" />
    <glyph glyph-name="Lcaron" unicode="&#x13d;" horiz-adv-x="580" 
d="M560 194l-10 -194h-518v50l81 9c1.33301 41.333 2 82.833 2 124.5v126.5v35v125.5c0 41.667 -0.666992 83.5 -2 125.5l-81 9v50h317v-50l-86 -9c-1.33301 -42 -2 -83.667 -2 -125v-126v-35v-127.5c0 -42.333 0.666992 -84.833 2 -127.5h190l28 139h79zM510 735
c17.333 0 29.502 -4.16699 36.502 -12.5s10.5 -20.166 10.5 -35.499c0 -12 -2 -24.833 -6 -38.5s-10.333 -30.5 -19 -50.5l-35 -82h-44l4 204c9.33301 5.33301 18.166 9.16602 26.499 11.499s17.166 3.5 26.499 3.5z" />
    <glyph glyph-name="lcaron" unicode="&#x13e;" horiz-adv-x="329" 
d="M287 44v-44h-254v44l60 12c0.666992 26 1.16699 51.833 1.5 77.5s0.5 51.167 0.5 76.5v415l-75 10v40l199 45l14 -8l-4 -142v-360c0 -25.333 0.166992 -51 0.5 -77s0.833008 -51.667 1.5 -77zM355 735c17.333 0 29.502 -4.16699 36.502 -12.5s10.5 -20.166 10.5 -35.499
c0 -12 -2 -24.833 -6 -38.5s-10.333 -30.5 -19 -50.5l-35 -82h-44l4 204c9.33301 5.33301 18.166 9.16602 26.499 11.499s17.166 3.5 26.499 3.5z" />
    <glyph glyph-name="Ldot" unicode="&#x13f;" horiz-adv-x="580" 
d="M560 194l-10 -194h-518v50l81 9c1.33301 41.333 2 82.833 2 124.5v126.5v35v125.5c0 41.667 -0.666992 83.5 -2 125.5l-81 9v50h317v-50l-86 -9c-1.33301 -42 -2 -83.667 -2 -125v-126v-35v-127.5c0 -42.333 0.666992 -84.833 2 -127.5h190l28 139h79zM477 305
c-12 0 -22.998 2.16699 -32.998 6.5s-18.833 10.333 -26.5 18s-13.667 16.667 -18 27s-6.5 21.166 -6.5 32.499c0 23.333 8.16699 43.333 24.5 60s36.166 25 59.499 25s43.166 -8.33301 59.499 -25s24.5 -36.667 24.5 -60c0 -11.333 -2.16699 -22.166 -6.5 -32.499
s-10.333 -19.333 -18 -27s-16.5 -13.667 -26.5 -18s-21 -6.5 -33 -6.5z" />
    <glyph glyph-name="ldot" unicode="&#x140;" horiz-adv-x="410" 
d="M229 210c0 -25.333 0.166992 -51 0.5 -77s0.833008 -51.667 1.5 -77l56 -12v-44h-254v44l60 12c0.666992 26 1.16699 51.833 1.5 77.5s0.5 51.167 0.5 76.5v415l-75 10v40l199 45l14 -8l-4 -142v-360zM367 419c23.333 0 43 -7.33301 59 -22s24 -33.667 24 -57
s-8 -42.5 -24 -57.5s-35.667 -22.5 -59 -22.5c-22.667 0 -42.167 7.5 -58.5 22.5s-24.5 34.167 -24.5 57.5s8.16699 42.333 24.5 57s35.833 22 58.5 22z" />
    <glyph glyph-name="Lslash" unicode="&#x141;" horiz-adv-x="580" 
d="M560 193l-10 -193.999h-518v50l81 9c1.33301 29.333 2 58.666 2 87.999v89l-83 -47v76l83 48v32v125.5c0 41.667 -0.666992 83.5 -2 125.5l-81 9v50h317v-50l-86 -9c-1.33301 -35.333 -2 -70.5 -2 -105.5v-106.5l135 77v-77l-135 -77v-126c0 -42 0.666992 -84 2 -126h190
l28 139h79z" />
    <glyph glyph-name="lslash" unicode="&#x142;" horiz-adv-x="309" 
d="M229 209c0 -25.333 0.166992 -51 0.5 -77s0.833008 -51.667 1.5 -77l56 -12v-44h-254v44l60 12c0.666992 26 1.16699 51.833 1.5 77.5s0.5 51.167 0.5 76.5v114l-75 -39v78l75 39v223l-75 10v40l199 45l14 -8l-4 -142v-113l77 39v-76l-77 -40v-170z" />
    <glyph glyph-name="Nacute" unicode="&#x143;" horiz-adv-x="761" 
d="M735 605l-93 -13v-602h-50l-414 515v-442l114 -13v-50h-266v50l93 13v516l-15 18l-68 7v51h197l351 -443v380l-115 13v50h266v-50zM400 825c15.333 14 28.333 24 39 30s21 9 31 9c14 0 25.333 -4.5 34 -13.5s13 -19.5 13 -31.5c0 -9.33301 -3.66699 -19 -11 -29
s-22.333 -20.667 -45 -32l-144 -70l-25 34z" />
    <glyph glyph-name="nacute" unicode="&#x144;" horiz-adv-x="624" 
d="M602 44l-0.00292969 -43.999h-256v44l61 12c0.666992 24.667 1 51 1 79v75v96c0 38 -4 65.833 -12 83.5s-23.667 26.5 -47 26.5c-19.333 0 -38.166 -5.16699 -56.499 -15.5s-37.166 -24.833 -56.499 -43.5v-147v-74.5c0 -28.333 0.333008 -54.833 1 -79.5l57 -12v-44
h-256v44l61 12c0.666992 25.333 1 52 1 80v74v57v36.5c0 10.333 -0.166992 20 -0.5 29l-1 26c-0.333008 8.33301 -0.833008 17.5 -1.5 27.5l-67 9v38l181 65l15 -10l7 -79c14 16 27.167 29.5 39.5 40.5s24.833 20.167 37.5 27.5s25.834 12.666 39.501 15.999
s29.167 5 46.5 5c48 0 84.667 -14.167 110 -42.5s38 -72.833 38 -133.5v-112v-75.5c0 -28.333 0.333008 -54.5 1 -78.5zM308.997 671.001c19.333 34 36.002 57.8311 50.002 71.498s29.333 20.5 46 20.5c14 0 25.833 -4.16699 35.5 -12.5s14.5 -20.166 14.5 -35.499
c0 -6.66699 -1.16699 -13.167 -3.5 -19.5s-6.33301 -13.166 -12 -20.499s-13.334 -15.333 -23.001 -24s-21.834 -19 -36.501 -31l-95 -77l-34 27z" />
    <glyph glyph-name="uni0145" unicode="&#x145;" horiz-adv-x="761" 
d="M735 605l-93 -13v-602h-50l-414 515v-442l114 -13v-50h-266v50l93 13v516l-15 18l-68 7v51h197l351 -443v380l-115 13v50h266v-50zM326 -221c18 7.33301 33.832 14.999 47.499 22.999s26.167 18.333 37.5 31c-15.333 6.66699 -28.666 15.667 -39.999 27
s-17 25.333 -17 42s6 31.334 18 44.001s28 19 48 19c8.66699 0 17.5 -1.5 26.5 -4.5s18.167 -8.83301 27.5 -17.5c4.66699 -9.33301 7.83398 -19 9.50098 -29s2.5 -19 2.5 -27c0 -18.667 -4 -35.667 -12 -51s-18.667 -29 -32 -41s-28.833 -22.667 -46.5 -32
s-35.834 -17 -54.501 -23z" />
    <glyph glyph-name="uni0146" unicode="&#x146;" horiz-adv-x="624" 
d="M602 44l-0.00292969 -43.999h-256v44l61 12c0.666992 24.667 1 51 1 79v75v96c0 38 -4 65.833 -12 83.5s-23.667 26.5 -47 26.5c-19.333 0 -38.166 -5.16699 -56.499 -15.5s-37.166 -24.833 -56.499 -43.5v-147v-74.5c0 -28.333 0.333008 -54.833 1 -79.5l57 -12v-44
h-256v44l61 12c0.666992 25.333 1 52 1 80v74v57v36.5c0 10.333 -0.166992 20 -0.5 29l-1 26c-0.333008 8.33301 -0.833008 17.5 -1.5 27.5l-67 9v38l181 65l15 -10l7 -79c14 16 27.167 29.5 39.5 40.5s24.833 20.167 37.5 27.5s25.834 12.666 39.501 15.999
s29.167 5 46.5 5c48 0 84.667 -14.167 110 -42.5s38 -72.833 38 -133.5v-112v-75.5c0 -28.333 0.333008 -54.5 1 -78.5zM234.997 -230.999c18 7.33301 33.832 14.999 47.499 22.999s26.167 18.333 37.5 31c-15.333 6.66699 -28.666 15.667 -39.999 27s-17 25.333 -17 42
s6 31.334 18 44.001s28 19 48 19c8.66699 0 17.5 -1.5 26.5 -4.5s18.167 -8.83301 27.5 -17.5c4.66699 -9.33301 7.83398 -19 9.50098 -29s2.5 -19 2.5 -27c0 -18.667 -4 -35.667 -12 -51s-18.667 -29 -32 -41s-28.833 -22.667 -46.5 -32s-35.834 -17 -54.501 -23z" />
    <glyph glyph-name="Ncaron" unicode="&#x147;" horiz-adv-x="761" 
d="M735 605l-93 -13v-602h-50l-414 515v-442l114 -13v-50h-266v50l93 13v516l-15 18l-68 7v51h197l351 -443v380l-115 13v50h266v-50zM521 827l-108 -126h-80l-108 126l31 31l117 -85l117 85z" />
    <glyph glyph-name="ncaron" unicode="&#x148;" horiz-adv-x="624" 
d="M602 44l-0.00292969 -43.999h-256v44l61 12c0.666992 24.667 1 51 1 79v75v96c0 38 -4 65.833 -12 83.5s-23.667 26.5 -47 26.5c-19.333 0 -38.166 -5.16699 -56.499 -15.5s-37.166 -24.833 -56.499 -43.5v-147v-74.5c0 -28.333 0.333008 -54.833 1 -79.5l57 -12v-44
h-256v44l61 12c0.666992 25.333 1 52 1 80v74v57v36.5c0 10.333 -0.166992 20 -0.5 29l-1 26c-0.333008 8.33301 -0.833008 17.5 -1.5 27.5l-67 9v38l181 65l15 -10l7 -79c14 16 27.167 29.5 39.5 40.5s24.833 20.167 37.5 27.5s25.834 12.666 39.501 15.999
s29.167 5 46.5 5c48 0 84.667 -14.167 110 -42.5s38 -72.833 38 -133.5v-112v-75.5c0 -28.333 0.333008 -54.5 1 -78.5zM471.997 732.001l-111 -164h-82l-111 164l34 28l118 -111l118 111z" />
    <glyph glyph-name="Omacron" unicode="&#x14c;" horiz-adv-x="708" 
d="M185 327c0 -36 3 -71.167 9 -105.5s15.833 -65 29.5 -92s31.167 -48.667 52.5 -65s47.333 -24.5 78 -24.5s56.667 8.16699 78 24.5s38.666 38 51.999 65s23.166 57.667 29.499 92s9.5 69.5 9.5 105.5s-3.16699 71.333 -9.5 106s-16.166 65.5 -29.499 92.5
s-30.666 48.667 -51.999 65s-47.333 24.5 -78 24.5s-56.667 -8.16699 -78 -24.5s-38.833 -38 -52.5 -65s-23.5 -57.833 -29.5 -92.5s-9 -70 -9 -106zM354 670c39.333 0 78.166 -7.16699 116.499 -21.5s72.833 -35.666 103.5 -63.999s55.334 -64 74.001 -107
s28 -93.167 28 -150.5s-9.33301 -107.333 -28 -150s-43.167 -78.167 -73.5 -106.5s-64.833 -49.666 -103.5 -63.999s-77.667 -21.5 -117 -21.5s-78.333 7.16699 -117 21.5s-73.167 35.666 -103.5 63.999s-54.833 63.833 -73.5 106.5s-28 92.667 -28 150
s9.33301 107.5 28 150.5s43.334 78.667 74.001 107s65.167 49.666 103.5 63.999s77.166 21.5 116.499 21.5zM199 814h310v-82h-310v82z" />
    <glyph glyph-name="omacron" unicode="&#x14d;" horiz-adv-x="566" 
d="M283 448c-70 0 -105 -69 -105 -207c0 -70.667 8.83301 -122.667 26.5 -156s43.834 -50 78.501 -50c35.333 0 61.666 16.667 78.999 50s26 85.333 26 156c0 138 -35 207 -105 207zM283 498c33.333 0 65.1689 -6 95.502 -18s57.166 -29.167 80.499 -51.5s42 -49.333 56 -81
s21 -67.5 21 -107.5s-6.33301 -75.667 -19 -107s-30.334 -58 -53.001 -80s-49.5 -38.833 -80.5 -50.5s-64.5 -17.5 -100.5 -17.5s-69.5 5.83301 -100.5 17.5s-57.667 28.5 -80 50.5s-40 48.667 -53 80s-19.5 67 -19.5 107s6.83301 75.833 20.5 107.5s32.167 58.667 55.5 81
s50.333 39.5 81 51.5s62.667 18 96 18zM133.003 685h300v-82h-300v82z" />
    <glyph glyph-name="Ohungarumlaut" unicode="&#x150;" horiz-adv-x="708" 
d="M185 327c0 -36 3 -71.167 9 -105.5s15.833 -65 29.5 -92s31.167 -48.667 52.5 -65s47.333 -24.5 78 -24.5s56.667 8.16699 78 24.5s38.666 38 51.999 65s23.166 57.667 29.499 92s9.5 69.5 9.5 105.5s-3.16699 71.333 -9.5 106s-16.166 65.5 -29.499 92.5
s-30.666 48.667 -51.999 65s-47.333 24.5 -78 24.5s-56.667 -8.16699 -78 -24.5s-38.833 -38 -52.5 -65s-23.5 -57.833 -29.5 -92.5s-9 -70 -9 -106zM354 670c39.333 0 78.166 -7.16699 116.499 -21.5s72.833 -35.666 103.5 -63.999s55.334 -64 74.001 -107
s28 -93.167 28 -150.5s-9.33301 -107.333 -28 -150s-43.167 -78.167 -73.5 -106.5s-64.833 -49.666 -103.5 -63.999s-77.667 -21.5 -117 -21.5s-78.333 7.16699 -117 21.5s-73.167 35.666 -103.5 63.999s-54.833 63.833 -73.5 106.5s-28 92.667 -28 150
s9.33301 107.5 28 150.5s43.334 78.667 74.001 107s65.167 49.666 103.5 63.999s77.166 21.5 116.499 21.5zM295 846c7.33301 16 15.999 27.501 25.999 34.501s20 10.5 30 10.5c10.667 0 20.334 -3.5 29.001 -10.5s13 -16.167 13 -27.5c0 -5.33301 -1.5 -11.833 -4.5 -19.5
s-9.16699 -16.834 -18.5 -27.501l-97 -110l-36 22zM451.999 846.001c7.33301 16 15.999 27.5 25.999 34.5s20 10.5 30 10.5c10.667 0 20.334 -3.5 29.001 -10.5s13 -16.167 13 -27.5c0 -5.33301 -1.5 -12 -4.5 -20s-8.83301 -17 -17.5 -27l-98 -110l-35 22z" />
    <glyph glyph-name="ohungarumlaut" unicode="&#x151;" horiz-adv-x="566" 
d="M283 448c-70 0 -105 -69 -105 -207c0 -70.667 8.83301 -122.667 26.5 -156s43.834 -50 78.501 -50c35.333 0 61.666 16.667 78.999 50s26 85.333 26 156c0 138 -35 207 -105 207zM283 498c33.333 0 65.1689 -6 95.502 -18s57.166 -29.167 80.499 -51.5s42 -49.333 56 -81
s21 -67.5 21 -107.5s-6.33301 -75.667 -19 -107s-30.334 -58 -53.001 -80s-49.5 -38.833 -80.5 -50.5s-64.5 -17.5 -100.5 -17.5s-69.5 5.83301 -100.5 17.5s-57.667 28.5 -80 50.5s-40 48.667 -53 80s-19.5 67 -19.5 107s6.83301 75.833 20.5 107.5s32.167 58.667 55.5 81
s50.333 39.5 81 51.5s62.667 18 96 18zM248.003 708c10 23.333 20.5 39.668 31.5 49.001s22.167 14 33.5 14c10.667 0 20 -3.33301 28 -10s12 -16.334 12 -29.001c0 -9.33301 -2.5 -18.833 -7.5 -28.5s-13.167 -21.5 -24.5 -35.5l-96 -122l-38 21zM388.003 708.002
c10.667 24 21.333 40.501 32 49.501s21.667 13.5 33 13.5s20.666 -3.33301 27.999 -10s11 -16.334 11 -29.001c0 -9.33301 -2.16699 -18.833 -6.5 -28.5s-12.166 -21.5 -23.499 -35.5l-97 -122l-39 21z" />
    <glyph glyph-name="OE" unicode="&#x152;" horiz-adv-x="933" 
d="M450 345l0.000976562 133c0 44.667 -0.666992 89 -2 133c-16 2 -33 3 -51 3c-34.667 0 -65.334 -8.16699 -92.001 -24.5s-49 -38 -67 -65s-31.667 -57.667 -41 -92s-14 -69.5 -14 -105.5s4.66699 -71.167 14 -105.5s23.166 -65 41.499 -92s40.833 -48.667 67.5 -65
s57.334 -24.5 92.001 -24.5c8.66699 0 17.167 0.333008 25.5 1s16.5 1.66699 24.5 3c1.33301 44 2 88 2 132v134v35zM908.001 174l-7 -174.001h-378c-21.333 -5.33301 -43.333 -9.16602 -66 -11.499s-47.667 -3.5 -75 -3.5c-40.667 0 -81.834 6.83301 -123.501 20.5
s-79.5 34.667 -113.5 63s-61.667 64 -83 107s-32 93.5 -32 151.5s10.667 108.5 32 151.5s49 78.667 83 107s71.833 49.333 113.5 63s82.834 20.5 123.501 20.5c27.333 0 52.333 -1 75 -3s44.667 -5.66699 66 -11h358l7 -174h-75l-21 119h-194
c-1.33301 -38 -2 -76.333 -2 -115v-118h128l13 89h54v-232h-54l-12 88h-129v-131.5c0 -42.333 0.666992 -84.5 2 -126.5h214l21 120h75z" />
    <glyph glyph-name="oe" unicode="&#x153;" horiz-adv-x="867" 
d="M641 285c24.667 0 41.332 4.83496 49.999 14.502s13 25.167 13 46.5c0 33.333 -6.83301 58.666 -20.5 75.999s-31.167 26 -52.5 26c-11.333 0 -23 -2.83301 -35 -8.5s-23.167 -14.834 -33.5 -27.501s-19.166 -29.5 -26.499 -50.5s-12.333 -46.5 -15 -76.5h120z
M282.998 35.002c35.333 0 61.668 16.667 79.001 50s26 85.333 26 156c0 138 -35 207 -105 207s-105 -69 -105 -207c0 -70.667 8.66699 -122.667 26 -156s43.666 -50 78.999 -50zM520 235.002c2 -59.333 15.9961 -102.834 41.9961 -130.501s61 -41.5 105 -41.5
c27.333 0 50.833 6.5 70.5 19.5s37.167 31.5 52.5 55.5l33 -19c-14 -45.333 -39.5 -79 -76.5 -101s-79.833 -33 -128.5 -33c-33.333 0 -64.166 5.16699 -92.499 15.5s-53.166 26.833 -74.499 49.5c-23.333 -22.667 -50.166 -39.167 -80.499 -49.5
s-63.166 -15.5 -98.499 -15.5c-34 0 -65.833 5.83301 -95.5 17.5s-55.334 28.5 -77.001 50.5s-38.667 48.667 -51 80s-18.5 67 -18.5 107s7 75.833 21 107.5s32.667 58.667 56 81s50.333 39.5 81 51.5s63 18 97 18c30.667 0 61.167 -5.33301 91.5 -16s56.5 -29.667 78.5 -57
c22 26 48 44.667 78 56s61.333 17 94 17c32 0 60.667 -5.16699 86 -15.5s46.833 -24.666 64.5 -42.999s31.334 -40.5 41.001 -66.5s14.5 -54.667 14.5 -86c0 -18.667 -2 -36 -6 -52h-307z" />
    <glyph glyph-name="Racute" unicode="&#x154;" horiz-adv-x="671" 
d="M303 349c25.333 0 46.833 3.5 64.5 10.5s32 16.333 43 28s19 25.5 24 41.5s7.5 33 7.5 51c0 40 -11 70 -33 90s-57.333 30 -106 30h-42c-1.33301 -41.333 -2 -82.833 -2 -124.5v-126.5h44zM664 50l0.000976562 -50.0029c-20 -4 -37.667 -6.66699 -53 -8s-30 -2 -44 -2
c-19.333 0 -36.833 1.16699 -52.5 3.5s-29.5 6.5 -41.5 12.5s-22 14.5 -30 25.5s-13.667 25.167 -17 42.5l-26 133c-6.66699 32.667 -18.334 55.334 -35.001 68.001s-41.667 19 -75 19h-31v-117.5c0 -39 0.666992 -78.167 2 -117.5l83 -9v-50h-312v50l81 9
c1.33301 41.333 2 82.833 2 124.5v126.5v35v125.5c0 41.667 -0.666992 83.5 -2 125.5l-81 9v50h312c75.333 0 133.833 -14.667 175.5 -44s62.5 -69.666 62.5 -120.999c0 -16 -2.5 -32.5 -7.5 -49.5s-13.333 -33.333 -25 -49s-27 -29.667 -46 -42
s-42.5 -22.166 -70.5 -29.499c32 -9.33301 58.333 -24.833 79 -46.5s34.667 -50.5 42 -86.5l27 -128zM360.001 838.997c15.333 14 28.333 24 39 30s21 9 31 9c14 0 25.333 -4.5 34 -13.5s13 -19.5 13 -31.5c0 -9.33301 -3.66699 -19 -11 -29s-22.333 -20.667 -45 -32
l-144 -70l-25 34z" />
    <glyph glyph-name="racute" unicode="&#x155;" horiz-adv-x="457" 
d="M236 390c18.667 34 39.999 60.499 63.999 79.499s47.667 28.5 71 28.5c14 0 28.5 -4.33301 43.5 -13s25.167 -25 30.5 -49c0 -22 -6.33301 -39.833 -19 -53.5s-29.667 -20.5 -51 -20.5c-26 0 -51.667 13.667 -77 41l-2 2c-12 -11.333 -23.167 -24.166 -33.5 -38.499
s-19.166 -30.833 -26.499 -49.5v-107v-73c0 -27.333 0.333008 -53.333 1 -78l76 -15v-44h-275v44l61 12c0.666992 24.667 1 51.167 1 79.5v74.5v58v36c0 10 -0.166992 19.5 -0.5 28.5l-1 26c-0.333008 8.33301 -0.833008 17.5 -1.5 27.5l-67 9v38l181 65l15 -10z
M233.999 670.999c19.333 34 36.002 57.8311 50.002 71.498s29.333 20.5 46 20.5c14 0 25.833 -4.16699 35.5 -12.5s14.5 -20.166 14.5 -35.499c0 -6.66699 -1.16699 -13.167 -3.5 -19.5s-6.33301 -13.166 -12 -20.499s-13.334 -15.333 -23.001 -24s-21.834 -19 -36.501 -31
l-95 -77l-34 27z" />
    <glyph glyph-name="uni0156" unicode="&#x156;" horiz-adv-x="671" 
d="M303 349c25.333 0 46.833 3.5 64.5 10.5s32 16.333 43 28s19 25.5 24 41.5s7.5 33 7.5 51c0 40 -11 70 -33 90s-57.333 30 -106 30h-42c-1.33301 -41.333 -2 -82.833 -2 -124.5v-126.5h44zM664 50l0.000976562 -50.0029c-20 -4 -37.667 -6.66699 -53 -8s-30 -2 -44 -2
c-19.333 0 -36.833 1.16699 -52.5 3.5s-29.5 6.5 -41.5 12.5s-22 14.5 -30 25.5s-13.667 25.167 -17 42.5l-26 133c-6.66699 32.667 -18.334 55.334 -35.001 68.001s-41.667 19 -75 19h-31v-117.5c0 -39 0.666992 -78.167 2 -117.5l83 -9v-50h-312v50l81 9
c1.33301 41.333 2 82.833 2 124.5v126.5v35v125.5c0 41.667 -0.666992 83.5 -2 125.5l-81 9v50h312c75.333 0 133.833 -14.667 175.5 -44s62.5 -69.666 62.5 -120.999c0 -16 -2.5 -32.5 -7.5 -49.5s-13.333 -33.333 -25 -49s-27 -29.667 -46 -42
s-42.5 -22.166 -70.5 -29.499c32 -9.33301 58.333 -24.833 79 -46.5s34.667 -50.5 42 -86.5l27 -128zM268.001 -231.003c18 7.33301 33.832 14.999 47.499 22.999s26.167 18.333 37.5 31c-15.333 6.66699 -28.666 15.667 -39.999 27s-17 25.333 -17 42s6 31.334 18 44.001
s28 19 48 19c8.66699 0 17.5 -1.5 26.5 -4.5s18.167 -8.83301 27.5 -17.5c4.66699 -9.33301 7.83398 -19 9.50098 -29s2.5 -19 2.5 -27c0 -18.667 -4 -35.667 -12 -51s-18.667 -29 -32 -41s-28.833 -22.667 -46.5 -32s-35.834 -17 -54.501 -23z" />
    <glyph glyph-name="uni0157" unicode="&#x157;" horiz-adv-x="457" 
d="M236 390c18.667 34 39.999 60.499 63.999 79.499s47.667 28.5 71 28.5c14 0 28.5 -4.33301 43.5 -13s25.167 -25 30.5 -49c0 -22 -6.33301 -39.833 -19 -53.5s-29.667 -20.5 -51 -20.5c-26 0 -51.667 13.667 -77 41l-2 2c-12 -11.333 -23.167 -24.166 -33.5 -38.499
s-19.166 -30.833 -26.499 -49.5v-107v-73c0 -27.333 0.333008 -53.333 1 -78l76 -15v-44h-275v44l61 12c0.666992 24.667 1 51.167 1 79.5v74.5v58v36c0 10 -0.166992 19.5 -0.5 28.5l-1 26c-0.333008 8.33301 -0.833008 17.5 -1.5 27.5l-67 9v38l181 65l15 -10z
M81.999 -231.001c18 7.33301 33.832 14.999 47.499 22.999s26.167 18.333 37.5 31c-15.333 6.66699 -28.666 15.667 -39.999 27s-17 25.333 -17 42s6 31.334 18 44.001s28 19 48 19c8.66699 0 17.5 -1.5 26.5 -4.5s18.167 -8.83301 27.5 -17.5
c4.66699 -9.33301 7.83398 -19 9.50098 -29s2.5 -19 2.5 -27c0 -18.667 -4 -35.667 -12 -51s-18.667 -29 -32 -41s-28.833 -22.667 -46.5 -32s-35.834 -17 -54.501 -23z" />
    <glyph glyph-name="Rcaron" unicode="&#x158;" horiz-adv-x="671" 
d="M303 349c25.333 0 46.833 3.5 64.5 10.5s32 16.333 43 28s19 25.5 24 41.5s7.5 33 7.5 51c0 40 -11 70 -33 90s-57.333 30 -106 30h-42c-1.33301 -41.333 -2 -82.833 -2 -124.5v-126.5h44zM664 50l0.000976562 -50.0029c-20 -4 -37.667 -6.66699 -53 -8s-30 -2 -44 -2
c-19.333 0 -36.833 1.16699 -52.5 3.5s-29.5 6.5 -41.5 12.5s-22 14.5 -30 25.5s-13.667 25.167 -17 42.5l-26 133c-6.66699 32.667 -18.334 55.334 -35.001 68.001s-41.667 19 -75 19h-31v-117.5c0 -39 0.666992 -78.167 2 -117.5l83 -9v-50h-312v50l81 9
c1.33301 41.333 2 82.833 2 124.5v126.5v35v125.5c0 41.667 -0.666992 83.5 -2 125.5l-81 9v50h312c75.333 0 133.833 -14.667 175.5 -44s62.5 -69.666 62.5 -120.999c0 -16 -2.5 -32.5 -7.5 -49.5s-13.333 -33.333 -25 -49s-27 -29.667 -46 -42
s-42.5 -22.166 -70.5 -29.499c32 -9.33301 58.333 -24.833 79 -46.5s34.667 -50.5 42 -86.5l27 -128zM465.001 835.997l-108 -126h-80l-108 126l31 31l117 -85l117 85z" />
    <glyph glyph-name="rcaron" unicode="&#x159;" horiz-adv-x="457" 
d="M236 390c18.667 34 39.999 60.499 63.999 79.499s47.667 28.5 71 28.5c14 0 28.5 -4.33301 43.5 -13s25.167 -25 30.5 -49c0 -22 -6.33301 -39.833 -19 -53.5s-29.667 -20.5 -51 -20.5c-26 0 -51.667 13.667 -77 41l-2 2c-12 -11.333 -23.167 -24.166 -33.5 -38.499
s-19.166 -30.833 -26.499 -49.5v-107v-73c0 -27.333 0.333008 -53.333 1 -78l76 -15v-44h-275v44l61 12c0.666992 24.667 1 51.167 1 79.5v74.5v58v36c0 10 -0.166992 19.5 -0.5 28.5l-1 26c-0.333008 8.33301 -0.833008 17.5 -1.5 27.5l-67 9v38l181 65l15 -10z
M408.999 731.999l-111 -164h-82l-111 164l34 28l118 -111l118 111z" />
    <glyph glyph-name="Sacute" unicode="&#x15a;" horiz-adv-x="534" 
d="M321 389c36 -12.667 66 -26.501 90 -41.501s43.167 -31 57.5 -48s24.666 -34.667 30.999 -53s9.5 -37.166 9.5 -56.499c0 -29.333 -6.33301 -56.333 -19 -81s-30.5 -46.334 -53.5 -65.001s-50.667 -33.167 -83 -43.5s-68.5 -15.5 -108.5 -15.5
c-38 0 -75.667 4.5 -113 13.5s-69.666 21.833 -96.999 38.5l6 147h83l20 -120c15.333 -7.33301 31 -13.166 47 -17.499s33.667 -6.5 53 -6.5c42 0 74.667 9.66699 98 29s35 45 35 77c0 25.333 -8.16699 45.333 -24.5 60s-42.5 28.667 -78.5 42l-49 18
c-59.333 21.333 -105.5 49.5 -138.5 84.5s-49.5 77.5 -49.5 127.5c0 28 5.5 53.667 16.5 77s27 43.5 48 60.5s46.333 30.333 76 40s63.5 14.5 101.5 14.5c36.667 0 71.167 -4.5 103.5 -13.5s60.5 -21.833 84.5 -38.5l-7 -137h-82l-20 118
c-13.333 5.33301 -26.333 9.33301 -39 12s-25.667 4 -39 4c-33.333 0 -61.333 -8.66699 -84 -26s-34 -42 -34 -74c0 -28 9.33301 -50 28 -66s45 -30 79 -42zM298 838.999c15.333 14 28.333 24 39 30s21 9 31 9c14 0 25.333 -4.5 34 -13.5s13 -19.5 13 -31.5
c0 -9.33301 -3.66699 -19 -11 -29s-22.333 -20.667 -45 -32l-144 -70l-25 34z" />
    <glyph glyph-name="sacute" unicode="&#x15b;" horiz-adv-x="464" 
d="M298 296c26 -9.33301 47.6631 -19.498 64.9961 -30.498s31 -22.833 41 -35.5s17 -26.167 21 -40.5s6 -29.5 6 -45.5c0 -24 -5 -45.667 -15 -65s-24.333 -36 -43 -50s-41 -24.833 -67 -32.5s-55.333 -11.5 -88 -11.5c-34.667 0 -65.167 4 -91.5 12s-53.5 20 -81.5 36v115
h77l13 -87c15.333 -8.66699 29.5 -14.834 42.5 -18.501s26.5 -5.5 40.5 -5.5c32 0 55.5 5.33301 70.5 16s22.5 27 22.5 49c0 9.33301 -1.5 17.5 -4.5 24.5s-8.16699 13.5 -15.5 19.5s-17.166 12 -29.499 18s-28.166 12.667 -47.499 20l-46 18
c-40 15.333 -70.167 35.166 -90.5 59.499s-30.5 54.166 -30.5 89.499c0 44 16.833 79.5 50.5 106.5s84.834 40.5 153.501 40.5c30 0 56.667 -3.33301 80 -10s47.333 -16 72 -28l-6 -110h-76l-15 83c-8.66699 3.33301 -17.667 6.33301 -27 9s-20.666 4 -33.999 4
c-24 0 -43.333 -5.5 -58 -16.5s-22 -26.167 -22 -45.5c0 -7.33301 1.33301 -14.166 4 -20.499s7.66699 -12.5 15 -18.5s17.5 -12 30.5 -18s29.5 -12.333 49.5 -19zM222.996 671.002c19.333 34 36.002 57.8311 50.002 71.498s29.333 20.5 46 20.5
c14 0 25.833 -4.16699 35.5 -12.5s14.5 -20.166 14.5 -35.499c0 -6.66699 -1.16699 -13.167 -3.5 -19.5s-6.33301 -13.166 -12 -20.499s-13.334 -15.333 -23.001 -24s-21.834 -19 -36.501 -31l-95 -77l-34 27z" />
    <glyph glyph-name="uni015E" unicode="&#x15e;" horiz-adv-x="534" 
d="M321 389c36 -12.667 66 -26.501 90 -41.501s43.167 -31 57.5 -48s24.666 -34.667 30.999 -53s9.5 -37.166 9.5 -56.499c0 -29.333 -6.33301 -56.333 -19 -81s-30.5 -46.334 -53.5 -65.001s-50.667 -33.167 -83 -43.5s-68.5 -15.5 -108.5 -15.5
c-38 0 -75.667 4.5 -113 13.5s-69.666 21.833 -96.999 38.5l6 147h83l20 -120c15.333 -7.33301 31 -13.166 47 -17.499s33.667 -6.5 53 -6.5c42 0 74.667 9.66699 98 29s35 45 35 77c0 25.333 -8.16699 45.333 -24.5 60s-42.5 28.667 -78.5 42l-49 18
c-59.333 21.333 -105.5 49.5 -138.5 84.5s-49.5 77.5 -49.5 127.5c0 28 5.5 53.667 16.5 77s27 43.5 48 60.5s46.333 30.333 76 40s63.5 14.5 101.5 14.5c36.667 0 71.167 -4.5 103.5 -13.5s60.5 -21.833 84.5 -38.5l-7 -137h-82l-20 118
c-13.333 5.33301 -26.333 9.33301 -39 12s-25.667 4 -39 4c-33.333 0 -61.333 -8.66699 -84 -26s-34 -42 -34 -74c0 -28 9.33301 -50 28 -66s45 -30 79 -42zM280 -54.001c64 -11.333 96 -39.665 96 -84.998c0 -29.333 -11 -51.833 -33 -67.5s-52.667 -23.5 -92 -23.5
c-15.333 0 -29 1 -41 3s-22.667 4.33301 -32 7l10 43c8.66699 -1.33301 17.167 -2.5 25.5 -3.5s17.833 -1.5 28.5 -1.5c17.333 0 30.333 3.66699 39 11s13 17.666 13 30.999c0 15.333 -5.83301 26.166 -17.5 32.499s-28.167 10.5 -49.5 12.5l14 103h46z" />
    <glyph glyph-name="uni015F" unicode="&#x15f;" horiz-adv-x="464" 
d="M298 296c26 -9.33301 47.6631 -19.498 64.9961 -30.498s31 -22.833 41 -35.5s17 -26.167 21 -40.5s6 -29.5 6 -45.5c0 -24 -5 -45.667 -15 -65s-24.333 -36 -43 -50s-41 -24.833 -67 -32.5s-55.333 -11.5 -88 -11.5c-34.667 0 -65.167 4 -91.5 12s-53.5 20 -81.5 36v115
h77l13 -87c15.333 -8.66699 29.5 -14.834 42.5 -18.501s26.5 -5.5 40.5 -5.5c32 0 55.5 5.33301 70.5 16s22.5 27 22.5 49c0 9.33301 -1.5 17.5 -4.5 24.5s-8.16699 13.5 -15.5 19.5s-17.166 12 -29.499 18s-28.166 12.667 -47.499 20l-46 18
c-40 15.333 -70.167 35.166 -90.5 59.499s-30.5 54.166 -30.5 89.499c0 44 16.833 79.5 50.5 106.5s84.834 40.5 153.501 40.5c30 0 56.667 -3.33301 80 -10s47.333 -16 72 -28l-6 -110h-76l-15 83c-8.66699 3.33301 -17.667 6.33301 -27 9s-20.666 4 -33.999 4
c-24 0 -43.333 -5.5 -58 -16.5s-22 -26.167 -22 -45.5c0 -7.33301 1.33301 -14.166 4 -20.499s7.66699 -12.5 15 -18.5s17.5 -12 30.5 -18s29.5 -12.333 49.5 -19zM239.996 -53.998c64 -11.333 96 -39.665 96 -84.998c0 -29.333 -11 -51.833 -33 -67.5
s-52.667 -23.5 -92 -23.5c-15.333 0 -29 1 -41 3s-22.667 4.33301 -32 7l10 43c8.66699 -1.33301 17.167 -2.5 25.5 -3.5s17.833 -1.5 28.5 -1.5c17.333 0 30.333 3.66699 39 11s13 17.666 13 30.999c0 15.333 -5.83301 26.166 -17.5 32.499s-28.167 10.5 -49.5 12.5l14 103
h46z" />
    <glyph glyph-name="Scaron" unicode="&#x160;" horiz-adv-x="534" 
d="M321 389c36 -12.667 66 -26.501 90 -41.501s43.167 -31 57.5 -48s24.666 -34.667 30.999 -53s9.5 -37.166 9.5 -56.499c0 -29.333 -6.33301 -56.333 -19 -81s-30.5 -46.334 -53.5 -65.001s-50.667 -33.167 -83 -43.5s-68.5 -15.5 -108.5 -15.5
c-38 0 -75.667 4.5 -113 13.5s-69.666 21.833 -96.999 38.5l6 147h83l20 -120c15.333 -7.33301 31 -13.166 47 -17.499s33.667 -6.5 53 -6.5c42 0 74.667 9.66699 98 29s35 45 35 77c0 25.333 -8.16699 45.333 -24.5 60s-42.5 28.667 -78.5 42l-49 18
c-59.333 21.333 -105.5 49.5 -138.5 84.5s-49.5 77.5 -49.5 127.5c0 28 5.5 53.667 16.5 77s27 43.5 48 60.5s46.333 30.333 76 40s63.5 14.5 101.5 14.5c36.667 0 71.167 -4.5 103.5 -13.5s60.5 -21.833 84.5 -38.5l-7 -137h-82l-20 118
c-13.333 5.33301 -26.333 9.33301 -39 12s-25.667 4 -39 4c-33.333 0 -61.333 -8.66699 -84 -26s-34 -42 -34 -74c0 -28 9.33301 -50 28 -66s45 -30 79 -42zM422 835.999l-108 -126h-80l-108 126l31 31l117 -85l117 85z" />
    <glyph glyph-name="scaron" unicode="&#x161;" horiz-adv-x="464" 
d="M298 296c26 -9.33301 47.6631 -19.498 64.9961 -30.498s31 -22.833 41 -35.5s17 -26.167 21 -40.5s6 -29.5 6 -45.5c0 -24 -5 -45.667 -15 -65s-24.333 -36 -43 -50s-41 -24.833 -67 -32.5s-55.333 -11.5 -88 -11.5c-34.667 0 -65.167 4 -91.5 12s-53.5 20 -81.5 36v115
h77l13 -87c15.333 -8.66699 29.5 -14.834 42.5 -18.501s26.5 -5.5 40.5 -5.5c32 0 55.5 5.33301 70.5 16s22.5 27 22.5 49c0 9.33301 -1.5 17.5 -4.5 24.5s-8.16699 13.5 -15.5 19.5s-17.166 12 -29.499 18s-28.166 12.667 -47.499 20l-46 18
c-40 15.333 -70.167 35.166 -90.5 59.499s-30.5 54.166 -30.5 89.499c0 44 16.833 79.5 50.5 106.5s84.834 40.5 153.501 40.5c30 0 56.667 -3.33301 80 -10s47.333 -16 72 -28l-6 -110h-76l-15 83c-8.66699 3.33301 -17.667 6.33301 -27 9s-20.666 4 -33.999 4
c-24 0 -43.333 -5.5 -58 -16.5s-22 -26.167 -22 -45.5c0 -7.33301 1.33301 -14.166 4 -20.499s7.66699 -12.5 15 -18.5s17.5 -12 30.5 -18s29.5 -12.333 49.5 -19zM397.996 732.002l-111 -164h-82l-111 164l34 28l118 -111l118 111z" />
    <glyph glyph-name="uni0162" unicode="&#x162;" horiz-adv-x="644" 
d="M397 600c-1.33301 -42 -2 -84.167 -2 -126.5v-128.5v-35v-125c0 -41.333 0.666992 -83 2 -125l91 -10v-50h-332v50l91 10c1.33301 41.333 2 82.833 2 124.5v125.5v35v127.5c0 42.333 -0.666992 84.833 -2 127.5h-132l-20 -129h-75l5 184h594l5 -184h-75l-20 129h-132z
M337 -54c64 -11.333 96 -39.665 96 -84.998c0 -29.333 -11 -51.833 -33 -67.5s-52.667 -23.5 -92 -23.5c-15.333 0 -29 1 -41 3s-22.667 4.33301 -32 7l10 43c8.66699 -1.33301 17.167 -2.5 25.5 -3.5s17.833 -1.5 28.5 -1.5c17.333 0 30.333 3.66699 39 11
s13 17.666 13 30.999c0 15.333 -5.83301 26.166 -17.5 32.499s-28.167 10.5 -49.5 12.5l14 103h46z" />
    <glyph glyph-name="uni0163" unicode="&#x163;" horiz-adv-x="356" 
d="M357 61c-12.667 -19.333 -30.999 -36 -54.999 -50s-54 -21 -90 -21c-40.667 0 -72.834 10 -96.501 30s-35.5 51 -35.5 93c0 20.667 0.166992 38.5 0.5 53.5s0.5 32.167 0.5 51.5v198h-67v55l79 10l28 139h96v-140h114v-64h-114v-275c0 -24.667 4.83301 -42.5 14.5 -53.5
s22.167 -16.5 37.5 -16.5c6.66699 0 15.167 1.5 25.5 4.5s21.5 9.5 33.5 19.5zM221.001 -54c64 -11.333 96 -39.665 96 -84.998c0 -29.333 -11 -51.833 -33 -67.5s-52.667 -23.5 -92 -23.5c-15.333 0 -29 1 -41 3s-22.667 4.33301 -32 7l10 43
c8.66699 -1.33301 17.167 -2.5 25.5 -3.5s17.833 -1.5 28.5 -1.5c17.333 0 30.333 3.66699 39 11s13 17.666 13 30.999c0 15.333 -5.83301 26.166 -17.5 32.499s-28.167 10.5 -49.5 12.5l14 103h46z" />
    <glyph glyph-name="Tcaron" unicode="&#x164;" horiz-adv-x="644" 
d="M397 600c-1.33301 -42 -2 -84.167 -2 -126.5v-128.5v-35v-125c0 -41.333 0.666992 -83 2 -125l91 -10v-50h-332v50l91 10c1.33301 41.333 2 82.833 2 124.5v125.5v35v127.5c0 42.333 -0.666992 84.833 -2 127.5h-132l-20 -129h-75l5 184h594l5 -184h-75l-20 129h-132z
M470 836l-108 -126h-80l-108 126l31 31l117 -85l117 85z" />
    <glyph glyph-name="tcaron" unicode="&#x165;" horiz-adv-x="356" 
d="M357 61c-12.667 -19.333 -30.999 -36 -54.999 -50s-54 -21 -90 -21c-40.667 0 -72.834 10 -96.501 30s-35.5 51 -35.5 93c0 20.667 0.166992 38.5 0.5 53.5s0.5 32.167 0.5 51.5v198h-67v55l79 10l28 139h96v-140h114v-64h-114v-275c0 -24.667 4.83301 -42.5 14.5 -53.5
s22.167 -16.5 37.5 -16.5c6.66699 0 15.167 1.5 25.5 4.5s21.5 9.5 33.5 19.5zM346.001 735c17.333 0 29.502 -4.16699 36.502 -12.5s10.5 -20.166 10.5 -35.499c0 -12 -2 -24.833 -6 -38.5s-10.333 -30.5 -19 -50.5l-35 -82h-44l4 204
c9.33301 5.33301 18.166 9.16602 26.499 11.499s17.166 3.5 26.499 3.5z" />
    <glyph glyph-name="Umacron" unicode="&#x16a;" horiz-adv-x="750" 
d="M730 605l-89.0029 -9v-313c0 -55.333 -6.66699 -102 -20 -140s-31.666 -68.667 -54.999 -92s-51.166 -40.166 -83.499 -50.499s-67.5 -15.5 -105.5 -15.5c-38.667 0 -74.167 5.16699 -106.5 15.5s-60 26.166 -83 47.499s-40.833 48.833 -53.5 82.5s-19 74.167 -19 121.5
v100v122c0 40.667 -0.666992 81.334 -2 122.001l-81 9v50h312v-50l-80 -8c-1.33301 -40.667 -2 -81.334 -2 -122.001v-123v-69c0 -39.333 3.5 -72.666 10.5 -99.999s17.333 -49.333 31 -66s30.334 -28.667 50.001 -36s42.167 -11 67.5 -11s48 3.66699 68 11
s36.833 19.333 50.5 36s24 38.667 31 66s10.5 60.666 10.5 99.999v313l-87 9v50h236v-50zM265.997 814h310v-82h-310v82z" />
    <glyph glyph-name="umacron" unicode="&#x16b;" horiz-adv-x="602" 
d="M579 44l0.000976562 -43.999l-184 -10l-7 83c-25.333 -28.667 -51.666 -50.5 -78.999 -65.5s-57 -22.5 -89 -22.5c-21.333 0 -40.5 3.16699 -57.5 9.5s-31.667 16.666 -44 30.999s-21.833 32.833 -28.5 55.5s-9.66699 50.667 -9 84l4 255l-55 10v40l180 18l12 -8l-5 -142
v-154c0 -44 5.66699 -74.5 17 -91.5s26 -25.5 44 -25.5c17.333 0 35.166 5.66699 53.499 17s36.166 25.333 53.499 42l4 294l-55 10v38l178 20l12 -8l-3 -142v-282zM154.001 685.001h300v-82h-300v82z" />
    <glyph glyph-name="Uring" unicode="&#x16e;" horiz-adv-x="750" 
d="M730 605l-89.0029 -9v-313c0 -55.333 -6.66699 -102 -20 -140s-31.666 -68.667 -54.999 -92s-51.166 -40.166 -83.499 -50.499s-67.5 -15.5 -105.5 -15.5c-38.667 0 -74.167 5.16699 -106.5 15.5s-60 26.166 -83 47.499s-40.833 48.833 -53.5 82.5s-19 74.167 -19 121.5
v100v122c0 40.667 -0.666992 81.334 -2 122.001l-81 9v50h312v-50l-80 -8c-1.33301 -40.667 -2 -81.334 -2 -122.001v-123v-69c0 -39.333 3.5 -72.666 10.5 -99.999s17.333 -49.333 31 -66s30.334 -28.667 50.001 -36s42.167 -11 67.5 -11s48 3.66699 68 11
s36.833 19.333 50.5 36s24 38.667 31 66s10.5 60.666 10.5 99.999v313l-87 9v50h236v-50zM407.997 704c-30 0 -55.333 8.66699 -76 26s-31 42.666 -31 75.999c0 32 10.333 57 31 75s46 27 76 27s55.333 -8.66699 76 -26s31 -42.666 31 -75.999c0 -32 -10.333 -57 -31 -75
s-46 -27 -76 -27zM407.997 749c17.333 0 30.666 6 39.999 18s14 25 14 39c0 14.667 -4.5 27.834 -13.5 39.501s-22.5 17.5 -40.5 17.5c-17.333 0 -30.666 -5.83301 -39.999 -17.5s-14 -24.834 -14 -39.501c0 -14 4.5 -27 13.5 -39s22.5 -18 40.5 -18z" />
    <glyph glyph-name="uring" unicode="&#x16f;" horiz-adv-x="602" 
d="M579 44l0.000976562 -43.999l-184 -10l-7 83c-25.333 -28.667 -51.666 -50.5 -78.999 -65.5s-57 -22.5 -89 -22.5c-21.333 0 -40.5 3.16699 -57.5 9.5s-31.667 16.666 -44 30.999s-21.833 32.833 -28.5 55.5s-9.66699 50.667 -9 84l4 255l-55 10v40l180 18l12 -8l-5 -142
v-154c0 -44 5.66699 -74.5 17 -91.5s26 -25.5 44 -25.5c17.333 0 35.166 5.66699 53.499 17s36.166 25.333 53.499 42l4 294l-55 10v38l178 20l12 -8l-3 -142v-282zM296.001 587.001c19.333 0 34.166 6.66699 44.499 20s15.5 27.666 15.5 42.999
c0 16 -5.16699 30.5 -15.5 43.5s-25.166 19.5 -44.499 19.5s-34.166 -6.5 -44.499 -19.5s-15.5 -27.5 -15.5 -43.5c0 -15.333 5.16699 -29.666 15.5 -42.999s25.166 -20 44.499 -20zM296.001 539.001c-16 0 -31 2.50195 -45 7.50195s-26.333 12.167 -37 21.5
s-19.167 20.833 -25.5 34.5s-9.5 29.5 -9.5 47.5c0 17.333 3.16699 32.833 9.5 46.5s14.833 25.334 25.5 35.001s23 17 37 22s29 7.5 45 7.5s31 -2.33301 45 -7s26.333 -11.834 37 -21.501s19.167 -21.334 25.5 -35.001s9.5 -29.5 9.5 -47.5
c0 -17.333 -3.16699 -32.833 -9.5 -46.5s-14.833 -25.334 -25.5 -35.001s-23 -17 -37 -22s-29 -7.5 -45 -7.5z" />
    <glyph glyph-name="Uhungarumlaut" unicode="&#x170;" horiz-adv-x="750" 
d="M730 605l-89.0029 -9v-313c0 -55.333 -6.66699 -102 -20 -140s-31.666 -68.667 -54.999 -92s-51.166 -40.166 -83.499 -50.499s-67.5 -15.5 -105.5 -15.5c-38.667 0 -74.167 5.16699 -106.5 15.5s-60 26.166 -83 47.499s-40.833 48.833 -53.5 82.5s-19 74.167 -19 121.5
v100v122c0 40.667 -0.666992 81.334 -2 122.001l-81 9v50h312v-50l-80 -8c-1.33301 -40.667 -2 -81.334 -2 -122.001v-123v-69c0 -39.333 3.5 -72.666 10.5 -99.999s17.333 -49.333 31 -66s30.334 -28.667 50.001 -36s42.167 -11 67.5 -11s48 3.66699 68 11
s36.833 19.333 50.5 36s24 38.667 31 66s10.5 60.666 10.5 99.999v313l-87 9v50h236v-50zM343.997 846c7.33301 16 15.999 27.501 25.999 34.501s20 10.5 30 10.5c10.667 0 20.334 -3.5 29.001 -10.5s13 -16.167 13 -27.5c0 -5.33301 -1.5 -11.833 -4.5 -19.5
s-9.16699 -16.834 -18.5 -27.501l-97 -110l-36 22zM500.996 846.001c7.33301 16 15.999 27.5 25.999 34.5s20 10.5 30 10.5c10.667 0 20.334 -3.5 29.001 -10.5s13 -16.167 13 -27.5c0 -5.33301 -1.5 -12 -4.5 -20s-8.83301 -17 -17.5 -27l-98 -110l-35 22z" />
    <glyph glyph-name="uhungarumlaut" unicode="&#x171;" horiz-adv-x="602" 
d="M579 44l0.000976562 -43.999l-184 -10l-7 83c-25.333 -28.667 -51.666 -50.5 -78.999 -65.5s-57 -22.5 -89 -22.5c-21.333 0 -40.5 3.16699 -57.5 9.5s-31.667 16.666 -44 30.999s-21.833 32.833 -28.5 55.5s-9.66699 50.667 -9 84l4 255l-55 10v40l180 18l12 -8l-5 -142
v-154c0 -44 5.66699 -74.5 17 -91.5s26 -25.5 44 -25.5c17.333 0 35.166 5.66699 53.499 17s36.166 25.333 53.499 42l4 294l-55 10v38l178 20l12 -8l-3 -142v-282zM247.001 708.001c10 23.333 20.5 39.668 31.5 49.001s22.167 14 33.5 14c10.667 0 20 -3.33301 28 -10
s12 -16.334 12 -29.001c0 -9.33301 -2.5 -18.833 -7.5 -28.5s-13.167 -21.5 -24.5 -35.5l-96 -122l-38 21zM387.001 708.003c10.667 24 21.333 40.501 32 49.501s21.667 13.5 33 13.5s20.666 -3.33301 27.999 -10s11 -16.334 11 -29.001
c0 -9.33301 -2.16699 -18.833 -6.5 -28.5s-12.166 -21.5 -23.499 -35.5l-97 -122l-39 21z" />
    <glyph glyph-name="Uogonek" unicode="&#x172;" horiz-adv-x="750" 
d="M730 605l-88.998 -9v-313c0 -33.333 -2.5 -63 -7.5 -89s-11.667 -49 -20 -69s-18.5 -37.667 -30.5 -53s-25 -28.666 -39 -39.999c-28 -23.333 -48 -43.5 -60 -60.5s-18 -35.167 -18 -54.5c0 -24.667 7.5 -42.667 22.5 -54s32.167 -17 51.5 -17
c15.333 0 32.666 2.66699 51.999 8l14 -38c-15.333 -13.333 -34.5 -24.166 -57.5 -32.499s-45.167 -12.5 -66.5 -12.5c-34.667 0 -61.834 9 -81.501 27s-29.5 42 -29.5 72c0 23.333 5.5 45.166 16.5 65.499s25.167 37.5 42.5 51.5
c-7.33301 -0.666992 -14.333 -1.16699 -21 -1.5s-13.667 -0.5 -21 -0.5c-41.333 0 -78.833 5.16699 -112.5 15.5s-62.334 26.166 -86.001 47.499s-42 48.833 -55 82.5s-19.5 74.167 -19.5 121.5v100v122c0 40.667 -0.666992 81.334 -2 122.001l-81 9v50h312v-50l-80 -8
c-1.33301 -40.667 -2 -81.334 -2 -122.001v-123v-69c0 -39.333 3.5 -72.666 10.5 -99.999s17.333 -49.333 31 -66s30.334 -28.667 50.001 -36s42.167 -11 67.5 -11s48 3.66699 68 11s36.833 19.333 50.5 36s24 38.667 31 66s10.5 60.666 10.5 99.999v313l-87 9v50h236v-50z
" />
    <glyph glyph-name="uogonek" unicode="&#x173;" horiz-adv-x="602" 
d="M602 -185c-15.333 -13.333 -34.4971 -24.168 -57.4971 -32.501s-45.167 -12.5 -66.5 -12.5c-34.667 0 -61.834 8.5 -81.501 25.5s-29.5 39.833 -29.5 68.5c0 26 8.16699 50.333 24.5 73s36.833 41.334 61.5 56.001l-58 -3l-7 83
c-25.333 -28.667 -51.666 -50.5 -78.999 -65.5s-57 -22.5 -89 -22.5c-21.333 0 -40.5 3.16699 -57.5 9.5s-31.667 16.666 -44 30.999s-21.833 32.833 -28.5 55.5s-9.66699 50.667 -9 84l4 255l-55 10v40l180 18l12 -8l-5 -142v-154c0 -44 5.66699 -74.5 17 -91.5
s26 -25.5 44 -25.5c17.333 0 35.166 5.66699 53.499 17s36.166 25.333 53.499 42l4 294l-55 10v38l178 20l12 -8l-3 -142v-282l58 -12v-44l-66 -4c-34 -24 -51 -52.333 -51 -85c0 -23.333 7.5 -40.166 22.5 -50.499s32.167 -15.5 51.5 -15.5
c15.333 0 32.666 2.66699 51.999 8z" />
    </font>
</defs>
</svg>
